<mxfile host="app.diagrams.net" modified="2022-07-02T19:44:07.110Z" agent="5.0 (X11; Linux x86_64) AppleWebKit/537.36 (KHTML, like Gecko) Chrome/103.0.5060.53 Safari/537.36" etag="X3-vatkZK0ECpcH4R7zj" version="20.0.4" type="github">
  <diagram id="-fnnpe2LN1s0wDIy3btS" name="Page-1">
    <mxGraphModel dx="1184" dy="675" grid="1" gridSize="10" guides="1" tooltips="1" connect="1" arrows="1" fold="1" page="1" pageScale="1" pageWidth="827" pageHeight="1169" math="0" shadow="0">
      <root>
        <mxCell id="0" />
        <mxCell id="1" parent="0" />
        <mxCell id="4tKkQGwTF7oJl2suKMcT-1" value="" style="shape=image;imageAspect=0;aspect=fixed;verticalLabelPosition=bottom;verticalAlign=top;image=data:image/jpeg,/9j/4AAQSkZJRgABAQEAYABgAAD/2wBDAAMCAgMCAgMDAwMEAwMEBQgFBQQEBQoHBwYIDAoMDAsKCwsNDhIQDQ4RDgsLEBYQERMUFRUVDA8XGBYUGBIUFRT/2wBDAQMEBAUEBQkFBQkUDQsNFBQUFBQUFBQUFBQUFBQUFBQUFBQUFBQUFBQUFBQUFBQUFBQUFBQUFBQUFBQUFBQUFBT/wAARCALQBQADASIAAhEBAxEB/8QAHwAAAQUBAQEBAQEAAAAAAAAAAAECAwQFBgcICQoL/8QAtRAAAgEDAwIEAwUFBAQAAAF9AQIDAAQRBRIhMUEGE1FhByJxFDKBkaEII0KxwRVS0fAkM2JyggkKFhcYGRolJicoKSo0NTY3ODk6Q0RFRkdISUpTVFVWV1hZWmNkZWZnaGlqc3R1dnd4eXqDhIWGh4iJipKTlJWWl5iZmqKjpKWmp6ipqrKztLW2t7i5usLDxMXGx8jJytLT1NXW19jZ2uHi4+Tl5ufo6erx8vP09fb3+Pn6/8QAHwEAAwEBAQEBAQEBAQAAAAAAAAECAwQFBgcICQoL/8QAtREAAgECBAQDBAcFBAQAAQJ3AAECAxEEBSExBhJBUQdhcRMiMoEIFEKRobHBCSMzUvAVYnLRChYkNOEl8RcYGRomJygpKjU2Nzg5OkNERUZHSElKU1RVVldYWVpjZGVmZ2hpanN0dXZ3eHl6goOEhYaHiImKkpOUlZaXmJmaoqOkpaanqKmqsrO0tba3uLm6wsPExcbHyMnK0tPU1dbX2Nna4uPk5ebn6Onq8vP09fb3+Pn6/9oADAMBAAIRAxEAPwD9U6KKKACiiigAooooAKKKKACiiigAooooAKKKKACiiigAooooAKKKKACiiigAooooAKKKKACiiigAooooAKKKKACiiigAooooAKKKKACiiigAooooAKKKKACiiigAooooAKKKKACiiigAooooAKKKKACiiigAooooAKKKKACiiigAooooAKKKKACiiigAooooAKKKKACiiigAooooAKKKKACiiigAooooAKKKKACiiigAooooAKKKKACiiigAooooAKKKKACiiigAooooAKKKKACiiigAooooAKKKKACiiigAooooAKKKKACiiigAooooAKKKKACiiigAooooAKKKKACiiigAooooAKKKKACiiigAooooAKKKKACiiigAooooAKKKKACiiigAooooAKKKKACiiigAooooAKKKKACiiigAooooAKKKKACiiigAooooAKKKKACiiigAooooAKKKKACiiigAooooAKKKKACiiigAooooAKKKKACiiigAooooAKKKKACiiigAooooAKKKKACiiigAooooAKKKKACiiigAooooAKKKKACiiigAooooAKKKKACiiigAooooAKKKKACiiigAooooAKKKKACiiigAooooAKKKKACiiigAooooAKKKKACiiigAooooAKKKKACiiigAooooAKKKKACiiigAooooAKKKKACiiigAooooAKKKKACiiigAooooAKKKKACiiigAooooAKKKKACiiigAooooAKKKKACiiigAooooAKKKKACiiigAooooAKKKKACiiigAooooAKKKKACiiigAooooAKKKKACiiigAooooAKKKKACiiigAooooAKKKKACiiigAooooAKKKKACiiigAooooAKKKKACiiigAooooAKKKKACiiigAooooAKKKKACiiigAooooAKKKKACiiigAooooAKKKKACiiigAooooAKKKKACiiigAooooAKKKKACiiigAooooAKKKKACiiigAooooAKKKKACiiigAooooAKKKKACiiigAooooAKKKKACiiigAooooAKKKKACiiigAooooAKKKKACiiigAooooAKKKKACiiigAooooAKKKKACiiigAooooAKKKKACiiigAooooAKKKKACiiigAooooAKKKKACiiigAooooAKKKKACiiigAooooAKKKKACiiigAooooAKKKKACiiigAooooAKKKKACiiigAooooAKKKKACiiigAooooAKKKKACiiigAooooAKKKKACiiigAooooAKKKKACiiigAooooAKKKKACiiigAooooAKKKKACiiigAooooAKKKKACiiigAooooAK5Tx747/wCEIisn+w/bRcs4/wBb5e3GP9k5611deW/HUKbLSd3Z5D+i0mJ7Fdvj2F/5gef+3v8A+wqSL47CRc/2Jg5x/wAff/2FeRkKQR36cClh+VCAMcnikrmLmz1tvjrtx/xJOf8Ar7/+wqM/HrA/5AWf+3v/AOwryeRj1OKgaU/WqQudrc9bb4/4bH9hf+Tn/wBrpjftB7f+YB/5O/8A2uvIXbGc/pUDHJ9/anYOdnsLftEbf+Zf/wDJ3/7XTT+0YAM/8I/x/wBfv/2uvGmPYdqiY4HFMOeR7Qf2j8DP/CPZ/wC33/7XTW/aS2/8y7/5Pf8A2uvFS+M1Ez9aBc7PbD+0rjr4c/8AJ7/7XTW/aY2/8y3/AOT3/wBrrxFj69PSomYk9c80BzyPcT+01jr4b4/6/wD/AO10n/DTnP8AyLf/AJP/AP2uvDGYkk0zOMUaBzyPdf8Ahp7n/kWv/J//AO10n/DT/wD1LXH/AF//AP2qvC84zTc8Y5pD5pHup/agx/zLX/k//wDaqb/w1Fzj/hGf/J//AO1V4SzY60zP1p2FzyPeT+1Fj/mWf/J//wC1Un/DUnP/ACLP/k//APaq8FLH600sWPtQLnke9n9qb/qWOf8Ar/8A/tVRn9qrH/Mr/wDlQ/8AtVeDmoHPJFIrnfc99/4au/6lb/yof/aqT/hq7/qVv/Kh/wDaq8ALc9abk4xQLnZ9Af8ADWH/AFKv/lQ/+1Uf8NYY/wCZW/8AKh/9qr59z70mc96A55dz6CP7WWP+ZW/8qP8A9qo/4ay/6lb/AMqP/wBqr58JptCDnZ9CH9rTH/Mq5/7iP/2qkP7WmP8AmVf/ACo//aq+eySaQkgUC55H0J/w1t/1Kn/lR/8AtVI37W+OnhTP/cR/+1V88Ek00kkHmgOeR9D/APDXX/Up/wDlS/8AtVJ/w13/ANSn/wCVL/7VXzvk4ppJ5p2GpyPon/hrznH/AAif/lS/+1Un/DX3/Up/+VL/AO1V86E5pjN3osTzyPow/tgc/wDIpD/wZf8A2mk/4bC/6lH/AMqX/wBqr5yJJPqKYSccUWQc8u59HH9sTAz/AMIj/wCVL/7TSf8ADY3b/hEef+wn/wDaa+cC2ajJIpWF7SXc+kT+2R/1KH/lT/8AtNI37ZJUf8if/wCVP/7TXzYxzTCx9aCueR9KH9szB/5E/wD8qf8A9ppD+2fj/mT/APyqf/aa+aHbHeomk/EUg55H0yf20sf8yd/5VP8A7TTT+2rg/wDInf8AlU/+018yPJnODj0xURf3oHzyPp8/tr4/5k3/AMqn/wBppp/bZx/zJn/lU/8AtNfLzyY9qYZCKB87PqM/tt4/5kz/AMqv/wBppD+25gZ/4Qv/AMqv/wBpr5a3+/5U0tjvQLnkfUh/bf4/5Ev/AMqv/wBppD+3F/1JX/lV/wDtNfLJkycZppbnrSHzS7n1P/w3Fn/mSuf+wr/9ppD+3Jj/AJkr/wAqv/2ivlZmJGMdaQuaYObPqn/hubnH/CE/+VX/AO0Uh/bn5/5En89W/wDtFfKjNk00seMUC55H1Wf26sf8yR/5Vv8A7RSf8N146+CP/Kt/9or5SLcdqYW6daA55H1cf27cf8yP+erf/aKT/hvD/qR//Kt/9or5Q3HHXFRkn/PegfOz6xP7ePGf+EH/APKv/wDaKP8AhvLHXwN/5V//ALRXyWzE9z36U12P4+9MXOz60P7euBn/AIQX/wAq/wD9opp/b4x/zIv/AJV//tFfJTNgjP6U1iR0xxSBzkfWx/b5x18Cf+Vf/wC0VGf2/tvXwJg+h1j/AO0V8kuTj0Hc1E7dc8Uw55PqfXX/AA8Awf8AkRP/ACsf/aKT/h4CP+hDx9dY/wDtFfIR49+aTcSSM4osLnkfXv8Aw8CAIH/CB/8AlY/+0Vr+Df24/wDhLfF+h6H/AMIV9k/tO+gsvtH9q7/L8yRU3bfJG7G7OMjOOtfFeeRxXXfBz/krngggcf27Y/8ApQlBSnK5+ptcN8WPiPJ8NdJsryKxS/NxP5JR5Sm35Sc5wfSu5rxT9qb/AJFXR/8Ar9P/AKA1I2k7RbRhf8NVXX/Quw/+BZ/+IoP7Vd0P+Zdh/wDAo/8AxFeDZoPWg5eeXc95P7Vd0P8AmXYf/As//EUh/aruh/zLkP8A4Fn/AOIrwY/pRTHzy7nvP/DVl1/0LsI/7ez/APEUf8NWXf8A0LsP/gUf/ia8GzSetIOeR71/w1Xd/wDQuQ/+BZ/+IoP7Vl3/ANC5D/4Fn/4ivBc0E0x88u57yf2rLsf8y7D/AOBZ/wDiKP8Ahq26/wChdh/8Cz/8RXg2aQmgOeR71/w1bd/9C5D/AOBR/wDiKT/hq67/AOhch/8AAs//ABFeCmkPvSHzS7nvX/DWF3/0LkP/AIFn/wCIpP8AhrC7/wChbh/8Cz/8RXglIevtQHPLue9n9rG77eG4T/29n/4ij/hrG7/6FyEfW7P/AMRXgYxge/aj1+tAueR77/w1jd/9C3Cf+3s//EUD9rC7P/MuQ/8AgWf/AIivAR0pw6cdPalcOeTPfR+1fdHp4ch/8Cz/APEUf8NYXf8A0LkP/gWf/iK8Czg0fQ/nTBzke+/8NX3f/QuQ/wDgWf8A4il/4auu/wDoXIf/AALP/wARXgg6fhS9PpQCnLue9H9q67/6FyE/9vZ/+Ipf+Grbv/oXIf8AwLP/AMRXggpRxQPnlY96/wCGrLv/AKFyH/wLP/xFH/DVt3/0LkP/AIFn/wCIrwbNJ2oFzyPev+GrLr/oXIf/AALP/wARR/w1Zd5/5FyH/wACz/8AE14LmlFIbnLue9f8NWXef+Rdh/8AAs//ABFH/DVl1/0LsP8A4Fn/AOIrwbpmigOeXc95H7Vd3/0LsP8A4Fn/AOIpT+1Xdf8AQuw/+BR/+IrwWlLe+aVx80j3j/hqu7/6FyH/AMCz/wDEUh/atux/zLkJ/wC3s/8AxFeDE4pjGi4+Z9z3ab9rS7iRmHhqFiO32tv/AIiub139uG/0e1Mw8I28uM8G+YZI/wCAV5O7YI3Y298+lcP8QtO+02I+xtiUFnVCeHHcfyoT1E5Puel/8POtQjvBFN4BtY4jwZP7Tb5fqPKq1ff8FKdVtQrR+ArSWJuRINTbH/ouvizxbp++R7i2TawGJY2xkH/PesTSNeMI+yXnNvngnqprSwud9z7Rk/4KnaxDKY3+HNmre+qvz/5Cpi/8FUtWZsf8K6s8dc/2q/8A8ar441bSPMXeMFTlo5R/X2rnJI3ik2OuxgOQaQ1Jvqfdx/4KnaqP+ad2ePX+1X/+NV6T+z7+3nffG74q6J4Qm8HW2kx6gJy11HftK0flwSS/dMYznZjr3r8zonO0qwGMcV9BfsFsR+1R4N9Ct7/6RT1ehKlK6Vz9caKKKzOoKKKKACiiigAooooAKKKKACiiigAooooAKKKKACiiigAooooAKKKKACiiigAooooAKKKKACiiigAooooAKKKKACiiigAooooAKKKKACiiigAooooAK8w+OCBrPSiRkB5P/Za9PrzD45HGn6Xxz5j/APstBE/hPH2jXn0pAoxgE9fWhjwB3xUe/Ix6VRyXYkmBUDgA9c81KzcZ61BI2enOaYakbAA9TmonAOaczDPrUTnt/OiwXY1++aifBBpxOB161DIwOTRoO7GEjPvTG/H8KVif8mo2OeO9AtRCQfwqNuDSlgaiLAjr+HrSHcRgfWkYUbu9NZqeggP403IOe5oZvWmE0BcG60wgetOJPrTGI4z+VAagQB+FNIp2eaQtwaA1GEDmonUVIzDHSojkikF9Bhxim7etOJzTSaQJhtpMYFL6+lB/WmF2MZefamlcVJ1FIBzQGowqOn9KaV7e/apCMUh596QXIio7Zpu33qU9KY3B4piIWHFNI596zfEuotp9mTG4VmBBY/w+/wCQNcJH4zWK3mumdJArbV3sFGcZyatQurkSnZ2PSmwPamMVHJbAryC7+I6E7/tStnqxIAzWfN8QmkBEN0nP+3Wns/My9rboe1vLGpwXUEc8momuYgRmVB9WFeID4g7flF0m703Ek/rUA+IJRiZLsbz3O/gfnS9mV7TyPc2u4B/y2jA9dwqJ7y3A/wBfHjrneK8Ol+ILKxY3JwPuj5+frTV8fyXMkHl3DMhkUMdr9NwyKPZsXtD3LzlkUMjBlP8AEDkUwye9cz4L1pdV0XcGUmKRkIUEd89/rW2ZM89qwOhMkeTj/Comf3pjy/So2lNBSHk9RmomJx1GKaX/AP1mms9SFxWPXJ4prHHeml/emM1JD1HE8UzPrTS2cDvSZpgP696aaTPvSZFMBSMg/Sm45PPPtRnFBODQSNI/H3phU+vWnk96aeOlAO4wj/IphAHXrTyaaee2KBDW56Go2HvUhJ6UxuaZV7kZHHHU0zGe/wBMipCcmmsRjtQSR4/CmlcdakqNuCe1AEbKajZeTzxUp65prgbenFAiAr1ppHH9Kex54ppHvTBDduBjJB9q7D4OjHxc8D55/wCJ5Y+w/wCPhK5LpXW/B0AfF3wP6/25Y/8ApQlOxSep+pleJ/tTf8iro/8A1+n/ANFtXtleJ/tTHHhXR/8Ar9P/AKA1QdU9Ys+ae+aM0nQ0UzlSFpCaCfypOuaAAH2pelJ0FJnpSBjjSbuPSj6UHrQTqxDRRkYo60FCE470Uh60h60ABOMnFNJOSO1Ddhim9e/HWkw1FHt1NIT3xSZAz/OgEcjP40gH5yPxoB54PSmg/nSBsfSgY/PvilzTV70vXnGKYx+aM0gpc/nTAUc/Wlzik/maWgBaTp0ozSZoFuOpc8U2loDYO1Lmk+lGcUrjFzQT+VJnFISe1SMUmo2OKcT9ajc4BoY0QysCDXnPj7VJdLtI5YWb5WORngjHT/PpXokp4J615745EU2nyW8qhvMDFQfUDt78047g9jyzUJodZj+2W3D4wyuOo/un1HX6Vxut6KJma6tkwu7DR5+6fT/69djZeHpNIllurshYABgDjzPYfTvXIa9rjXuqzNbjyos7SF6Njt9K03ehPSxHoGriNDaXpLQsfkbg7D0qzq+gDgg5YgFJR2HoajtdIPiCRPscZ80/fQDJJPb61va9fweH9ITTlZbi5dSC3XAz+fr9aTGlY4V4WhbbIuGUndg19AfsEt/xlN4LX2vsH/tynr5/dyzbmJdmzk+te+/sFEn9qrwUfVb7p/15T0x2u0frrRRRUnSFFFFABRRRQAUUUUAFFFFABRRRQAUUUUAFFFFABRRRQAUUUUAFFFFABRRRQAUUUUAFFFFABRRRQAUUUUAFFFFABRRRQAUUUUAFFFFABRRRQAUUUUAFeXfHM4stJ/35P/Za9Rryz478WOkn/ppJ/wCy0GdT4WeOu4yeOtRiTjqPwpJHBFRFuBgVSOQc561CzAilZ+Oo96hd/WgdxCc1Ex5pS2TzyaikbNMY12PpUTP68UrHPBqFz2zQIVmzUbGkzUbvikMUnFRM1IzZpjN6UCFLHNNLU1mP1pCefWmMUtSE0hwf/rU0tigQpPtTSffFIxxTS3fNJjHbiT15ppbgEUZ4HakJzmgBD61E3WpSfxqJuTU3EMNJilPWkzzTDYXHNJS9KTn0oC4CjvS5OKT1oAaxo69KDTse1AhhGR70zHfFS4pr4oH6HLeMLBrrTLmRn8qKMqxYn36f59a+cvE+sxyFIoQ0dlHkRpnmQ55Y89P8+9fRfji9ls9MmdU8+JF3vDjIccjHt16180eKbRdRZ9RtCZEf70eOUPpj/Of50mTa7MNr17mbkZJ/LFSG58uNkQf7zE9TWaoO4Y496tYM69AGHYfhWsXo7Gc46q+xZRvsyB9uZSO54FQW8hLGR/mAPAB6mpI8tGsTjC4+90/CofJeBiccdMf1qm9uxFt+48u13csDgA9fb2rVSJmREhwhzhecc1ieUUkDpwOoNaQulltyGO1u/wBK2pPe+5hWW3Lse1fDtfslhcx5BXfnjp3/AMK6tp/wrzr4d6pu0Y4YYLZAzkjNdaL0nuK4Jbs747XNRps0wyVn/aiaPtB9ag1sXi+aaXFVRN2o83nNK4WLBemb6h8ztTd9FwsTs+elNZwaiL03f6UBa5Or4x6UobFQBvwp26gCXf1NITmmBqUN+VMkXPvSMx+tJkj1pCc0CBjz/WmHkUpOMimseKYWENNJpxOBUef5VQaATximHr06UpJx17dqafrge1ACZ6joKa3GaUkgH0pp7gnpQIYcUw9MVIx5qEnK4HI9KBbDG45/nTGOT/PNPJxn0PWo26/40xgO/Tmuw+DrA/F7wRx/zHbH/wBKErkOg696674Pf8le8D4IP/E8sc4P/TxHQJbn6m14n+1P/wAipo//AF+n/wBAavbK8S/ap/5FTR/+v0/+i2qTsl8LPmjPvRnP40lIWxQcmopozTScjmjNA7C5ozikNJ+NMB2RQDSZx7YpOvagfqO/GgmkzikNIQUh68Uh+mKD7/rQA0nJ9+nFJQR7038KkBTzQTk9aQdaQnikA4tk+tL29qaBS9qAHdj3780vTv0po5NG7nrTGPz3HNO71GM5Of5U7Oc5PWmA7vS5pu7mlBz+NAxc0oPNNzmlz3oAcD7UmRSUUwsOz+FGaSjPFKwC5pCaQmjNQxiEn6VGx4p5NMY8GkWiCXoR1rlvFWjQf2abiZ8eWGznqeM4H5V08pA5rkfG3majprQBiA784GQBg9fbmqgm3Ymb5Vc8f8Y+I21tX04AfZ41GXHfPNeeR6bLNffZYSHcN1Azx9K73WbCKznFtbKXmc5ZsZIzjk+9Ps7a28J2fnMN17ISTnqM+3rxXY6bjojmjVUtSv8Aao/h5Zr5GyW/lXDAYHHcev1Ncpr268JvpZAsz43K/G70ra+zrcTNe3pIGcoDx7g//WrIvz9tm3ONoHCj0pqiyXXRgbjxk4Ne/wD7BYx+1Z4K552X3Gf+nKevGBaoF6EYHWvcf2Fio/as8FKo6LfZP/blPUyp8quXCrzySP1sooornPRCiiigAooooAKKKKACiiigAooooAKKKKACiiigAooooAKKKKACiiigAooooAKKKKACiiigAooooAKKKKACiiigAooooAKKKKACiiigAooooAKKKKACvKvj0cWOkcE5kkH6LXqteT/H44stHHq8v8loM6nws8YkPvmo9wAPpSSNnPPvUW+mcmw9mwcjtULtzQzcE5qF36nriqHYGfB461ExpWYn0qJ2A7/maBiMxNQMc56GlP51E7YJxQAbu1RF85oZjn6UwsaQCk4phbmkZjmmk0CAnp+tNzSEmk3f/roGO3GkzgUhP4UzPFK4Dg2fzpM4ppPekzyaQh2Qfehjimk4pCetABn8aYxoLZNMY0DQE5pAaQ5opgOzmgU0HNOBx3oELSdaKUUhiYzS9aXoKAKBWG7aa4qXGelNZaYHL+NWgXQrlZ5Gt1ZceeoyUyR+Y9q+adbhn0HUZJ4grRsCJIM/Ky88j2wOuOK+nfF8Vm+i3ZviVtVT5wv3j7D3r5e8VXd1qfiKO109cxIuIUPGFz1b/P5dKOhSRk6rpqXEK31mcwN94dCD3BHr/P8Ankws28ANzxg5PNbuvXtvZWC2mnN+4LYuX6eY/cD/AGeP84wOb8wb0Gcn2pq9waVjUUCVOMhv4h70sSGQeW3Jx8rVA915ce1eHx8xqxpsqrzJ/EDtHvjrXR1OXpf7io8ZglKkEjuMdKhumMSbs5zyMjrUk0g+1SyM6lQevr7VUu2NzwDwB0/uipRW+56J8P7sw2MgBwMjH613VvqGRya8v8FXJFtJ+BNdnbXJByDWMt3c3htodSlxuqVZeev61jQXOcDNXoZsgc1kaGir8U7fVaN896erY+lICXdQWqMN+GPel3dqAH7/AMqN2ajJzSAc0ATKeOtPBqFTkU8GmBKDTgTmos04H8qYh340nTrSZz7UZoJsJmkJozxTScVQw/Cmk8/1oJx1zSH36UCuIf8AIphP0NKx5zTf1oEITTSOaUnFNbPpmgBrfTFRt3p7cVE/fk1RIw56Z+tMY8dTTm556etMPP8AhSGKWwef511/weOfi94F5z/xPLH/ANKErjscj6V1/wAHPl+L3gft/wAT2x6/9fCUwT1P1QrxH9qr/kU9H7/6af8A0W1e3V4h+1WceE9Gz/z+n/0W1Sdc/hZ8z5pDSZ6+lGcmnc5G7i9vWkJxye570hOMdBSEnjvnvUjHZ5z1FJ2PFJuwR70Zx060AO6445pAe4/Wkzzg80A8Z4FAxx5AppAP19KUntnikz154pABA5zn1pCc9AfYUHikJ4HNFxCHFNxxSk5pKQAaM4pM0A0WGL3560Z9qQmgHmgQ4NzR7dqTNAoGPB4x0pwI7Y96YKXJP0oAcDkcnpSg4yTimk56c0dDQMfk46Uuc00dO4oJ468UwH/zo4FNLAc0cAH0HNADs0e1Qm6iHHmqD2BNOEiEffB+hoGPNISc9OKTdn/61GD1qSgNRsaGPamyc5pDRXnOQR7Yrk/EsssdjIYkLSMpC47H1/SuqmPB9K5zWLwWkIZ0DIGPX8a1pfEjOr8LueXy2iaFE11OCbk/MuTzn1rl3RtSuXvLwYiB+RTx34/Cu712zXVJPPYhrcLkfh/KuB1eZ1kaJeIgflx3FenBXlfqeXOTitNjO1C4kvJslSI1Y7V4/M1TMbDB2mrLMfXHemNyvXrW3Kc3MzOu5mX5EU7/AMK92/YOtzF+1D4NZlwWF71/68p68HuCbdix5z0r3r9hCYy/tQ+DST2vQB/25T1zTV73O6m2nG3dH60UUUV557QUUUUAFFFFABRRRQAUUUUAFFFFABRRRQAUUUUAFFFFABRRRQAUUUUAFFFFABRRRQAUUUUAFFFFABRRRQAUUUUAFFFFABRRRQAUUUUAFFFFABRRRQAV5J+0EcWOjn0eX+S163XkP7QxxYaN/vy/ySgifws8TdueaYX/AAqNn5pu/imcnkOd8e/uaiZznmkd+f8AGo2bFMaEZqjZ/c5oZqiY570wEds1EWNK5FRMeeaAAmmMcUpNRscHvSAGNNLcUjHj/PNMJH4UMBc570meelNLUhNIB+abmkzikzxQIUmkJppNGaQhc0E8U2jNAwJz71GeKcTTCaY7ATRmmls9OaAeeeKQD6VelNyMZpwPFACjFLSDrSjigBRSik/maUGgBRSMOKUHFNY5FTcEjmvGsLzaVKiRmZiPlQf3sjGfxr5k8QxDSDPbpMRK/N3ecjI/uL+lfTPjdJJdJkEZ2kAnfz8uMHPHpjP4V806/MPERlgkj8m7hJwveT/a/wB729OlaJ6DOFvJvOYbV2Rpwif3RSxx+UAQP3pHXrgUye2eKRkcYYH/ACatW8YYLGRx2PrWkbXM53shLSIPlnG5QcY65NWl2mbLEA459hRBG1sxIzjOCO1JcLsw0Z46itFsjJ7v8CldlGZQBt7IPT3NWRbpHatgcdSfU1UmP2hsjrnkVMbjZblHIzjitKbXNqZVU3H3ToPC0f2eAqGUjAzg5xXVWz9K5Dws6/YyoOcYOfwrqIHrknrJnZBWijbgmxV+CXkVjwvkVehc8c1kzU2YpuKsLJWZE5q0kvNIZcBHTpSg+/41Ar08PmkBJmjcfwpmc+9KDQBIpx2qQGol4PvUgPNMTHjn60ufU00HANLnFMBT9aM9KQnPvRmmIP8APFNJ54/Wgnj/AOtSEg8UAJjjOKTOO/TvSZ60mcj607kjc5PpSHn0FB5+tIaQhOlIT69KCeKYT0pghD9KjI596e3WmHp16UxkXvmm5yD/AFpX4brmos+lCJHcev4V13wb4+L/AIG/7Dtj/wClCVyH8I9a6/4O4Hxg8Dev9u2PX/r4SmNbn6pV4h+1X/yKejf9fp/9FtXt9eH/ALVv/Ip6N/1+n/0W1SdU/hZ8yAg8d6UnA9KaG/8A1Um7pSORC59MD3pCeDSbsdCaM/TFIdxc0dSO9NJozyKAHA/hQGx0pucUtACk5H40buvAxTQQMZFLnr3pABbmkyeOcUhbHFITQApP503NBOfakJoKFNIaSjPH6UCsKDShsU3PvSgjPNA7Ds/SjPvTQaWgGOozSZ7c0tAh2T6cUqnmmZz/APWpc9KTYD844zTs8cD6VGDjvQDxx1ppjHk8cd+9ZOoeIYbKEiSN8spxt5rUBwe1crfyRmfyJchGiJ3jHy8H1B68DtRcaRg6x4ntJWU7JvkQs3yDgfnUifZ5Yo3W42qygkNEcj2rF1zT47a4kdpD5bxZU4wByD0/DH45robe0svsEDpJNI5jU4Vx6fSgosXEukR20kgldTGmWOxsZHfFUI7wm3jlgncxuuVZWK/pWVJrsaaHe5USP5RJCY3cgjn/AD3rl7TxibaQWkcEkkBjL5PWI9cHnAH9c0WGtT3i1cmzgycny1yT9Ke7Z96ytC1ePUrRQiFCiLnd3yK0Hb/IqQIpW69q5nxBbGaF1ztUZJ/KujlNZur2y3tk5RikqgnI6ZA71dPSSIqK8GeP6jrBtJ/s3P2XgMtZepQJNDvQbomOQc8j/wCvWt4osFuS0qDbKv3kPcetctZ6q1o7QypuiJIwe1eva6utzx22nZ7GZPA8L7W564NRvwBxXRXlqk0YK/MjcgqORWDdxmF9hH0PrVxlczlGxnvF9pkw3AFe7fsK2xt/2pfBv90re/h/oU9eGuuCGFe8fsLzeZ+1D4OBGCFvev8A15z1nUXus3ov3427n6wUUUV5Z74UUUUAFFFFABRRRQAUUUUAFFFFABRRRQAUUUUAFFFFABRRRQAUUUUAFFFFABRRRQAUUUUAFFFFABRRRQAUUUUAFFFFABRRRQAUUUUAFFFFABRRRQAV49+0UcWGi8/xy/ySvYa8b/aOOLDRP9+X+SUGc/hZ4ez+h4qPd2ppbPQ9KZuoOYUnOfeo2PXNDHg/zqJjj1qgFZuaiZvegsM81Gxz70ABY5z0+lRsaVjUbkCgAYjpmoy34ihj7VGzDjBpiFJBpmf8igtTS2KTACaTNIWpM0h2HZJHvSZ4puaM0BpuOOBSU3PNGc0gFJxQTSE0hNAAaYx44pSetRseaTAUn0peDTM9aN2T6UhklOByPeoweOPypyn2pgSA0pNMBpc5oAcDS5puaM0AOJprtwaCajduOKksxPFV41tpVyVUOCjZRh97jp/SvmLxNaRas4urKRhIp+WTJDA/3W9+Rg/5P094gtGvbGVFdYyFLbm6DHNfMnjOaOXbaaZGy25fEijrLL6jHUf4H3zcdtBMxkgHiK3ZCpj1CLJZAPvDpkfpkVibPJfy2P3SQcHoa69z/YlhLbKS2reV+9uFOVjQj7mf73v9fx45gWOdrAe9WkxXVrXLUb/Jt7kcNjtVaV/LYjqvp6VMjmJOQWdugH8NUkj+cs5JAJ+UDljW+tkc2moGIrIHB5PP1FQ6iP3BYHAAwfY1Z8ppJcn5BjOMdKqaujSQjA2qOBkYz70mt7DVtLm34KlMlu+Tngfyrs7duBXD+DAI4nwwboM/hXaW54HOfaueW50rY1bduPer0DVmwNir0DdPWoKNOJ+KsIxqnE3vU6n1pAW1bj1qQNzVdWwMVIG4oAsBh2pd3eoQf1p4ekBOoz+FSCoFPFSqw7nP1piZKD0pT/k1GrfnTs80xDic0bsUwsOKNxoAUn8Pem96aWwf6UhOadxC56Gmk+lITjNG7PAoEDcZ7/Wmk0hbFNLZFAwPBppNBOaaSKYgY84HWoycd6Vmxn1FRk89KLgNbkj6Uw854pT0FMJ79aEIdwVB5H1rrfg3k/GDwN2/4ntj/wClCVyHGK6/4OH/AIvB4Gx/0HbAf+TCVQJao/VSvDv2r/8AkU9F/wCv4/8Aotq9xrw79q//AJFPRv8Ar+P/AKLaoZ1T+FnzD/nilzwabnA69KCaRyB3zRn1pM46UmaYDs+lH4U0N1pjToGwW5+hqW7FJXJSaTNR+cp70hnUnvSug5WTA/rSE+lQC4HQK1VzqigkeWSc44NK6KUG9i8DSE4PWqDai5dlRFbHqalhkeUbpCM+i9BTuPka3LJJNM81CQA6k+maqSzu7GINxyCAB0/GqUNtzI5+QxgYX+LcelLmKUDaz6dTUZnjDbS6hh2ziqEkYa3ZpS7SxKzBUY56HsOvT39qoz6D5rkPLK8WwsVV137v7oyOnXkn098u5NtToM4pRk1xjNNomobog/2dAd5IJUjJB5ycdDge1a0niWIt5AV0uGXATgOG91b6gj1/mrjN4GgHiqkd8nkKz5LA7G8pSw3DqBjnGQaliuFmGVDKM4+dSp/Iii/QTJ8/pS5rNudctbfA3GUklfkx19OatpdRMoO9QCM4JxQFiel3cVEkyPyrqw9jQ08akZkRT7tTFYmz/wDqpSf8KjRg4ypyCMgjuKcW65NILDs/U1x+tMcOvUNFjaBy3XI/WurMiqxUkA9cE1yWuTJBJBI43BQxIHpjj9aYI868a30unxvbSQv9mEaqspIJTdnAbpx7+4FXdEa11+0Zop5Va2aNXUAruBB4J99p6Vm/EPVrCEXKzxTBZolRxtxxyMdfc1xGjeLNMJuVczKpkQMdp7K3/wBan0LO9g8JNPomrO1kZY3hQRhpeGDZA6n6V5tJZatpOralb73t0RQ6wGQMoUqMnJyOpNd34Tu0t4bOKZpniZF3LkArxznPTHH5VneOCr6beXMRJjmkVVUqpyqg7cnGSw7+n4ZplI7rwBrWpSZiFw5Usi4Kg59e1ens3WvNvhjAPMlkLFuFPXpx/OvRSc1LAZK351zeuXUtvbyPFnchJP610MpHOa53VJljSQPjy3BQk9OlXS+JGdX4dDzvUL4X7b0IWZf4a5nVtN+0B5IwBMPvIP51uy6XNHe+b8y24Od59KwPEGsAXW21OCnylvWvTv71onlPSPvFLTdRa0kMMozETgg9quX9kk0eV+dCOHFUooRqmBEP3w6jPatdmTQtNZJ8iZs4jPUU5uz03JirrXY5aaJoXKsPofavcf2GUx+1J4OIPa9z/wCAU9eFXFw0sm5j3+72Fe6fsLNu/aj8G/S9/wDSKeqn8DuKlpUj6n6x0UUV5R9CFFFFABRRRQAUUUUAFFFFABRRRQAUUUUAFFFFABRRRQAUUUUAFFFFABRRRQAUUUUAFFFFABRRRQAUUUUAFFFFABRRRQAUUUUAFFFFABRRRQAUUUUAFeM/tI/8eOh/7838kr2avFv2lW22Ohf7838koM6nws8JLc9cYpm7g9selIz++DTN+D1pnKOLHHT8KjY+woLYPpUTN39KA2Ank9KYW/Kml/U00sPWqAGOajZ8UjPz6io2bFILis2aaWxSFs0wtSAUnNNY4pCc0wmmPUeT700mmk803d9RSGPzRmmbv8+lG6kJji3FISaYWpN2frSuBJuNIW/Cm7jRuyaVwFLde1Rls0pOaaTilcALc0A4puaA1AyTdkU4HgH+VRAinZxQBKG5z0pQaiDelPFO4yTNG7iqt1exWUfmSsQg4yBmuXk8c77xobd4Wwu7EkT56+v40D3OxJpjnArl5fFzRNEu+CZ3BOwRunQDIBPpmt6C5+0W0UpG0ugYj0JGcVLKRn66d1pIvJUqchRkkYrwnWFewuy+xVvpAdgx8tumOv1/z7V7lrO420m04IB5zjFeKeI7hNRkltuVuU5Zh1kOP88V2YdXTOPEOzTRxN9MZQ0UY/dBt25urnnJNZNwTIfLVcKPvMK1Jo3icqwwR681mSRM0xdT8qnla7pRVtDghJ31Ipm8lRFEmSe9EcC2wLBdzk/rUso+0kBSFfB+alDjaEZQD/Klpcq7t+YkcOMzSDDYzjPSue1udrknPyqOAM1vhvs2Vb5x61hatalw8ijjrgVjUT5dDei053kafhGMxWpJyA2CAeDXX256Vx3g8/6M+5svnGD2HYV11ueleez0rGrAelX4jms2E9DV6A49qBGjEflqypqpCeOtWFNJgiwp4qVSelQKc08GkMn3ccU4HFQhvf8ACnq2aYidWqRW4qBT+NPUj8aBk4enBsDioA1O3UiSTd0z0pCcUzNLkmmFxcjqaQnrSfzpCaBCkmkJyab/AIUcUABbAprHtSk4FNJ60wA80xj60pOPrTc5zz0oAa3c+ntUX0qRm47VGSDQSMJ5/wAabk+vvSvTM8Hj8KaAdnGPp1Ndf8Gx/wAXh8DE/wDQdsf/AEoSuOY/KO/tXYfBk5+L/gXOf+Q7Y/8ApQlUmC1Z+q1eG/tYf8ilo3/X8f8A0W1e5V4Z+1lx4S0X/r+P/otqhnVL4WfMNJnpSZqlc33ky+XwpIyCaT0OVJtkt/M0Fu0iHBHrWf8Ab3mjyWKt068VHfyzSW75l+XjjaPWsvZICR5je+DiuedRLQ6qdO5sifjryaej4ySTWdb28hjVixKs2Mlj1pLIhrgIxLZzjvzWfMaOJptK8bqWGB14q0GDLkHB96yJbfch3SFlAzVZ5PKCbJ8ZwoDEgZ98fWqUkiOS+lzaglLDqO+CR0pHjiXDDCjduJbnj2rJldI7Z5JZG4APcZyO2Bk1KY5AIR5itE4LNzjI/n/+uqUuw+Sz3J5T5QZ5AFxhSUAw39e9WYZUjj5+U4ztPGKxNQnglklEaEyRqshTp3/+v+vvVeKWIHM7LEpGdrPyPw70uY19m5K50bSW7MJGkGCOB049frVR9Xslbznuo/s7ZYEZweig9OmQf0qraXEepW6QW8xV1UOZoxjBHI4PPXHB6gEVxOr+JtPsp1SO3aaOEBw/nOqs3JK/Nkt8xJ5wPbua5kTGjJuyO/tbuNbueXMbLP5YjKcMw56g+g578A49Ke+pYjkkEZjnY+XH5rja2Bw2M8DJPvgdOgr501z4iiKd7jfO8trlFQsQoXG0KvOVGABnr35NYMnx8vri3kt9Si+1W5O/FsPKIbnIOScgdufz4w73InTcXqfUoFpcJ5f2hJlMo3s78tt/DH3hyOByT3q/mC4dT+7kYDg8EjkH+YB/AV8u6P8AHS6vrNNLs4JoIFkZftkkiNKVJyAeOM5GSD8o6E9K31+LsWj2VpHcvYiVJGJlmheWSQ/Nw23GRyOQewzRexnynu2ozXPmQQxoJSw3M8TbTuH48D8fb62bOJ2tzHLKXZXIZdwbj0PXgjB9cEV4Qnx28PmMzW2nyzXxXCgxeSgJHJJ8x8gehXng8YrP0v4mQeQEuEe2vH+Q3iyuyKM8EDlhjPQemfaodRJmypXR77qllbR75T5qMUIxFHuAwMZ6Hb2546VNLpkaqjRySIvAK8uCeg9SOSOfQfjXj+m/FjSlQ2Vxqt64AKmZoT5Ug6AZzvHHcgU64+Mto0qpbrczae/mJwojCoDhSAWO4EDkELj36Ue0QeylseiW+qGa5WNYxGsrhVTqBkcc++DWzdaVm1+Rm84YO0NgE9+3+eK8m0f4n2LeJpLHT7+VbJYztd0LK74BOGbDHvyQOmPSuqu/iAuiael9cajbzRSHCrtYEtyCOASD8pPYHsTTUkwlTaOis7K+VWKsAAwAUyHPIHXt39a3fNfYwALsGxk9+n+P6V5lb/FzS3s5WTUoI7ufLhX/AHZRiABncuG24A467fekk+LllaaGLtkiaHJUOk7s0jHI+UhOvuT2Perut0ZOMjt77SZ7wiRpd7leW3FAOvGB9f51xsouTqFtZ+cZElCoBI2QuWwOcZrQ0z4o6Z4itY/sUkqT4G+OSEjr3yNwAz71lyWlxc3Vw4cYjct5ryY2qSSOewHNNWfUTTWjOR+MWhnT9GuLh5AZY2RAP4cbeMdM/wD16+eL++kIjsUmI82bMqq2OMY59sMfbrXv3xPaCfSLlVlW4ZZFUzE46Y4B555/L6V88a3BboQyTKtwxO9SWzj+X5U7rqyoq53mla5faMrtG2I2/hPIzjrVa/8AGGpNNBDJI1zDcTEGJjkLu6kegGc+nX615yt3LasI455E9lYhScV2ngS1huLiS6vLpbmZI38uBmwEPA3E9+NwxjuOaOZdynFrU+rfhaIxpUhJAlYhgO+PX867YmvD/AmsXltptqyhZ5XuQiAvnGCfUjI4HevU7nWpoYpSkSMUx8xbjn2/+vSbIa1NWZv8msm/sRdwnfnAJY/rVFfFfmYUwAvjkh8DNY2s+J5btZYEQxnbhSGzyfbFOLSkiZRbizm/E2vKsBsIgQGH3vQZ/nXnlzbstwUX5txyOeam8R6gNPmlYuPNJwBuP0pmnmPSrM6nfsr7xlE6556/T2r0o1FHY86VFy+I3LJU8O2oupMCZgNoPOPwrI1S+fWUa4lOJQPwxXPXeqz63dtNKdsKt8qE5x/9eqV5qLS5RCQg4+tJTV79QdLSxpGTLckZr3z9hRlP7Ung0Z5xe9P+vKevmZZX7Gvof9gZXb9qrwW5PG2+/wDSKerlUvFkQpOM02+p+vFFFFcB7QUUUUAFFFFABRRRQAUUUUAFFFFABRRRQAUUUUAFFFFABRRRQAUUUUAFFFFABRRRQAUUUUAFFFFABRRRQAUUUUAFFFFABRRRQAUUUUAFFFFABRRRQAV4n+0zxY6D/wBdJv5JXtleI/tOnGn6D/10m/klBE/hZ4GW+Xr3prN701mx3pmc0I5R27sKaTzzzTXfHHpTC5HWqDqKzY71GzZprP70xm4oEKWP4UxjSE+tNZvamAbuTTSaaWphbke1IBxamlufWmkj2ppc8UDHEnFN3dKaWpC1QwH7yKNxqPPNGcCkA8mkz61Tur9baRUIyWGRzgVCdSyByFz39KlySKUWzS3YoDe9UIr3e+0uFPXnHNMedpUyswRgTkZAJpc1x8mpoFqjkmRACzKuf7xxWbHcbZd0k+VJOAX47ds+tNmuIVeOZ5oRCzDaWcZPB4H6n8KOYv2dtzTeVYxudlUDuTilDhgCCCDyCKxfMsL/APdyyROsH/LPcrDsQT7kDpno3PWoIEtraeWaLUfItpRlSroFOem36AHHHII64ouKx0e6nZrnxrEUUgSKYPBFtj/1qbSSCQCeTngDkjnGeuTYSe9F6yCaCVCu5cgrgfgOfz/mKLhys2QfenA5rFstSur4PsjiAQkeZklG+h71PaahOyZuLfylIyGB69+nUcetFxcoeIHAswD0JHQ47ivLzrqw+LXthFbxXBt8MsyfKWIVgc9shTx/9bPb+KtUuLeJ8wobbO3zN2Dzj8+tfP8A8X/EF/4d1tZDchv3bZVAhOQuACcdzt9evc0ykmdT4x1PWdNsdP1BWjktBMycSCMqpK/MGycDIIIx0zkjmvUvh9r0ut+HYHmQq6Io3Ft2eo9B6frXzZb/ABLhtvDMkFxax3GFLPJEVCthSNwGeDk5x6gc56fQ3wwRIfB9mA43MuSoPTsPzxTZVjo9SnMMTFVDkgjYe/tXh3iVE1KfzrZmSRMBWzg59D7+9e06pukhdUOGAJBz04rw7xjdw2jSQWbAs5HnsDwSegX8xXVh3vY4cSr2MksupxMjjy7tOoxjPuP8Kwp43ikIPDKeRW6lxFptr+8df7SK/ICfuD/a965iS6WRmYuu4nJOep5rui9+xwSWi7jZFIO9ePUZphc3Az0cd/WoZ5977UcL6nPGKSa4SOMLHgkngg9Km+5VnZD0feWR+OeCe1V7pNqsCPlIP40+CRY4ySwdzwSD1pgkXBZ2BY9BnpR0Htck8NqElkwe2P1rrLcnNcnoMwklcgYxkdPeunt24rzp/Ez04NuKua8BAAq9ATWbC3Aq9C1QWaUZ6VYU/wCNVImAA5zU6vQBZU5qRTUCtxipA3qaBk2c0obiod1PBpAWFOO9PVuPUVXVsVIHz3oETg8Uu7FQhsH1pS/IFAE271ozUO6l3UC0Jd1JuqPcPWk3etAyTNITio9+aUN/nFMQ4nikzimk8+tIWz2oADgZ5NN3Z+tIWP1pu7pii4gJ5PaoyacWxyajZvegQjHIINMJ496CfWkZ+pGKoXqKTgZFdj8Gjn4weBf+w7Yf+lCVxZfA5GK7D4MH/i8PgTB669Y5/wDAhKBrc/VuvC/2sv8AkUtF/wCv4/8Aotq90rwr9rT/AJFHRf8Ar+P/AKLakdUvhZ8v1jakha53buABWvkd6zdRcLKfcVnN2RhBamdcuUtz/nvWLPqKb8EO5Bz8o6Vr3RMls5VTkEA4+tcPqE7RX0oG4fNg159Vtano0Y3ujrF8W2KWyq08MBhYBoXYCTOOoAPQ5/nXPzeLl80XKt65BB5AJGQM5J754/SuJXUv38glkZI2IyvbFbBW3RYo/LSTfhVUqPvZ5/DGPxrlnXk9Dsp4aMde5oz+NS8TlTNIjjP3htP61T/4TGa52YDKRwxYYyDWUZZp/tDRWvmylGUgHAAHJJ9vxGfXNc7e6xDYpsR1E0mTIEbKx/7IwPbsaIzb0LlSS2O90/xblZhNamZUUE/vCMNng+pHHSm3PjB4RiCJo1dSxLnk+9ebw64slmYY28ydZAFWNiu1cc8/X36mrd5qrXSAy2z22AAATjcB7fnRJyi1YunCD3OjtPFs97GUeVAQcF2JLsCegrUn15LeSKI9hnjjtXmENy8Wpq0atsXB2jufU/41qXWqNPceZ7EAE5I/zir3PR9yVoSR0Gp+N5mkYxRbpORxkg9un6/jVOS+kvYix2kqN21GyBxkY/MVzc86b2w22XOclhj8Pf8AGtLQVa8vZCCzZjZQTyelarU2nhqdOHPSdzybx5rMiG5dSqgyg/fwTzmuAbUpZZXIYMwU4K8kj/DvXXfEVIraG6RmDlZiMkHHWvK5Zw1q4adQrFh5I3blxg7jxjBye56HjoT1RWh83WlzTd0bLeIb21uFzJLFH1eBJWTdkDrg+nTP6ipR4pmOV2bd3OQ2T+dc5KVTIGQpPHpUsLZboce1DOe1zvdN18RywKriQLhSSSMY6nFbn/CUujkRhMdPmz/jXnunf63ByPm4rWnm2GTB3EDJyPauWWrOmCSR2UPjJxlDCpIpJvGM0xJ8t3cDby5Ix2rj0uZnjQKg+brmpvsBeLLOSSM46/rStY2XLudNa+KrgX6zQIIXQfLmQ8N6g8c10Enji8urdRPIJXXu0pbr9a84VSMjJBHcDirP2soD3YAcjtSdx2T1sb2oeLoYw4CPuY568A59ag0/xVEI9rKyuw+7jt6jnpXIXVw0iFGjByDgjAOf8+tQRuzbjjGONoJ21tFuxhK21j1fTPF9xBbsbeV4lK7WRHKiQYxg889/1rqPD3xkn0xxDLc/aS5wJpp9xjzjONxI7fqa8Et7xoWLLjcRjjrUkrbhJvTAzgAHp7007O5k4p7nunjD4qWlxp08ER855ZxI8rOr4PYDGMgLxjjnPTNeZaxLu1EKJxOsqh9w5Ge4P4g8fSuXMKR7G+VCehxkn8a17WYi0IwXKL2HNTJuRdP929EWLMmZlJAXsQOlbUKom2QRxljxkrz+dcyl4trIFK9exOMVet9RluUKrGdnQY6mok2UlqdnoGtrE8FoqSKC+/5G5Pc49CBn1r06Lxpbz2d3m3lQIPusTyMHpzjOa8Qj1FrORpBD8+MFmP8ALvV2PxVMYAixxYyO5qlNpWZMoczuj0ew8Zul0TNbLLHjCQo5GDnoSc5/IVLrfiGdnWaG7lsEWMtsBBLNxnJ479P8480t/FE8DyMIEYMuz5WP5/pVmfxZJqDyRzW/2dDyGD5y3HHTp1NNybCMSPXNbvrmRml1AsepMkSnPt2rOsZdSBfZeweSeu6DkH2+biqmqStLLhuYx1K84HtTNU1eO8hS3s0+zIqAHJ+ZvU8etaqo7aEukt2Xb3xbeORFG9rJGrfNsUpu/HJp1t4jjmfZIhjbOR8wIx9a5m3mELsMqSO3WpYbhjKpCgDPNaxqNEOjTl8R3NnKk2Gz8v0r6N/YKvVk/ay8ExIMALfZ/wDAGevl+wvf3QU/KfrxX0l/wT9IH7WvggZ+Yi/4/wC3G4r0FL3NDyXFKqrn7FUUUVgd4UUUUAFFFFABRRRQAUUUUAFFFFABRRRQAUUUUAFFFFABRRRQAUUUUAFFFFABRRRQAUUUUAFFFFABRRRQAUUUUAFFFFABRRRQAUUUUAFFFFABRRRQAV4d+1A23T9A9fMm/kle414X+1I2LDw//wBdJ/5JQRP4T5+diDSeZ15FRs579KbvxzSOUkL5BOaYzAUxm5/rTS1UA4tUZb8aTdTGf86BMUt1NMY89aaWz9aYz4FA9hc89qazc0zd70hakA4vxjNNLU0mkzQA4nikz2ppYikLUh2HZ5qC+keO2Zoz8wx/OpM1XvmxauRweKl6K40tUc/q10ilWl5JHU81n3fiPTbOOBllVtoBZVIyOeeOo6gcj9Oai8U4azV2cJtIO7p2PWvM31OWy1GVFIYSKSXcA7Oe3c9a8qrUcW0j2KNFTjds9Cu/Hlk7EJGdxz/CSe3txx6UsXj+1jjSdoQ7LuARB8y9ByR7nv6e9eZahqBbS2mhZ1uY3yO4bI6gHPY9aw4L1obB5Hn8t0GBFGPlZdxyG3d8nOB6/nPtJ2udEcPC9kesR/EiLUmMoijiSIY2qeM5AH8v/rcVlap8Qvtki21tChaMGMySRqw24AK4ORgnnjnjqOleY2l4VMrBmCsQzfNjgf8A16saQXutTt8qzRiQEkL357/5/StFOXc9KOFpT6Wa2OD8c/EnUrPX2ghnlLo7lRkEElucg5yflHJzWTpXx+1vR3ZBdTiYDAleVwwVjuKhVxtX/ZHGTkAd+U+L5LeK7komyMSSFeO281x32SWMjPCDoB2/zgV1J6HhVYWm1Y93svjPq15GJbnUZWdCc7dvzMR8xPZjx1Oa27f466rDZwwR6lJGqYC4t4xjGeCQuWHTv6V4ZpwEVqzE7ctzV62eEoC7+YAM4znn6VzNu7dzWMVZJo938OftBXcU1093CLwsxeNz+5CHA7RlePb69eyf8NManZsIPtEDgnduZXJB3bsnnBOfT8z38Pg+YFosj0z6VkXEn77LMXx39RTjN33KnSSV7H07pf7QqXFnbQ62VuUB/wBflV29TwgA/vY69AOlcZ8VvGmleJbhjpzQSeXEvCybgAzdAe5HBP8AWvGwrJAWZy0ecZ7dDzU9gZIp1cKdvbZzitPaO25zqmr3sdHoMgt7+K7CqxhdZEDg9Qc9m/r+de7/AA2+Kgs7M20sgTGECKX253O3rxwwr52tEnVtzuY0AyQDz+NWE1eW3kKQyOij7x3Fe3t9KhVJX3LdJS0sfTLfFyW9trjbK2YyNgYlQ/PryB6815JqnjyZda82KyjkAyY4fOJwf73O3OB2P+NcYus3m1k+1TKp+cr5hwSf/wBQFVLm+ljeV0uVQuNrLt6jPPPUfga0jWlF6GboxktTppfGq3E8iyiZJHOXnZlYMfQbScCr1vdIY/MZtyfwjJ5rzKO4lhUZ5jzk7CRXU6dqGYFBPB6Z7V3UarlucWIoqMVynRR3BuZ2LHCDrSzXBmkVEG1exrMt5GjYnOU7irDAs4dSCfaui7scnLqW5rlYU8uLnPBb1q7Zwose5vmc1jufN5ACkdq1LCZlGx/wJrSDTlqY1E1CyNLSYHiaR3G0MeBW9bt0rCtCVOd+Qe2ela1u/ArGoveZ0UvgRswN09avQt+VZVu5IFX4HrKxsasTcCrCNiqMb/nVlCxA4PPIOOtFhFpWqRW5qHyJlAyjc+1P8mVBuZGC927fpQBKG5p6vgn1pkVtJMiMqkq52g84z9anh064mO1EZmxnG0j+Yo0GIGp6vmpo9Ev2Td9mkIzjGOTVuHwzqNyoKWkq56EkMPfOOlSFihuo381rW/hLUnjLNbdchSOeelPg8IapMwBsiEP8RbDDt3x/KkBjb+aXdn+hrej8Jz3UssEYEVxEcMrsM4456nIwRz79jmrEXgG7PL3SQjJ/2iPxouI5neTilAZhnaxX1xxXSJ4RuVfZJJEsBBQlZPmPvjb9O9Kng5TlftBiUNkMGBJP5CgZzWGAyVP16UigyMFHJPSujbwzNCmZZVct1ZD93HYcVbh8KQSkuXMbAbQEPT3oFY5R4JYuWUgVFu4rUvbWW0EsUmSqcBz369axQ2RmgViVjzTGYU0txSbvSmhCk++DTGPODSFvfmmM2MgYoAC2D0phbJ60hfjtimFuo6c1Qrj2Py4PpXYfBcj/AIXF4F4/5j9h/wClCVxu8Eetdf8ABds/GTwH/wBh6w/9KEoEtz9Yq8K/a0/5FHRf+v4/+i2r3WvCv2tTjwjon/X8f/RbUHXLZny5WVqRH2jHcCtSsfUiBct6bRWM9UYw+IpyD91ISTjAzjpnIx/WuP1mVBcyKWQHfxuYDn05712Ej7rG4wf7h/WvL/E2oImtQhyf9ZnOeBz1NefiNIXPTwvvVHE5/WFEmn+WQq+aMEg9OfX1HHPFQ2BENoVOXKjKsOn1/wA+tM1WdlZWjIZUGQTzn6VWe+Vk2qGVmX5ecA+tcCV9j1JXTsbulXpnmmee6OGw2JBksSTznH+c1znilWmu4njgQxMM7QnA6ZAz14wP882BNPbWreYgQN0PXjnn8sdKQ3kFxFklHOGA+Q4HHato2WrM3d6IoaOsdtEZSpklQj9w7ZGM9OCOPX8frUniG7hS6Q2pXysYUAcn1+lY8Vy9uZWSYxI54b/PPf8AWopmEo8xdzhWwBnoK0aale5rScLNPctxSPGfMJ5I2nnAq2JBb2+4uCZADhhUNrZvcRhBgqzdenH+RWpcaKWRIyPu4GAetCab1Oqc0uWMdDFeWS4XywhbH8QHX2ro9AieBJh5eWRGIOO2M80o0tNiHO0xjIUcV1fh+ytX0m4uSMu6OrHv0xVcy2OlVI048yV11Plr4kIXnu2JLeZMS3HSvM2ibzwBjcTgE8AivXfir5UU08acfvTgH615XIQZVOM7SDya7obXPmq9RVJtpWJrrTInZPLcsqjk7SMmovJMeMc+narj3sakAdMY6VUE6ySEds8A1nd7MnlXQ19NULJjIOMH6e1W7iZVaRm4LAcVVsCnm7iCFJxnFF+cTupI2gcfWsN5GlrIvQ3SbF2kDsRmrE175SErg8elYEKSqQUxnHerEsUrnHmUSRvRipPU1LeRpJFLfd64qa4TCu23PqKhs1lZEZgB7irUjBw4OMYrM0k1fTYw7hgpzkAdhVaNzC47iprhche475qERSOrEKOB0zzVxM6sIpXL9rApk/d52n9KjlfY8qliRuwCeMVoWSlEUKuQwzk1QntnlLd8v1ppq+pzPTYRLNHVSjsW9K0LU3IVognyMuCMUaVGXijJGChKk1tIPlcqhwD96s3Us7ItR0MlNPYmDd/CMMcVoogtoiADkHt61MiYTOOKhukeSA7eDuqVJyY5KyM6e9eaUxshVM9fepYSI42XfliefQVFfgxsCw4Izn3pumjzlGDk5zmtmi48qjdstnMKx9MF/mJNWGlwAgwTuGRjoO386o6lcCIiM9/mY1ni/ZrhTllY4HSlZkRhzK9zZmkgbO8Lu9Pas2+t7NwzmFctgZyc1Yn2v9yPcDjLHtVV4fMkCn+HgjtTRL0ZVW0j2kJGQQc8HHFPSWW2uAud3QjdVnyWQFt3GMA1XdPmDkk47mri9QautjftZ28sN1P16V9N/wDBPG48z9rrwQCcnbf/APpDcV8oWt0YeCeO9fUP/BOqTd+2D4F9CNQP/khcV6ilpZHkuPvan7TUUUUjYKKKKACiiigAooooAKKKKACiiigAooooAKKKKACiiigAooooAKKKKACiiigAooooAKKKKACiiigAooooAKKKKACiiigAooooAKKKKACiiigAooooAK8I/aobbp/h718yf+SV7vXgv7Vpxp/h0/8ATSf+SUET+FnzyWIH9aTdkdajMlIH/wAaDlHlsikLVGXGfemFvyoGPLUzfTC+aaz5pgOL8/rUbHNIWppbigAzSZyaQtTNwFAWJCe3rTd1NLYprN70gH5xRnFM3cD+dNEhpXGSZ696q6m+2zcngcfzqbcOnfpmqWrP/oEnfGP5ioY0cJ43llfSAI8b3bbkkjHHJryzUpme7kcTIPuhlPA9On/169G8dyEaREy/I4JbJPBGGH9P0rxpY57zWPs7BxJGxztGcsD7deM/yrzK8feuexhp+44mte3v2C4RYiWVQCVJz/X/AD/PmmLeYy4CgZZh65711l9pN1GF8ojfsKmVWHIP3jgj09f1zUEXhlLcNLKwcMd5O3C4I7c9sVjF2R2ba3IbG0ghjHytOrJjdnA6niui8Hz28mpwSRxAIgJO4c429/xrnppItN3C1hkkCtlVPA3bjhc+gz1rsvBM0d3BdTJAP3Mch2g5zwc/kT0o1No1tz5T+Lk/n+Kr2QAKpZsADtuNcQ19LO6qVwCeK9R+INrFJ4huxKmDvPygdOa5caPbmQSeWeCOeQK6/aJpXR5zhyyepVdWhsAOCxbOPTFRRrEEOSffnitHUI4La22JtaQnJxyazrezdiAcrHnPJrNPR3NYr3k0bVoAkYAJ49azHs/MuducKDyfatKCWHkBs44qq9rJLc/K3vntWexv3TJri2SG0VJHAQd+33TVzS9scaqpLjOPl9OcVQ1CCXyI1+916D2pLS5ntI1UfKFwAAo55xSabic1lGR0TRAx7TkZBzjvWVJZsbxGGPK6Ybr6VNa3zSAmSRV4xj3pDeiSYIvIU9j+VVTTQpSs7ooau7RzuNxCgYAAznH/ANenswuUyTkkYIFZmrHzbuZt+ME4U8d/8a0LdS6IdoC4AAPHatLWSZTfu2Yr24ZDtAPqAadZ3DR4ByAT34rQuIdlq7YKMvbNYVtLlnZjznJNdFB7nJX+FHY6fcHAUnI7H/Gr0ZMLeoPUelYGmXAjXc/TPygdTWnb3RkmLNgADnn9K9FLTU8ttXZoMpLK68cfnV6xikvHjjjXLswUDPr/AErJlufNdQgwueOf1rc8K3BfXbCOMjPmgEj+I1RFr2R7N4b+Bnm2Md1f6oI3k6RwJnA+pNdbZfA2w2AC/kZSOWMeW/wFegaH4fFvb2xacuBGNy4GM+1cX8adZvPDdpby6dcJaBm2sW5/u5OD0wM/n04rmc3JnQoWVizafBXRrZTvurqaQg/fK7c9uAM/rWmnwu8PQJgJIx7ZfmvDIfHd7rN+J38RXlnDEciCCQBXGMfNkZPOCMepzxXqvwh1ae806V7m/lv3DOqyyyFyQG460a9x2OoPgHQ3jCuGAHXDDn8xStp/hPRYhFcS20O75czTBCT+Y5+ntW1JfBYzuPAHQDJ/KvlD4p63oq+M7uS6ljEx/fCMzfdBy3TI9z+GaS1BI+hU1nwmWljtLqzuAjbnSOfftOfYnHNb1h/Z1/b7reBJI3/iXpx7mvj24+IXhOG3NjBOAfJBLxGTaXxnsCMkgfqa+sfB99DPo6yWxLwsQysRjIKqf61TVkJm+I4bWMssCABSCABkivLtU/aS8OWN3JCNP1Oa5ikMSn7GQpbjOHJwB2JJA49q9B1u8EelXjdcQucf8BNfE/jb4iNpfjLWbe209bhLaVncyOFUhiDu4BPO4fnSSGke8T/tWI3mND4M1mSBAv711CZJz/CeccdenI9RXrfh/wART67ZC5WHyAWxsYHI4B7getfC9x8fLvULZ7VtLiQSDDESAnghu6cdMcY/HmvsX4Y6s+o+Ere4Iw0mCRu3c7Vzz3qrCZ2N5ftaWsszSAKiljxjPt1r5q+Inxn+IFj4gvrXR4khtLbbtEgRnmLcnadpAAGOuPxr6B1qctpN58gciJyFPcgEivjr4qX2uXnjDy7e7fSopLdHEYhWRnOW9Rnov6AY9EkCOou/iB8UL2wllm+2WMiROzkNb7UYMMBSrgtlSx6DkAc9a9N+Bmv61r+ns+r31xeSKZUImbJGGXHfB6nmvjnUPiZ4pLvaTaxK6DMbARoAeoOcD619Efsna1cXNpexT3Dz85G9icZZs4/Km0D2PpGSAEYzx7moQiyNyAR2z0pGkOMZ5qOJgZMMw46j0qSDcFvG9k+UDHryKj0xY5Yydo+lSq4+xuAAPlNYg1FrCzmkUBmU8A0IYeK7m208hmAQyqF4XqeeuP5155eOpAdccnGRTtV8U3WvazDBNGqKgYZHccnH6elQ3jA24wQRnt3pXHYi38Y703d17CofMyRg8UeYCO9MlkjN3qJmz7imtJ/+vNMZs96dxClwTjtTSaax/OmFuaqxJJvyPauz+Cx/4vJ4D7f8T+w/9KI64gEce1dn8FW/4vJ4C/7D9h1/6+UpjT1P1prwn9rc/wDFIaL/ANfx/wDRbV7tXx7/AMFK9avND+GvhKazup7V31cozW8pjJHkucEjtxQo8zsjoqPli2zyYmsPVpNlw/OTtHNfNsPjjXph/wAhvUOP+nqT/GrCeLtbbltZ1A/W6f8AxqJQ6Mxi+p7wTmCbJP3B/wChCvOdZs457+eeRd+GKryeOTXLJ4r1k8HV77/wJf8AxqVPEeqsedTvGz6zv/jWNSjzxsdNKr7OXMindyrOURmzJwMZ9/f6mkt0iW+CbkcDJ2lsE4z0rSTXNRLA/b7rP/XZv8amXWb/AHZF9c59pW/xrnWE8zqeLv0MzXLlHZQj4TbjBNYSwztbowP7ocKy8gE5Gc9s4P5Gu3XWL9+t7cH6yt/jU0eq3o/5e5/wkb/Gj6rZWuJYtJ35TzGZTHKpxgMxypPHenwIkRifIKlgGFeorqd53up/+/p/xqQandf8/Mw/7aGr+ruyVyvriu2onFW5MsGYD+7JGBjBFTfaJYzMXlLbdpAx04rs11W8A4u5x/20P+NSDVrwZzeT5/66n/Gs1hLdTT69qvdOItNR+1tFuBMjKAVHOPr712NjM1l4VviwP3WwV4Azx/WrCaveAf8AH3cD6Sn/ABqQa1fldv2652Ht5zYP601hddy/7QTTi46PzPlT4jEyXMmcsxckk15rcnYQAK+73u5pfvyu592Jpm8nkk11xg0rXPOdVN3SPgdt5Gfmwe9WbGIy3CruPPfvX3hvJ6k05XI6HbSdPzKVZLofHNjEIonAJJ96zrncbnew6nJr7Z85x/Gw/GjzT/eb8TWKw7Tvc0+sX6HxXFOCF6YP8qkSdBPGCMnFfaQkIPBI9807zDn7xB+tN0b9RxxKjrY+PbdwBzycVYDqB937wr6881gOXbPsad5zno7fTJrP6u+5f1pP7J8U3EeGZQM5PA9KsWVukSjcN3qPWvs4SMc/MTx60vmP3Yj8aPq77hLFqX2T5DWDbtKsAp6Vlm8ijba3C+YcV9oiSQ4Cs59gTTWLjhsg+9Cw9t2ZPEdkfHtncRqp2jljkZ5rStgxLEqCr19ZKZMDaWA+vSneZMTt8xs5x97FQ8Ld3uUsUrW5T5TChY8cHA702U7YzivrCOck4Nw6+5zTxKuTuvGwPQGiOFt1G8VfofHV9ZNeKNxwFPapLCyjhYbPur0r7DCO2D558s8791DsBC0kU7uFwDyeK19i7WuZ+3XY+L9bX5pW6gYGBWTNKR5YB25OTxX29HM8kgBy+e2TTp5RDJsCAgdTuJ/LmmqPmaLEpfZPjG3mCrtPBHIPrTyhbJGDu5zmvtJmjgQnfv7BQ+c0SSOsQd+AcZGfzpex8yZYnyPjEbG4yNrj7vTGP/11BNbsAyqc4XIz35r7SWGYuSHby88HdnP5UlmZHkLEuyr3zj04oVGzvcPrK7HxOgcIGIwDx1r6e/4JvyZ/bE8CgHgrqH/pBcV6JFdRysQoG3OBk8n3r2D9lIf8X98L4PG26/8ASWWupaaHJzXZ+htFFFWahRRRQAUUUUAFFFFABRRRQAUUUUAFFFFABRRRQAUUUUAFFFFABRRRQAUUUUAFFFFABRRRQAUUUUAFFFFABRRRQAUUUUAFFFFABRRRQAUUUUAFFFFABXgf7WJxp3h30Mk/8kr3yvn/APa1fZp3hs/9NLj+SUET+E+cmk98+lHmc8nNQb8nrTTJjOeKRz2Jy+aYz5qIuc0m7H1p3EyRjzmk3Ypm8ZppbGaY0PJPsaaxznvTd3pTS/NAh5PPNNJ49TTC3NNJ5pXAeW/wppbNNLdqbnjk1IDy3B5pC2aYTSZpDsyTPFVNUHmWUozjOP51PuqtfnNo/wCH86llpK5wfjCKWPTYpByCQFBPbk14mZsa+sjRuEWVRsHQjdyuOe2B+Ir3nxMiS6Wm8Z2txt9OT/WvJNP09DfStex7V3O+M5GScY6D+XtXn1ZWZ6dFe7c6kSzfaAlwkKKwOMqDjPbI9/6VUutPZIkmlO6MKcr8rA89fzqHV1V9OEu1EdHUKU6fj6d/0pmqX8iafGtujjEpfKDcpwegx25HpXGux2uLcOcwpZhDPwZ50JSQqQOgfcenXpz/APWxXe+CbhJtFvp0IWIRO4OzadpBJB/EVyVpLJHAskj9BhkC4Ybm3ZGc8/nj25rp/C+qRweF9UDBY3aGUrtOc55HNVKwoRe58x/EmfzvEFzgkEMeB161y6WRuoC0kz7V5CA9/wA66Lx5dCfWrllABZz2965+KYCIOWIBHStY3S0NKsfeehKlrCIAo+b/AGieT/nilSEYUEYAqG4eNYCVYnk47ms5bi72EIM+5p8rlqZKSiaC2yxsdhzn3qRXFs+GcluDxWLDeXNuT5hYnPGTTkuzM+H+VvrVcrsPnU5mwwmuGX97gZ6L/jVpkEcZZwNwXAz39qxopHDKPMxn39qtXkjhPmIHHGTUauyHOKiPkWO7jLrKsQHUY4NMTFmCVZZMY61lsj3Dja5GOcEcYq5Hc/ZJFV0DjHK4zyK3aa0RhGKlFyIvJW5uzMThT/P/APWa31gjj8vHIxgH0rLjIefcqbFJJwvr1/wrSW4UR4bgjtjrSkmyeboXbohrORSONucVzNkF81+flB/OtwXIe1kJwRtNc/ZviZiOSD09a6MOrN3OXEXaN+0O5xuOD2HpWizKMDoo7Z61m2e2TBB57n3q+MSDDEbxXoI85rUts2FI/Mj0rofA8sFtr+nzy/cSZTgDNcyhAARyNp6GrljP9hmSUEkKQxA496tb6ktO2h91+FvFmn6w6RwtIxjXlSMA5HX9K8l/bAinvvCatZO9u8OZ8RvtLBSgK9QT1zgehPau0+Gvl+UsqxBGZM8d8HFbHi945pLcPbR3IaVUCum4Dg89DiuLqdZ+dNrH4mvTttotVuFY4HlJK2eeOlfVX7MWqS6X4Pa21VnsnN3II47rKM7MI8YDcknHSvQk8Oid2YEqxYBvMhKk9t3TB6f/AFxXiHxa1G30PV7kX5CokyGDzEIyuzg9OOQ3B960vfQTPojVvHejaK2L67NvjjLQyEdAeoX0I/Ovm74kfDnVviBrk+reHNPF5ZJHPEblZlVdpQiP7xDHgEex/HOBpPxT0G2sTDdzs7kkhfJcoRxjt619DfCG7j1LwwHtLdTYTopGD5eVJbgD169cfWi1tRHzFb/s5+LMRyH7Gsg+YxPOQRz64IIH1r6O8H/FTS/DmiWmn3yzLcpCrOUjJQEKFIBHU5Brtbjw89zpt5DsjgeaFokbexKkqRk4ODzjjA7/AEr5O8c+Kf8AhH9Yaw8meeWKLzXe3UMu3J5GTwB9KL3Dc+kfEXxgsLPSXnisxqCsMGIMyhlP+8nf0ry9P2fbfxuNU8Syaq1gl7CE+yrGJCDtQhtxIxwFG35uc89K8dPximvLZ7GXT2mgliaFt0wXAK4B4T+tfXPw0WTWPCVjcmbylZFYw7A4yUUZyeM8elPZC2PEp/2TNO0y1MlzrF9uByXCIBj6c4PXvXT+F/is/g/QodIjtDKsK7TdPPtw+SMlShyMBTgH8fT2vW9GbVbK4ha7kR5IfLDqqA57HJUnrz6V8keKJ7iz8Sm3twfsctuZk3jc24FVYEgjjlSPl/i68Ug3PV/FXxP8TQ+Hr2XTbpYrxIXYO0SPghf4QVx2Jwc56Va+Dem2fxA0aLUvEMEOr3ojXDzQoFzkknYoA5OOMYHOMZOflW5+KOv3MjKzxIXXYxVSx2nqPmJ9a+mP2YtSfWNEu1unE/y8qwGOSM8fXNUJqx0+tfCnwzJa3kh8OaWYFbeg+yIAQxHzIQP93ODXi2nah/YGpMdHgXS45ITvWGMLzkjn0P3umO9fWtxbw3SBZo0lUHdhxkE4xnn2r5U+N2kSpY3x0zTlsrlJV4sodk0mecEqNzABs47Z/GjqLVmhNAuu6dGJL26EyjBkWZs5xyDzz2/+tWR8L7m4j8Zi2a4lkUxuSrSFhwOMjPrXlXjt73Ql08Wl3dQI0TKypM4P3skEk5PJHX2HQCmfCbU5R8QdLnmnaWSWYBndtxOWGcmk07DsfpDE4+xOuOSP6Vzd8c2k6/j+hra0qYXGmRP/AH4wfzFY9woZZ1P86hbCPKbiaW4up4woRQzcr9fr9arDzQ+0sSN3c9q0bmLy76b/AH2qld4jkJ4GRnmkyrlhZOKUSA9DWY12F53YqJ9Whi4aQZ9OtO5FmzYMmfrTTJXPzeIlQfu0LH61WHiWYdUQA9aOZBys6cv78U0ycVzg8Tpk7gAQM8UkfiWGaTaJNhLbQCOtNTTFyM6MPXZ/BNgfjN4BAwMa/p//AKUpXj8fjGCGWaOWQ+bGxQJjqew/n+nWu2+AXis3/wAc/h7EpUhvEenKQBjGbmP19jRzor2Ulqz9mK+MP+Cn8bS/C/weq/8AQaP/AKIevs+vi/8A4KhSGL4XeECDj/icn/0Q9b0/iRVZXps/Oq3TywAD16mrcTdOc1n28/mEA8n2q7GwB578Up/EYw0iXUPy1ZjbJ6VBb200oJSNiPapkBUZweuKkstI+fSp0PPWq9tG07bY13sBnFWY4JWbAjPv7UrATIfxqyh7dKbHp1xv2lAcY71etdJnl6qVz0BGDQxkKtTw3FaD6BPBG0jRSBFBJIZcACpLTQ2uF3CKZk27gcqAw9sE0xGehz7U8cnFbUXhkXDbgrRMBko7D88/iKmh8ONAjyvtdVGQQx57enP4UtBmCDSg9cE5rqIdAju1YxSI24dATz+lQweGrp13WyonONzNnH5jFLQLHPBgvB61IvK5LDP1rtrXwZLe/wCsh3bQMsDjBOeOvPamP8PXMhCQzAZwMPgfqppXC1jkUiLrkMv45/wpfJY91xx82eBXe23w+KxhHTGM8vJn9QP6VMPhxsgaLzEKMc7TIw/kPanzB1OAWzeQ/IVkxydrZphhcMVPWu7f4ZESrtaEwleQ0jgg+3HTrW9beDrYQj7Rnze/ln5evuKVx3PJlG9lUZGfU0rMFfAAYj1r1y28I2drxufaANqx/KPx9aWTwnp7yBnic854crz+FFwPKIZVd9skQwQTlc5/nVhtKnkw8C+YhGQRx/OvVG8OWEsJjkSRgfSRlwPbaRT4fD1hbRlI1dVJzkysx/UmlcPQ8pt9JvXyxikjA6h1YZ/Srs2lXXkIRG0nOWyOCK9NXS7REwFySOSWOaBYWkZkHlIQ/wB7IznjFK4jyd7e8UHEZjB/uKcj8cZqe3tZyAJlLseV+Tcfx9K9OVLG1BCQxxgnJwoGar3l9pz482Ups6bZjH29iKLgcKlqzOy/OCuAcqSMe3rU58J3NzNFPED5WMkFCMn2/lWlqGp+GVvEuX1NYZ0XarrPlgOe5ye5705/if4bsIkjbVoiANu47mLY9wOtAl5GafBVxK/yxtFn0zgfmP61PF8PnaPc1yFz/CV5/nWhZfEnQ7+IzQXwdAxXIifqPwrXj1dJoUkibKMoK8dqNQbOUHhO6RZYFijO04V5ZCoIPcAKffv3pum+FLuOVhdRQpDjpuY5OeOvFdYdQyc559cVWkvjxzzjuKHcaMU+FoomUiKMEDBbzG5OPSlj8Jq4kZzFk/cxHnBx3J5PPb9a12lZfmxzTPtkwbKjPtQBz8PhC5Rg8zQcZ+VOQfzFTLpDqTG6RYIxuycn9K6aKOSQYI6npSX1hIFPygGgZhW2iL5SR/KV92b+dXzoEPk4b5n9UGwfpUkMMihAVz2wK1UhbgspxVE21OF1TRY9PnLwKQqDcUPOfpXqH7JZJ+PHhckYO26yD1H+iy1z+qaZ9qhLlG+Qc/MBnp1rtf2W9NEfxw8NT4wwF1nnr/o0opFI++qKKKs3CiiigAooooAKKKKACiiigAooooAKKKKACiiigAooooAKKKKACiiigAooooAKKKKACiiigAooooAKKKKACiiigAooooAKKKKACiiigAooooAKKKKACvnr9rwhdN8NZ/56XH8o6+ha+dv2wmC6Z4Zz/wA9bj+UdJkT+E+avMPTPBo8zmq4ehX/ADpGBOZD9D9KXf35qDd3pQ49aYibecZ6Gk3HPWo9+T1o3+9AEm7B60xm/wAmmFz0oZqYWHE55ppamk8U0nFIBxPWk3U3OPpSbuopDsP3ZpM4ppak3cUmA4moL5tts59KlzVPVm22Mp+n8xUPYtbnH+NJZP7GhSJgJW3MGI4B2nH64rzewtxfWbtMiyN5m5iw5Uhfy7/54x3/AI2uH/smycsu3BQqR26fnxXmNv4hksZ54YAkiBuQzcc553dvf6CvNrr3ro9XDytCxR8U2721pPIkxxwVUt8mRkkfl/Sup0ycw6fEE3PIOCWGc4zn8ema5bUYZ74ws0mbOVBNvkzvYgk8DH90jn1x17dhbyi1tgkLxqpwxY4wueT+lcrd2elKS9jGHW5WnuU89JGC5DNu6lgDyTz2x9ePStLZFbeDdSwiqxiYoMdPb8qybwJJqaJuwSSG+b6Hbjt/+uuk1Wzt4PB98QFVjEF3HuM96zbszGlZHyH4ylC6zct0XeSPbk1lW2pW6cSc56+3+ea0fFkif2rc7vmUyMf1Nc3EIZJMZCj/AOtXbCzQ6kve33NCTVIo3O3p/DxnNQR3zGRDkscZ68VViWHzSwwdpyM96s/a0hlT5c4HT2q7JLQykrNO+hdnkEqbnTcTiolt0kbIATocA1JE4ulLYxz2pWhAZgM/dqOg1bmuQkqJ0C84PWrl4C+3dxjOD61DDEGmHcZq7fQEoCOgpuyaEvedn1M42cm5GGdoPPOKn2eTIrOAx6kHnFSSfurWLJywIYKe4qMFbuToFZQM5Ocdatu+ooxs7dC5E8Ycs20Drg9Kb/a1hghl4+lUL2ZVkwD0GOvFY7X+x3VlyAeDiqjG6IqR5Neh0ss8E9mxjwqZ6etUWtRbSJhs7huHrVO3lEtmXUDcG49f8/hVhEkkmDHLk4J9vauiitWcdZqyNiwcryBz3960ZAOG4BPSs/TovmOQcgfdxzWg8TNIu/5c/wANd6Tsee2uYnTDJub5cdacjEKRuyMcGmyRM0YyNqjoT1NHlMItoHynqaqzuRdWPtrwAijRLJx3ixnv2q54s16x0G2+06hcx2sIz88hx/8Arqp4FOzQLAdf3f8AWuH/AGjNQhsPDkM04+VWYggE7TgHPAPbNcfU6jpx440IhNur2TmTG0Cdc8+vPH41498X/Csvxfv4bTQXglNvIJJbgszDAyjKCu4fxAgcDqe4z4/p3xSs9Pu9obdG68uI22g+4znPHp3r3X4Aaodb028vrCFCJriZXnlcqWYJAPujPQAdMdfarStqI8VP7N/iuPYRPpsx6gpO4wPQ5QV7l8OvFcHwz8KQaVq26bUIAYmithuGVdv4uBwGH6+9epXGliW5jZYYRBHkgbzluRwRtPA54z/hXy18YvEjeG/GN1b4RppJZJNkbggDdkdvc9uxovfQD3e8+NMUUKPDod7coy7srJGMcZ6Z/wA+9cNc/BeP4mga0+oDS/tVqIIbVrdWkSJlZ1BcEf8APX5iQScDnsPDpvjNdTI0f2QncACxlAIIOcgBeK+q/g6Z9Z8G6ZevJ9n3QIRGVDcYK8E9sr+mKewtjxl/2X7WxS4lOp3MqxIXUJtUnAyOqkfT149a63w38TL3wh4d0+w022juliTEsl0eTg/LjbjbkY65/GvZ77RJbxSs16WB5IWMDI7Dr0HpXyX40udW8KeKE0SBhHbSrkT3EZJZh/DjIzgkDA9aL3Fue56p8XNRi05yLRYJ/Lz5gnDIGxzwY+Oc45PYe9Uvh34P0f4k2cWt69YA3yRpsWCZo1jGcEfIQD9xeT+GK+XpvivrjRiHFtsKmMgLJjbjHTf/APW9q+n/ANn26/4Sbwz5l1hHQNEVgJUEDaeeST1p7IGrDL79nDwXBbXd0mkGN4+mLmfB5wMFiR27A8V57oV5P4G3w6LPLYrJyy5BI7Y9Pyr6mWwhjh8td6jPLLIVY9erA5PU18v/ABu8OHwVFZrY2z2FlPerC11JukAjJfHzNlQcBjj0JOM0twWptv4y8Sahp5kttbuo7lF3Mqnhh82MDHXiuc+DXiPxBq/j27s/EOqXd9FBKjoty5C5Eu04GemCcg8YPNed+L/HOveH5LTTtM1Ux2kf+k7YYkwJSSCc4yfujgnHA4rV+A/ii9l+IEX2q5eUyhnIJwpIy3QcdTmnsKx9e6poNucGOLy0XJ3qC3zHoMdcfT1HHpxt1YWdtqTSQxW7tGwYSIg+8MZIOPXvXoptYHLZgiO85b5Bz39OaEtLeMjbbxrz2QClcm5uWBzCwrHuMLLMP5/hWpp7fIR0zWXdHFzLnng1KA8w1xjbXrkLn94f5Vy/iHUZo5ItuFDLk11/iCBp7q5VQC+4Ee3v+VefeNdXttNMJdgzqFDLtC4yM+vXg1MnY2hFyehkSaizMxkmwp5O5sfpUS6jFztJcj0HFcBqPjIs7rHCFIJCnd3/AC+tQReMJ4FR5QSvTC9zXNKXY6VTa3PQ31ZUXJJUew5NZ7amZHOHYdfm7Vy0fiI37MyDgHGGOMnHSof+Egk34FueP4geM1F2LlS0Z0moald20JdZRvB4KnGDjrXK3Hi+5imBMp35J3L0HBq4+oNc2xMpC57CsmCCw1K58kr5bYJ3io9pbc7aMFZtoz77xLeX16080zTkZxnjg4OPpn/CvVP2S9YlH7RHwzAkYxS+KNNjwx5Km7ix+vpXneo+Hre3XZ5wXHvnjGf6V337MEcdp+0b8KoQA5/4SvSwHHXi8i7fn+f5aqV7MVScZQ5Yn7/V8k/8FFvCc/jDwD4PsoHCMNYZiT0x5L19bV87/toOsfhHw4zdP7RI/wDIbV6F7anlzV4tHwdp/wAEbPTAI5bzzW75Thv19/0rXtvhDpaspjeMMOclCf611iP9pbIfk881aiiZFLYBA9+KmUm2ZpWRycXwhtRcxzNcqSmdvyFuvXq1XpPhPpNwo+0KshDAllXaSB1GQc1s3HiS00wkTNGgxnLHFUE+JWjybgt/att6hZQSP84qbsLFi3+HHh+3RRFYBMdxI+fzzmtCDwhpkQ4i3AY2hmJwPTr/ADrl7r4y+GrOQxy6rAjjqNjHH44q9dfErTLG3t55/tUENwN0LvaSKsg7FSQAfX8R60agdQmi2MKBVt4hj/YFA063DcW8K+4jH+FZuj+IY9alYRFwqqGyygZHtya2SiOQEZh6k4PFINxi6fakHNvCwPXMY5p6adZQnK20CdsiNRRJGu0bHceoODWF4n1ObR9JuLuLdK8QyEAzmgDpMxqxYlQT1NNlkjPO5SfrXzZ4h+OmvQXYgs7edFEYdz9lVsZJ4GSc/iBWb/wt3xBrxjt7N9QhmkDZaQwhgev8KYx26VXKxn0ncS5fcjYJ75pqXzBvmPA9TXzUPEniuJ42kuJ70MWWSNg+cHoVKhMY46nH5c6fgnXNW1XxFJZXpltitu0nl/vBJ2+9vY4GOf8AOKpRE/I+ihqChcHP50oulc8Hge9ZegRiTSLYv87BNoZuTWuHIAUHAFQ0L1DzOM4qlqmu2+j2/nXDFF6DA6mrhYgdf0rifieTL4dmiYKx8t3yfVQCKBle9+OXhywuZoHncSxfeU7BjjPdq5y5/ah8MR3TQJOjbRku9zCqAYz13V4Fc+C9Ku5JpZrWMvMSzmMlCxOck7cA/lWtofhDSprlLZ7K2+zyMGaMQxlWKg4J+XqMn8z6mrshnrviP9qbw5oU0cSXun3ruM7ba+8wg+h2oR+tRaZ+0laazdRR26W7GRc7BIxdfqCBj/8AVXBW/wAL/D9haSW1tZIiSKQXcl3AYbSFc/MBjsCB19TWN4X8GWOl+JWUWKCSNHVVEkjE8cfxen86Eo9g0PqLQdan1m3kkk2IyPt+Q57A/wBa1oi+TvZtvbbXPeCbaKOC4RRwXB5Oewrp8BfYD0pEi/IR95/zH+FZXiC9/szTpJsuzcKqlgMkn6emT+FaQI6k81zvi65CxQx+ZnLZMfHTB56f1/CkB85fGH4oX2h61Fp+gbzLPEWZIo1nLckEBmBZSAGJwO4rxoeLtcvNUNuum3c92pBktlQiQKcdAqgg8jBI7jivffiTZWst1BNIhxynDHk5rjkurDT763keN9wkDAKcnr7mqvsPY4aXxKs2jtqc2nazHAmcSwK0lsxztG6b5QCW+UkBvqTxRrsEUWm2J1Cee3eYCVbaK4kaUMVH7tgep9cBQCcds169N4i0e1vYrhrmJF2MWkMn3enUfn+tZHiL4leHbnQry2GoW5uDNGyAuCSBuyR1OOR3HUcHgqXY9XqZ3wbtFivHANxbjzJFIm3YPyrz8xyOnSvqvw26votmAxfESjr1wK+V/hn4w0qXX3H2pCWl4IQ8jYe+PavqPwzcB9LjH90lc0nclmt5fplajMZIIPX1xTxMecCmyS4GKV7k7EDAA/0qSPqNqgVCrgZz+GKekrZ4pMZr2gGMYqzeEfZ+Ac1UsizdRmrdzxAx68ZoQGPDLucr0wTW1D9wetc6ZMXLZ9a24JMoKoTJ7hA1rMnqpGB1PFdV+zTL/wAXv8NLnB23I2nr/wAe0lcfPMohkJIwFOfyrT/ZknFz+0h4YJ6x/bEA/wC3WTNIqO5+hVFFFWdAUUUUAFFFFABRRRQAUUUUAFFFFABRRRQAUUUUAFFFFABRRRQAUUUUAFFFFABRRRQAUUUUAFFFFABRRRQAUUUUAFFFFABRRRQAUUUUAFFFFABRRRQAV85/tjtt0zwx/wBdbj+UdfRlfN/7Zpxpnhf/AK63H8o6T2JlsfMYfI9aXzBjrVUPSh+eTn2qTEtb6UN/nNV9+TTg3Si4WJg2OelLu7VFu4xRuyKYiXcDSFvlqPPHX86Qtx1pgPJxTSfTFMLU0vnr+lK4EhbtnBpN35imEmkLZNIRJnj3pFJySaZvP0pA2O9IZJu64qlq7YsZMdsfzFWwR6/lVLVSPsMmeBx/Opexcd0cF43bOl2yYAJfHPQDn8K8dvbi4trwvBsAJKur/eYEgHGO+D9MH8/afH4ik0q1dcBVKg55xya8c1CKZZpHCb2ZgofeVIGT/XH0rycQ7M9WhG8Lk9utx4hgtyziJIht8vLfNkcD3H3ufp0rWvpm0uGOGOFEUvtVicAnJ/8Ar1Fp2hv9nEnmIskZw3lk9OuMHpwR3qXXrGSeKOG1wrqylmY4BHPGfWuWnLndjpbtbm2JUk23UU+VZDsBYjBAJAPPUHr1roNV1CM+Hr6KZyY8BM49OuPx/lXIa0k2n6TFH5gjZ8bmGcYxgfUdDVJbsvpN9BLMzNlDuIxk5z0z+H+Fa8u7NIRU05J2PFvGX2MX0oQ5+fOR9a4+K3RnfAxjoTXS+KYy19J94ncQSfSsWOJSrcDpnn/P0rpjojmk7spW8ZRyvJB7dc1K1oTyFJ47f5+lW4R5TEEA8DofapFmK4UqPwFJy1N1C6Fs0eOIDbj61bEOSx746VD9oIUBfQU1booW3NketRqyuVJXLaqE5754qO4unRTtwxHY1H9qwCQ2fQEd6oTSzNvCkJz+JFXFX3Mpu2xZubjfACSSTjHtzzUFnPuZsgBsVTDFvlJOfQ+tTRRSDIC54J5rblS0CEtLkU7kyNzk98VmTnMhPc9h6Vsm3VSWLc45GO/+TWc0scYkXZuyR071rHyIr2aVi5aHbaAdMnrWpaEqFwOfesuZDHZqGXqckZ4Fa9iN0ajgDj+VdWH1ueVitOVG7aKIoywwWxnParlupc72wzVn20hiULkEdq0IR5Z3Kcg9a70ea+pMgMzZfAx0Wq95IQyoMKpIyTVgYc714b0qKTbPLErdNw9u9D2CPxK59o+CpWOkWgIHCEcfWub+N/hK78Z+HWsLMQCaQOjSTyFFjVkI3EgHgHBI9K6LwgNuk2qnsh/mas68JZVVYlic7uRL0298defwrzep6J8aj9mfxJHdmG6ntbYZ+9vLYHrx1r0z4cXrfBLSLqwvGGoyNdkpGn7vG9EG7ODxiMe/t6+0tDqEzbg9vE2MBk3EgemDwfx/DFeEfHnUbnwlrKXoKT/bHj85ipTB2sBjrwAo5APfvV3b0Eeqab8YbW/tHlksLiKQEgJGVkB/ElcflXJ6x8Mo/jFq41OYLpYtC4FuD87OW2MXGDg5j9uxPv8APcPxXubSXabSQYYncl0V/QLX018Ar6TxN4ZGoSEKjtJ+5lxKSfMfksQCT83Pr+JqthHntv8Asp2vmeX9sujIo52Mpwcf7nSuh8EeP5fAejJpcEAvYIW8iOWclCFUk8gdwG5GOte5/Y5BK0jzh2PT5OF4x6+hPX1PrXyb8Zpb/wAG67YNGY1j1GWcSCQfMhUxk/xADiQEAkeueaL3A9lb4warLD50VharAz4VpnZQB8vU8jv14HSs3w/4F0r4uAeJNX8+E+WLmCCB2/cs4+fnPPQ9AOSa+Zz8V9aaOFHW2uFhXYiyiQhBnOB8/Azz9a+nv2eruTxJ4RjmupXSRWJAiwACCeeQT3PejoJoov8AszeFLOyaWW1mZDuIdriQMMZ7AgZOCR2/Sue0PxFL8Mbu70XREiWJW87zJsyMobI2/exg7A3r719CNokaxzqLicLOcyAFRn/x3+VfOnx+0NPC84l0+Jpbm4miLNKy8RBJCw456g4JAx0wcigNzsD8UdektGmkmtooDIZC2xlYLyAo56dGHfnGTXOfDvXn+K2rata+Kvs91a210Y1WWFeF7KS4JGGAI9yfWvEvEnj7WrO/ubG3ulW2AUYKAj7oz146k13n7Oesy6v4quLW+xJFIY3wo285I6j2p7Ca0Pebz4O+FbqRml0C0aRV4eS2V/lzwuADzk5yOgx615f4q0fRfB/iLTofD+lW1pqK3iA3FvEDkdCvPDA579v0+hf7EsfLKeU+wnJXznx/OuA+IPgLTJnivGEtnF5g8y5jCsVGMBQWyFbIGHOFHOT0yri3OA0rxbr9wbeaTUruQxZO1nO2TAUYPYkdcHr36msHxN4y1i28RWwXWLrZuEjhDswd3IwoHp+prgda1G+0nQtbgmlu4NbjuAkkv2klopUkKyAFWIIySMjBOBnNeevrOp3Ehea+uZJCTlmmYkn3OadgP0b+H99JfaQHkkaRtxALnJ6Kf61dvzsu3z6Hj8K5D4DXhuvBVm0jl3IAYsck4UD+ldhqYxdk9j1/KoQjgtTAXV5uByecV4f8cYJIwlzDCDtkO47sZ/zmvc9YGNVc9zXknxsj26RcMBkoVYj8R/8AXqZbG1J2mj50kgvJZGkYMfQEirK2V/LEhlfCjjDHpVqPVv3vllH3HgccGrdxHK8W4cd8HtXHdnZKTTKDRSQQ4Rsn249603v1SwUlMSd6xzcsXRCQMnqOD+FW7uWP7LtPUdD2/wA5FN+7YIx9o9y1ZaslyvlzfL2Bqwtluk/cfJjJDd/ase2uookwdp6j3FbWkymYZJITbjOf1rOS1ukWm4LluV0u1tpC7sZpTkFWPb1/p+depfs1RwSftDfCh1BRx4s0o7VXH/L3H3rhIdLt/MaUoHY9CT0rvP2eI1h/aT+FgVMZ8WaTznj/AI/IuKXMnJJGTvuz98K8B/bA06LUfCnh9JiQi37MQO/7tq9+rwn9rRtvhXQz/wBPx6f9c2r1Xscz2Pk+Hw1brM5+VY2YMAAM9fXFbZijitiigYAwKgW4RXCFvnPbFWmjkMLnb0BNYMmx4V8ZUJ1EiOQKrW+1tmN3c8nGR16dxivI9Fmn0G2lW0v57SedMF4nCM3HIOOSO+PWvSvjtrkOj3m+6YQCRDjEbNu+XGcDJ7Y6D6dz83XPxJ064l3mdmGMDbEelaRvYD13QfC+n3VqPOZ3kSQkIWBHQYJBHbJ5rb17ShNZz3ABlRNpfeWZlBcDrnAGW9O/vXh9n8U7KzLATXTKV27EXAOfqRUyfFaznISKK7BbjkKB6/3uapXuKx9neD1EBij2qpFlD9wYBGxeT78104kIPHSuH8GX5vbWwuxGUjn0+FlJBGflXOT0J6dOPxzXVrOcjJqWSti/52ffHvXM+Obj/iVmE8bw5z6YXH9a1jMQK474gTfZ7WOcKeUdSwHoMgenrSA8N1e7itJiJGByBhc5J/zijQ9WtPt8MjzCNckfMcEEggf0ryP4heJtWsvEHlpduqtArrhEOBkj+77H1+vYcjca5qgleOS8mV1OCpO0g9wRjirKPp2+8Tww3DLDH5+DjO7aD0785rV+H1/Be+PJpE228PlSkKHyqqUPGAo9STgDnpXx88kkpady7lWwZeScnOOfwP5V6Z8A5EPj3TGZvlO4NuPGMc9atIT1Pujw3PnSYupwTWssu72/Gue8LsP7KXvhzWvv68ViSWWlBHPFcT8RJkNkkTcq0U2fyH/166uRz9TXnvxbLx6LFOgUgFozkkk7h0Ax/s9cj8c8MD5T1/4hWVnq13aGO6kWJ9u0AYGPTmqifFvyEIWzuXjK4xKyruGfXk1y3juB5PHOphAXZmj2qoJJygxxTfHGU1VGI2holYfma0aNLHVSfG+78vy0spFQLt2G8O3HTGNvSrHhj4lXcusJss4kWUthWkZtuQehwP5V5NuO5j0GfrW74Xn8nUbRuh8wY/OhW6EH378OtTa/sjK6hWdAxAPArsDKc15t8IbgPpcOTuJgzn/gVeibx2NSmiCUymuW8e3y2Okx3DBmPmhcbiAOGPTp+ldCZR2PFY/ibQ4vEVgLad5EQNvXZgfNg45IPqaTGj5Y+OGpzazpG7bt8lx5cURJLFiBg+pz0+teUQeAPtlpBM18UkmwTE0Jyp4JHJ+v5Gvo/wCIehQeINKltYNPvBe2LQ2675UUSfvEUPgAlgpLMcdAhyQCtcDofg/Unt1+z2NzfOS7I6q3ljBOOo/Ud/TrVrYpHgMkMdvKEkGFzhiqAkDPOB3PtmooSCV6Y7Ajmu+Pwg8WarPcmPR5oxEzkCXA3EMQV788Ec4HvVSf4PeK9OZXudLWDzDwGnj5/AGm9yrFn4ZyeXrKgcfMpz37ivujwdNv0xu2JGH6Cvh/w74Z1bwxqSz3sCAEjAilVjjPUjPTrX1v4d8aWmkaRNJcw3AQMGztXuAPXnpUszkejbqRmJNcFJ8YdHVXZYZmC5z80fQdf4qwLz9obRrdmCW7kr1ywOPyNKxJ6q3+FTwDkZrw24/aVs8/uLWP337/AOgrr/DHxXTxFapLBbpnaGcfMMZ9M/SiweZ6zaPheOeKsXBLxMM8YqjYyblQgfnV2UFYG78YFShnOv8ALdE+46VPqF+1rAAuQcZz3qpMcXBPvTNVbci9/k/rQD7HJa54xu4y6Rkj5T1JOfwru/2K7+5vP2kPDguJTIQl2efX7NLnsK8r1mLzJwp6MpBBr1X9jO1Fj+0h4UVHzvW83gcjH2WYgUt2aJJbH6b0UUVqahRRRQAUUUUAFFFFABRRRQAUUUUAFFFFABRRRQAUUUUAFFFFABRRRQAUUUUAFFFFABRRRQAUUUUAFFFFABRRRQAUUUUAFFFFABRRRQAUUUUAFFFFABXzV+2m23S/CvOP3tx/KOvpWvmb9thtumeFP+utz/KOk9iZbHy2HxxUgfJznkVUWT161IrfT6VmZFgMSeaerfhVcMMexp6ngdaYWJ9/X2p2c++OlQZAp27P/wBamJkucdeKQmmB+KbuFO4hxYjqaTdTS3/6qTd1oCw4tk+lIG4ppOTSbufakMkzgUA5qLNKG/CpAkB5zVbVP+PJxzzgVNu7VU1aXbYuR14qXsUtzhPGuI7UKXIHGFU9ef8A9VeRXl/NEwKxltzbVU9FHOcnseRz9a9U8ZXkJSzQ8jiRxux0Lf4V5NPB/aF1AyrnazOcPgnPf8Mf5Iryq9rns0E3Bs3rC/lh0e0QPsueFd92ee5weuf6VavNQMIChxPKSCQPpXFRajPdXWwXCwoSVCOOD/dOa0LBjpUy3F4SykkqynOPQn2/xrChBXbZVRy0sXfHdzLcJZJbSGPcMEEDDAHj9cdKw7i7VI5orpfMZlRio6HnJq/4nn87UbB7dhKFAUED3BOarXtibmWR5UzhMEdB1yK3lyxjqdNJuNPc8a1weZfsVLIhyMD/APXVeKBNvqTkZrU8RxONSZVVVAB4HfmoYovk3YAJHNVfRHItzNmjEEpBzwcc/SqzX6xuRtAPtWrPajzNzHC8DFVJLeBnLDgU0k9zXnaVkVVu9sZPTmoJbsyEhjj6VBcyxxEhW3YP0qqZvNbgdDWsYK9zOVRtWN23YLH5mdzY4A5qpud5XbOAc59O9T6VbvNGx6D25q7DYeSG3EOOvSlpFu5G9jMhhM7nAzz1JqxkKAJBjByfpVqWHYgCLge1Ug2HOTuPHHX1OP5Vd7ivYnSGNgNu5gfepIdLsi3mOdpAzy2KdAymJzGuO+MetRIElYiTG3Pf1qLtGtuaKZBfPE6osPzR7snnPH1rYgtlgVCOAwGBWRPdJaKu1cYYYIH61eivFZl+fPHT09q7sM9zy8WtjagVQMHkdjVuElHIB3D2rLiuQU46HvV+3nRIyFBbHJr0U1c8uzsWGwjgqevagbWmibO071yB9RVeO4USEk5Yn06VJZy+bqNvkE4kXjGe460XVhqLufavhbjTrfIA4P8AM1n+PvFEfheziupImlV3MeF4wdpI/Dj8K09CTFhbnPJQHFec/tDXstp4VMkahnRZXGTgAiMnNed1PRM+w+M9xeagYV0lVgBOHE+5iB3+6MdP1qtrHhm3+NZkN7cHTreK5FoI0IctsUOGGehzKynofzIr5stviLqFlM/2m3jkVlB2RkxnkAg554x29697+AHiC68Y2PmTSCznguZAywAhSGiUAgHoQFx17Z4rS1tSWQ/8Mo6Zcz3JOo6jFsyUJWP5m3dvl6f5zWh4U1c/CCCfSrJTqVrHKRvncK4yqMeAP9vrXsdto5t7SW3S7cRvnOVGRkYP6f5zXzV+0RNeeDdbtls1WSCcmZneMjaSqjHBHXY3X39KL30Dc9qHxHvtQ0J9RtLWG3CE5E8uQwBQEjA4wZB1rkLLwXafGqP7dripbSZZlEIc5YME4JYDHAGMDnPNfO0Hxa1i1s2to4bYwM2eQ5P/AKFjqK+kv2fbiTxT4aimnmkt2RJomSBsBgZAxJHPJ3GmlZXJZRtv2bfCsq3KESI1vGzMyuzFsHn+LA/+v3qvoGsw/CqO+0XTzOzriSOTK7UDAEghgSeQe/cfj7X/AMIrbIpAuLgA9QGXH8q+ffjlpVx4St9R1O1uYZJBcRgQ3UoaRlYkDaEIIABHX2ovfQDotC+MuuS3jLeXduyhtqxvCAG6/wAQxjtTNCiT4xa3cxeJUKQ2zCL9y4j3KE3gkjkYbdjp71866r431dLiKOCeGECOOQPDCgKkorYzjnB9efc17F+zlrE/iXVLqG8byzuLl4MqTldpBySMHNMGehax+zl4Murxp5LS5iUAFpGnkXcPU84B5xjrx0ri28Haf8M9dbUdASXavJEshfaNvGec9SD6cEV78PC1mg4ln/77H+Fcl460Sx8P2EmoxwebcSYh86dtyxYDMHKcBsc8H1HWlcR5r/wtjxTctGE1BFd04jSAAls4wM9OfX0rnLr4s+K7zxLpujX16jWl5K0E8Lw/eBGOM8ZBOenpXj1x401izuJntb4mFpQwdkHzHHPBHfuAMfpSaV431U67a3DzIZPPUkiMf3v/AK9O1mI+wtL+D3gvUtHVptLtn89BLLKwUFm4LNjGMZ6kfSsC9+D/AINgjhePRbI7wfl8sfdGME4PU/05r0Hwrothd6BZu0TMNpIBlbA5PvWq/hvTsf6g8f8ATV/8aVxEfw2sbXTNJit7OFYYkZgFX6n/ABroNVGble2cVT0OyhsW8uBNiZJxknnj1q3qn/HzEe59/epC5xWuRH+0g2DyOteW/GSw87RLrnB2hsjthT/hXtut6HM9wsqqGQj15ryj4xafIdHvFyUK2zMfybilLYqLvJWPl+0I89d0JyD1PbpW3IhEJJGFHWsmxMjMpABHcmtXzXMeCRmvNnK2x6HK29TB1VFcDZt5IyelSXi+ZpyKx/ekdTVXUXEEoJIYZq00X26zCswBxnGavnVk2TG8ZGVZsEDrkHBBbB6V0fh+N3uvLVWdQ+SoGOOmK52G1Mc5+ZQQc5I49+a9M8C2DXds+JCmFVVZXOQOe+R25rV2m7J7i5+ROTRdu7WO3slkUYyvVe5611/7N5jf9oT4Xh5FMn/CU6XxjBB+1x1xN/eE20kS5lWMgA7vX69sV0P7Ocsn/DSfwpd1Vo28WaUuVIOG+1xY/rUOFmRCXNoz99a8A/bEvobDwfoTzyLEhvyMscf8s2r3+vlf/goGrt8P/DATOTqp6f8AXJ69F7GZ4XpuqWk8qzI6OzcA+tbjXyCBxjAK15X4IgmSLbIxIEgIz2r0EqTCeegrFkPc+f8A43aFFr2twwMjzExeYY1QMTwwxjHPANfELOTGrqMrnBI9wf8ACv0U8VeH5bvxFaapFvcxQtCYlVWDZzgkMw9TyDmvBbr9lTT7ZSHv9REG8HEjQqThTngZ7mtYtJajaPmYOxwMke9XLOTawPGcg+lfRsX7N3hiOORDJqMzHoxuVGPyUUo/Z50KAARxswXkvLcyFv0wP0qlJXEz174R3ZuNC0t2AU/2fEuAfQKP6V6J5vvXzvD45k8G+HrKDT4ZxcRfuDIJEKleccFSew71Nb/GLWiF81Q4yd258N/46AKzer0JSPoHzMnI596wPHEXneH7mXDM1v8AvgqEZbAPHQ44rx6bxLr99Cpj1BhlPvC4lAJ9cAjHf9Kx/wC0PEbajptvPqkrw3E6Rt5kshJyMFThsZyR6jrxTSuI8z+M3h67ufEdhdWGnXJt5LMDZCvm4IkfrtHyn2I9++a5XWvBXiG51m9aPRdRkDPzstXwO/Ye9fcvgfT4JNLnjlRpdsuN0hJbGFPU84zzgVV1Wzij1a4Kqck9SxJ6d8079Cro+JE+FvioAMmg6iQQCf3LLn25FdN4B8O614c8SWs+oadLZxI4DGUbSM4xx1r6qWxjeUEyFWJz8x4P6VxnxM2aXPa2qrAssgMrGNPnGOhJx/U/TpQpCep6JovjPTNJtfs91O6z7i+1IXfg9OQPY1uDxZYSWizxTpMm0PhHXcAemVzkfQivmHXD/aGob55HnKKF+dy2e56n1JpNPjAuoMDCkhSPbI4pWRNj6UufHFhDb+a80C9Dta6jDc+2c1574i+LGl66f7INqgabPlTG4jZg46bVPcjPIPeuSeyt3U4iQH1281yE1ktt490yJLZg2SwkCqqjgdgCcYI9Bz35qopMbR0tv+znD8RNVkvbuW50xRJmZ12s0oPqdxAwAAAB/XO341/Zt8P6tqUU02o6gh8vBERQA/Mf9k9OlereB5ktrW9MrBEDL/WtPZd31ws8UPk4XaPMI2+vOOev+etDk7hc+dof2W/C0ZKm91WXP96VAPwwlZ2rfA/w/wCGAWFxIspyIFb5nDYyD1Gcd6+nrvTpH8svCkr7cHaAAp9SxOcewFeS/Fm0eK/tWYAGOUBhGvyjMXqeew7/AF7UtQuznLbxs/hzwxYWtraXEc8cvlSXNvdhGlXJOOVOKsXfxI1DxEIYIftWlTruBeG+kZXHXkEc4A7Eda89WYLPeSS/IVlORhuMgY6jPf0qSzu/+JhbyeZtgDAtx9PxoFa6O/g1rVbdptt7NMrDCtdSvJ+P3hg/hXmXxe1XVtS01beeYogmQtLCHX5cHk5Y8Z4/yK7OXxDaIwCeZMT/AHF6fnisLxy1prPhuMRmWK6M4w7KuFUdQCPmJ/EAD1J4admCND4KxLdaPB9pLO0HlbTuOR9efavqeI74lIGeBxXyx8EoZLHS5Y5nTcqp0PuRX00t28enQyR7NzKvMmccjPbmhq7JObv9PFzqLgJlvMKhQevPpWXrcK2ZCSCMKo3Ekj5eO/p+NdxdWYlxPapGs/XfKWVSOc5APX8K5XW7K51S+maG1lePAUMFCZGMH0PXpzmmF7nz9r2stLZvJCwfdL5bM/zbuCT9c4/WqVhti02ONdpjeNc7lBzgD2q9feCdcntBHb6Y5dJznLKqqpHJyxzjjGPXr6jndf8AEGn+EporG4mxKsYJQoWI7dQMdqF5FM7rRmg+yw8L55BXIHOM/wAuB+VSajpFrLGwEcCOq4VwgIUZyePz/M+9ec6d8RrW5inltYpbiKzAlkKRHCjPctgZ9B14JHSrb/G/w/sCy2uobiOUEKMP/QsVIkZOpWP2G4eNWDhXKFgOuCcGvVvhG3+hlc9YsdPRiK8N1P4iaZfMWgt7xd5DHfGowT1A+Y969O+C3jG3u7iK2EEwZ1dQWx/eBHf3oexTR9f6PLvtoWJ4Kg/pWnM2Yz7CsDwzL52k2xzk7a23/wBV7VCIZz1zxKxz1qO/JaNecfLUl6NsvXjrzUM43RqSegxmmM808QX00N6FUKOOMjmvWv2L55Ln9o7ws7nn/S+n/XpNXk/iWLdfKQM8V65+xaoX9ofwsMAEC85/7dZqOpaP02ooorQ1CiiigAooooAKKKKACiiigAooooAKKKKACiiigAooooAKKKKACiiigAooooAKKKKACiiigAooooAKKKKACiiigAooooAKKKKACiiigAooooAKKKKACvmP9t1tul+E+M5muf5R19OV8v8A7cZxpXhL1865/lHSewnsfKiuOxqVXqorbfqOc1KrcHn8qzMrFoP0Ap6tgcccVWU8U8N81MViwG4pwf8AGoFYcDPtT93H680wJdwHvSFqiJxSlqLiHbuf8aTdTGPFN3Yz3x607gS7yfWm7hUYfJ9DSeZ+NIRLvxnvSBv1qItyDzTQ+B/jSHYsq9UtcUvp7j3BqdZaq6vJizOOeRUS2KitTzfxzKhitlZdnG0vj7xJP+fyrxddRC6gx3BDlsEORtHpivafG0yyW6RsjnH7xNvfGePzrwZ2M16OgKkYIxx/k5ryq+rPfwsrRaexNrs/2RGAkMUhUlNvUH/Peo/D19cyfZvtcrrFISmX5A65/p+YqPUbeW5meQKWk5JABJBwQBj0xUenSySCWKRQZXAyAu0H5hjj+dKGlJWLir1GrHfaLp7QXCvKFmWNdwfPB5+vHFWp3YSymTgNnhOPXH9KxfCNvcxWvl3KsoVGfrkZq3rN+w3buWKjOfoa0knI5XLlVjyTxWD/AGu7Kq4B6D61RWQHGMdKt67fp9rlJHzZPAHvWJBdb5xycY4/Omou2pN0asiZOWwB71WntImjky2M+9V9Rv8AcoiTIx1PvVUI0cJZju5z1qUmbpX1Mu4tC0nyfMvUmohYEjgDca0wDImM44potm8zeBnnNbKbIlTTZa0ddkbKylDnsOtW7q58rbtTI6Et3qMTizi+dCCewBqrf3haP5UI29al3buKEVdRLN1KwhBG3kjpVe3O5QRsBGSMd+au27iSEHA9RkfSobuQKc42+mBQn0JkrMge5aOGT5SBnPHSqccm9ickA9atXYYwu2CMjmsKccZD7c8UKzNb2RYv5sfu2feVfAyeatWDhjz0rDcDzgC27HvmtWzPzjBrtpaHnV1dm9FIXdQeB6VotKVj2oNo/mayrYrKBzg96vh8rsY844rqucNloTCTYowMseprqfheRJ4hG5PMBAyhGe/pXHbvL4Jyp61peFNZuNB123urWQB1JyGGQeD1/Ok27FJI+5bGZJFBVtwrlPiX4ZtvGGltYXNw9tG+QZI1BYhlKkDP1rA+F/jufxLkNEIivXacjtXZ69aR36qjsy7SGBQ4Of8AJrmW5szweb9mXRPtqJ/at2w28mQIrIq8Z5HTA/Q1e06wg+CeqXtlpPn342Rzn7SQmGO5T0XkYxyK9VGgW8shdri5Zz1YuM/yryT4/wAc/h+yNxZtHM1wsSS/a5AcjzDggDBBDMvJOMMe4rVO+hJ1th8WtTvY3kW2tlAbbsIZj29CPWs7VvDNj8Y7pG1eOWF4N6iOCTLZRvl54AG1znj8q+Yrnxdq0F28cc0cIGARFGrL65BOfXrmvob9nOf/AISXS5BdsUeCR1DRADO5VOTnPPy9gKdraiZoXf7Knh4BVF3OpcACMkDJ4HXOO+ev0ql4Zvbn4Ralf6Pp22SFJygW6GQN4BzkEHsD17mvbl8OwCMIt1dKmc7Q4x/KvBvj9Y3Hh1Z7nTUSVmlhZxcOpcrtZdyKpDYyeSePkPPFO9wOzb43X2nlVv7CFmkRsG3LDJB4IznjBHAz/SsuDS4PjZcGLWV8pBK0YaBiGKhdy5wcZ45OOfwrwnXPi5qK2kukx6dpbwqyvFeeXK0+wkOOTJtyQdpwo4JxjrXp37N2ozeJri5S5kaAwy7wYGx1jIIOc0baiexvxfsy+F4o5mup7kbHKvIHbCc4yBnkHIxn+hIo+FfDlp8NPEGo/wBlrPcGK2NzGk8gVWVed56t1ByAf8T7jN4aiuW3S3l1K2MZdgT/ACrzP40WVt4N0CbV4A0168ElrH5qhkGRnkAZBxuwcjB+tF7gc5qfx/8AEEM7rFBbjBHBHT8xk81St/i3q/jm7TRtRtoDZzI8jSIrDyyuDnKkZyMjHfJ9K8LPxEuvOld7G3ZnBXqwAPr169fzrY+H3jCWXxdYRPAkcUztE2GOQGUj+tO1hM9gg/Z98LSwqZ3u1jbL7UmfGfpn8Px/Gs/UPgN4atY2mtBdpIqhkPmk7XAznBJB5r3XTvCdtLYWrfaJsGJTzj0+lS3Pgy1uImRriYA/7v8AhU3YHiL/ABV8ReHEstOsrlGT7PG22SJSQSOxwOpz1z9cU9fjt4hjtpnlmgdxkBRGq7euDnbyP/rV5f8AFHxLd6Nr4s1iheGJAkZYHOAxPPPXBrhbrxlfXEyuY4o0H3kQHDnHBJPpVWsI+2fgx481DxlbeffiMP8AOP3a46MB/WvRNZfDQkcc4r5v/ZR8VPqf2u2kRIzE5xt75G7+lfR2sfciJ7HNRbUXUuNbPcRxtkkY5ANeafFexP2CVMctEwr0YazaafEn2q5jg4H3jgCvNviT4isdRRktphOArAuhBA9iaASPjGS6ltb17dsRujEEdadfX0iIHyRjrg1X8SuU8RXSEc+Ye1RvG8sIyc/r2rz6iSkelB8y1K91crdsC5wx4z7mte3lS3gHTA+Y7B2/LtWDcRI4GXYEcfKe9Sxakum24VYyqE4ZkA49+c880uW6sipLl1NISBtQbCiVcZGwjketdr8NtUKW1/Eu5RFIBEWHAGORXnt6y7tPexdplMrK+1cFeRnPocAd+w9a774ehY3lfaZYmlZiDxvyncf/AFq3pw5WrnJVleOmxtyiH+zJWXcW80hiepIGM5/D9K6n9nO3Rv2g/hUSBn/hLNJcYHf7ZF/T+dcf4gmW2sWClYw7DJBxk4/wxzWt+zlrgX9pb4SQqxdJfFekrkYzn7ZEP8/j+Gk076dzOnqj+gGvmD9vSZYvA/hcMM7tVIH18pq+n6+YP284jL4L8Jgc41Yn/wAhNXS9imfL/hp0beVXGG6Gune4Ii4A5GK5jQEMEkmT6cfnW7I+5OKxE0jntduo7aEtJ91mC4XrzWZNCt7CshAyOVCZfOcdcfh1rQ1/Tk1JFid2RQwbKj61BDYRR2ot2LSKMc52ng5HT+dUSYknh66Qkogdc4C7gDjHX+lUtZ0m5stPkk3LGWQgN94oSOOON30HpXVi1iBU7WZlJKszlivrgk1DqOnWt+AbiPzNoIGXYAfkf84ouB81T3iQ6Pbu5XsACe/Xp+FYT6mzthQFUYOTnJOfrVf4ymTRrVHspXhhkuRGiplVQbW5UHrnB7cc15P/AG3fggNfT5POfMI/lWiA+kdF1aGWyQSMIWUAYZu2Ovapv7StbnWtIijO6Rb2J1lDfKPmO5cY57HOex69vmmTXNTDY+33XcACdv8AGtjwjqFw2v2Ek1xK+2dDlnY8g0Jag0fdXg/UI5LW+a3ieVPtJASNdpAwOzH+prTv5WZdv9n7pGGBIi7yn1JX69M1U8HzFraY8AlgflAUdB2FdGsnAOTUXJM/T57lVYNAUSMDaBEwZvbsM+/A9vTyr4q+HL691LTp7W2nNuqOhEpUBCcnjBwB7AZ69e3szSZHUmuT+IW9tD2xK7zGVRGqjqTkdvqaLjR8p6/4106yvprd52WUAElkfIyOMfL/ACrBHjbSYGVt8kgBGQsTZ/UCqvxg8P3ek+O0t3jXfd2cV3CEZSGRi4zkEjqjflXLeJreGwv1FvE0ETxh1Qk/nzVodjuU+Kelwvvht7sSj7pVQuPxzWhovxEt9V1vT2NnMGRggLODjnPHp1/U15CACR2Hv3rpfCLiLVrXPAL+ntxTW4noj7f8JWH9u2zSm48pWRGVVXPBB4PPNdP/AGCzOHa/uHfHLFj0zkd/UVzfwylDaXFjobeIj8q7cMahkozJNAgkx50s1ww/ilbcfpzXIfEPwzpltovnusrsso2fOowT6Zx+gJxnjGSO/LA5Ga5zx3Zyaj4cuIow7NuU/KT2PoOv0PA69qAPlL4oRy6OVvrCVrSzmZUmDJ5uxscMSB0OAOnXvzXLXiXMOhvex6jcyDyfNUZCAZAOeAO3rXf/ABd025j8M30YiP2c+S3nykx9ZBjhsdup6D6c1w0VzHJ4UWJOSbDGfvD/AFXIx271XQuxwEniPVmcn+07wDOcLMePxpIta1KYbH1O9lj3btjzsVB6Zxmqcow/AAyOO1TW0EnBEbs3XhD/AIVTVmHQ9w+BNw5u1jd5HD5HzMTnAP8AWvr3SX/4ltseo8pR+lfF3wTujZ6vBHMTEWkY4cY4xX17o+t2celW2+4jU7ACN1S9zNm+XJHU0x3CIWZtoHJJ6AVlTeKdLto90t7Gijuc/wCFQ3XjHSbZGaW9VQo3H5W4HvxS0FY8m8Y3jCSZQQqHO5SBySew9PoOK+e/iHbZ8Z6YkqAiTylKkZyPMIIIr6N8Tat4M1G9Pkaw32pmUeS8TlW9t23I7c56ce45O98D6f40vhAEs7jXLZgYZszqXALM2SGCqAQP4T/jUdGVpbU83urRZ9D1dmkwYreQge5U4HtXjM4zITgZz1HpX1Vd/BXX7i1vITFpkcrKyhWu8uTggY+Xv/hXnZ/Zh1+QEPfafHJwSA7kAf8AfP0/Omrah6HjEIJXkn8TXq3wPuPL161XjiYDr64qe4/Zw8Q2brG11bOcD5o0Yiup+H3wc1rw7rdtNJLGy+cjs23GAD9al7DZ9Z+DpM6PAPQMP/HjXSk/J93j1rnvDtk2m2qwM4kOScgccmug/hIzxWaIZg3/AMs3TuahfBt17nNT6h/rj9agB/0c9uaq42cD4lixdg/1969T/Y2Gz9o/wv6Fbv8A9JJq808TIRcAkHrzz716Z+xyf+MkvCwzxsuv/SSagpH6Y0UUVZsFFFFABRRRQAUUUUAFFFFABRRRQAUUUUAFFFFABRRRQAUUUUAFFFFABRRRQAUUUUAFFFFABRRRQAUUUUAFFFFABRRRQAUUUUAFFFFABRRRQAUUUUAFfLn7c7bdL8Ie81z39oq+o6+Wf26z/wASrwh/12uf5RUnsJnyaj/hg1MknaqaMDzipkfBHTI9azM9y0HPapFcfWqwbOKeH4HFMRZU/MKfnkVXV8fWn7+aYiXfg9aXdgfSot+KNw5oAUnn0o38eopuc8+lNLfnQA5m6etIz/hTCe1NdsDHagBxfimeYeeaYWphJ5qWFr7EplwetUtXuCLIjuTU23PbiqGrhEtMn+8ORWMppI2hTbaOH8XO0flN13J1/OvH44WfVQrgMqEYC9hXrvjUxw26MigMYyeB9cf0rzqO3SKF5sBSoO1s55A715FaV5WPcoRtG5Q1izSSzkUQmVpWCABuo7cjnriq+mwCOK4u0gMaGTyljJJbIPLcnuCo/CtiMTR3ttO2VB4BXGNx+UE/n6VnteS22rTWTy+ZamTAyM7XHBHIz2NVB+7Y25JPVG1pF4ZYl8wkE8/N/dxyP8+lP1m+s4kkedohherEDp/+usq5kS2sI8OWf3GMe1clr5SW0cPkkZ4zx+X+elEHzE16D+OOxzuvahpjXEjo0OOgwaxIdRt5Jtse3PsPesW9jQSsMnqetQ2hTzlQc89jXZyWW553Prsbt2EuJfkkAOaX7OIo8yMZD29KpmFoJS0Z3ZPOTzTnuJ1IDqD6DNZPyOtWtqacUaGHeyhT+VVYbsCQ5xtzjA5zVm4by7IZG0k9zxWFFdgO3HGfxpxV7kTnZnTXMSug3Dr2PQ1nX4x8oGDng/XIFUbuaV2BWVgvHVjj2piyXMgCocj1zzn61SWm5CnZ3sbkAMNucYPBIz+lVbubzdgOD6k1Gd9vbjHDHrmq0cu+NiccZPWkl1E3e5anlVodpO0EZBrBv0QMMHcPSpHvGeTYWwoGAaglClxjn6VpFWJltYrW6mK4U4DBTyPWt1oEj2EHaWAO3vWUuUkJA79xV4xzPJuA3MevPSuiD7nLVjtY1bSXAGD8wq80i7AxODWRbRXAIygwPQ1bMNw+C4A9hW6krHM4SbLLylozuI/GoFmfIKsRg5BHUGo2gnK4wNvY09IJMbSByOaOePcXJLse8/s03stzc3gkYMATyBjP3a9Y+J+tXOgaIt1auEmaQpkgH+Bz391FeS/szR+XLek8HJH8q9A+P43fD+9xOIJgHMec5ZvJk4BA4PU5Pp1FZ3uy7HHaR8StcvyQ17CNir8ypGN31z3+gq5qWlxfFL7TFrKAC2ZRGY5CnmKyNIQMcYVowR1zkgmvl5vEmrQW9uizBDt3h1XLthuNxP8Au/iOuc17V+zlqs/iG4vNPvnLCNo5xKp+Yn94MHORj5sYAGMCtbWIO6P7OPhS6ixHJIt02NiSSkMB6Ebj2FZ1nZv8GNQng0pVmV/JkeOcE4LMVYDBznB9+fXv69/wjdsVC+fcEDkDeMD9K8Z/aCSTwnZrdWCmbzUUSCcAg4fAIxgk8j9D0FK99BncaV8Xrt7OS8vtNENrHIqSS7iEjGRz93rzjH0/HjNRMPxdmLapCq/MbOJk3FmABcNkFR1J/h/Gvn6z+I2u2ksq+ckltJ/rLV0DRsePXkcgHg9RXsv7PF83ii5uYLlREYphIpi90K96rYRsN+zl4auY5Jf7UuInMJl2vgsWy2VznrwPfmq3hjST8I9YuTpBlvS9uZmS4wobaQOMcnhj+Ir3E+EYjyLhx9VFeX/GWyu/A+nN4itHe8ltwsaxp+7MYZh8+RnptJ5Hf2pXuBd0r4/XF0Jln0VfMXo8U5KjI4yNvrx15rH8S+OD8TLC60i5tktrfZ9ojljcluCowc98N+Yrwm1+LM9pqAvYNN2XBTZu+0Z7YzynPAH+cY6L4beNW17xabeW28k3cbRlw+Qp4wcACqEdI37N2nHONXuV9PkXj9KY/wADbfwqDrEGpyzPZ/vViZFw2Oo4HpX0KPB7Ngi8BB/6Z/8A16oa/wCB5bjRr2P7ShVoj/AR2qbiOFl/aDm0aU2R0wSiABA3QkAf71MH7S8hJ3aMuO21v/r14F4n8XwJrVwDbyg/L6f3R71mr4wtQeYZ8fRf8aq1gse0a58MIPizqRvE1EaWqp54MzBgRJzt6dRx37VkS/svRjThcDxAm/ODDsywPPPbjpXo/wAGLJ/EvhmG9tnVVMMaFZThgRu9Mj0ru7nwldjjzYPpub/ClcRwHwF+GkvgPWrotqC3KSL5mFjOQQNvX/gXpXu+qSb4Iz3BxXI6Do8mjXL3Vy8ZjCFSEJJHIOeg9K6Se4jubPdE+4K2Mio6gcz45jD2yksAuAeTx2/wrzHxMbe0ttySqCyt9xvavTvHyCTQ1x6Ln868f8U2qLDa7jsB3D2J44P5UmikfPHie7gk1yeQPnBxnOeaoxX4yFJPTkg9KoeIbuI61eGN98Yc4K9M+lY9xeSSMgA4TPbFYOnzM6VKxuXd5BEJGClsE98VRubyWaF8xZ/ulP8AOe1ZxuXOTjAPZuc0ouyIirLVqnYOe5txx32m2RmSaKTc6ZC8Ngfd7A+uc9OK6zwDrcljZvuR3QTEMkAGdrIx46Z5wPx9q83WaWbIVm2jkgZwO2f1r0/4S2e3fJOVKNIGYuPlVfmBz+VbLc557Gj4sdvsoliQnBAZWJyAe4B+lb/7Md0B+018JAckv4u0jocY/wBMhqjfWxi0yRJ42W6aX96OB04HT2H+RW3+zdCB+0/8JiqEY8WaRk/9vsVZznsmXTh5n9B9fM37dKlvB3hXb1Gqn/0U1fTNfNH7cqlvCPhMA4B1Y/8Aopq3ewM+X7FSrkjvWg2Qnt61Qt+HPrV1/uViSZl82G5qluxXJ/EnxTc6Df232XLkrgoHwM4PUYPavHtJ+K2v20LsJFlaTOPtDtME5HTJwOn600nYLH0b5gxk9Kjlu4lQkyKoHUswrwmPx9ruvxAT30CNGxISOEA9Mc88jn86qeI9V8QyeGryeO4tore0jZnnS2jBUsG27skZHGOeOmccUWAw/jbY33iwTxW1jLcyQXeUWyhMmY13gvhQSeGGT7jpXjsvw78QOYDbaNqMzPGWYfZWBHzEY/QfnX1p8LtItbmW0vZ41kuLuxWWSVDs3blXPCnAHJHBxiuv1PRrSO/VbWOOMpHg5J7n/wCvWjaWiRN2z4df4e+JIwqyaLdwnPHmR7c47c1o6N4I16xuYppdPeKOJhI7NIvCg5PevsC80qKOYCe3jd8ZDMmcj15/zxVHXNIjt/D9/cixwqwkjbbjkHjOcdOck9hzTUvIDU8M+IrPTY2W4kKM6hhhWYY4GeB7itIfEfRGuFt0u0eYtt2EhTnv1Ix/SvnvVJ5JTbgyudqZ+915P51JoRZr8MCQACWHqOn8yKgdj3fVfipoeklw93FKYyVYJMnB6evNc9qfxg0TV7V7SG6lgeT5fNgfc6Y56Dntj8a8+mgtbm/5gCzgHdJsGWHGMnrj/A+lZVhp8Fnf2aRjbJHdKpwMFh64+vf3qkkxbG9qHwMX4jXtrqbatfWs9nH5Dtc23nFhksip8wKouWx1Gc9M1neIP2W7eSSF5dbuZhtwWFuqjPXuxr3HQmFnNqNmmW+cKxUYwASM9/8A61aslu9+uxVYRl8LlOFGO7d+nX3/AAouwufLg/ZmRZ2H2u6kjz97cgz+lQap8ErXwzLC8dzcRE5KyzXCHBBAzgL7/wD66+mJNKRb0xecvlDOZFOcH+7/AL3t6VwHxXkhl05Wto9kMUiKSDkH5ickdDzgc/1xTUmJ6mfY+P4vBXh+wisJJJp1RIJWuhv3EL2xjuOuaSP43a3MdotvNdh8qRR7D0J5BJri7Vo9VkNuwRgsjsC3fDEcf56ciltZktNTVxhoxIVBzjA5Gc0tAPVB8UplgC3GnXW4BSZUvlGT3428D864bx58YdU0u0a4tFu1HmkwmO5bBA25BIXjG7qcZ7VBPq1lcssXnDY4IJ2nrxjnt3rnvFMtvIscMcgeMg7sZYHjkEnIwRjp7+9UgPSfAMNt4ov7W/v4RIksjIbNtrxY5IBGOcZ/SvULrwBobCZrfTbWB2UgBLaIqODwAVOK8w+HV0NM0i2mkjKhLjJCLgnOPp616vceJoQEECueCSSQMHHQg/j09O4pPcm5zNn4Wto4CkVqI16KyQBdx6dgB2rH8W+G4bSGacpM9wAqoxz3Ppj6+2a9A0yaF2hEMUjj1SQsqk9c5PTr/hmsv4hvAuhajIssDTpCF8kgtIfmB4G4Y69cceuKVhnzhNDbWFst3ao0LbkwS5yQWA9ff9Kuy+I9VmREbUrwxxjEaGdiqDHQDPFZElyLzSfIDqZlZABkZIDA5x7Y/So5bqSO5eLyt+1iow2D9eaBncaV4k1i9sJ47jXNQkEjFCGuScjAyMd85rlta07U7aOR2v7h4snD+c2Rk8ZHb0rT8E2smvvPEmyGSAGbbJKV8zH8K8ctxnHselad9awakbixNwhlAzgMNwI7bfXJAx70ri2Pm7Ury4GtOz3ExIdM58xPTqrHP519dfCOchdJOcnawJIySdpHWvnXx3o9t/bVyQ0CMsiqVEy44A6MoIwevfrnJzmvevhZdGG104qwnaOcIwt8sMZAJ9ehzVN6Az3GVjt6MxIOBXNJowkjd5GaKT/nmIyzn8OOPfpW02oeaWj+xXMkfQlosKw7/eIP6VQn+0i3Ii0wRSEZUwS7ecgckBeMfXoKE7Inqc5rVsbYQZSRWO4EOuBxjp/+us2P5Du5yDnmtm70vVtQlHmRylV4QSvnH+eOcc0kfhW/YYZIxnvvoGd/ZkNsOe1ain5PqKxrENHGivgMBg4rYjPyDvwKzEY+pgCT8aqA/wCjsPQ1d1MZk6d6orkxyAZ9aoOhyPiVMSZ5OWPJr0H9j19v7TPhJOpKXn4f6JNXB+JhxyPf9a779kGI/wDDS/g2QDjZegn0/wBEmpta3LifppRRRVGwUUUUAFFFFABRRRQAUUUUAFFFFABRRRQAUUUUAFFFFABRRRQAUUUUAFFFFABRRRQAUUUUAFFFFABRRRQAUUUUAFFFFABRRRQAUUUUAFFFFABRRRQAV8rft4HGk+D/AF865H6RV9U18qft5kDSfB3/AF2uuP8AgMVJ7CZ8jKRjHvU8b8deaqK3TPT0qxGxAPYDuKyJsWFfjvjtT1bv3quD14609T0piLIPryKeHx/9eq+7PanqaZLJS2DnFO3VFu7UZwelAiQtg4ppYHNNBJ6dKcEI/wAKG7FJXELccCkI45p4Xg0juqLuPFZudi1DuM2c1DcTx26F2I4qhqXiCOFvKhDTTHokXzN+lQx6RNfbZdQf5c7vIBx9M81hKVzeMLCJrMuozNFbRlI1OHnb7o+nqas6mvl2QVn3kMMk9agvbqOFTDAI1KjvwkY9T6VRvpZINP3yZaPOeQAz4/i9h0/CspbG0dHocp8RLtZTHHEuwCLkNz2P515vPP8A8tHkSNAuQzAHA74Gck133xTf+x9OS6+8skZBDqVxlTkZOOcZ46g4zXil34oWS2MIKhQ2Wj2k5x/nH/6q4pxcpbHfSnyx3NzTtdzC0joisP3ihhnA56/pxWQdRaW7AlbeZHLMx9WJJ/nVCXUVeCMnajMAyqB0I/z+lVoZpD+8Xsc9quyR10ZW33Oi125jEKqNyuG6g/h65rktdYy2LlnGdwC5P19auapPLPK3DHbyc89PWsbWSf7NkBUvzk57c/8A66umtjpqNOg5R3seeXOS5J55NWNOYrOpBIIPUVXkimllPloWAOOBVmwjKzDdgc813S0R8xHVnQm4khcqMuewx1pJHlIDM20+mM1Tublo7rMabj6H6CpYnknlDMuAByD1rktZXPQi+bS+xNfyN9mCFuc5rMtAGmC4DAnJ5xWrfrug5IIB7/lVCzeKNsEAk+/Ipp2RE4pq4XELG6G3cIwehPsK0oXKxhRg1hXd6wujtkIUHkDv0qzFeXFwAsMTNjuOaJRbSM4tXZqTzgJzkk8VltMlvFLs7jqTVlNJvbhcMdme7Vag8MxIhMjNIxH0FXFJLVibuzkI53lm6FuuOK07fTruY5EQXPduK6yGxhhiWOKAKwOSQOtW1s5HxkYHaqc10Qkn1Oct9AG8NLKzEc4HArYhsdgwFArVh00cFuT6VbSzxwAMfSs+crluZUdo3BwPxqYWbN1/QVppZkNx0+lTJa/N059KOdi5UYzWBPenDTt67fSt5bTj0NTRWa/3frS52PlRtfCzxMfBUlzK9rJcxO2f3RG4evX6V0vjf4vaLr2lm31fQ7+WzSUMfKKhgSCufyb9a4+xnOmsWMZkjPOF61Yu9Yt7xHjnsXaFiO+Cfy9/etFUsZSpJsofZfhPewhxHqNiwP3bibBJ57DPt+ddX8MtR8AeFtYeXTtQkR5IvnE0u7kMMds9656Kw0G4b5o/JJ/vZ4/Gr1npOh2cxlikRmIK8sCOo/wFa+301IdHse7weN9Fmbi+THB3YOPzrD8daR4S8faesOoa5FbxxKy7klAPOOxI549+teeIbBkKmSLa3GNw5qrqXhrStXtvL+VSG3bkOecY/rSVZC9j5kdx+zz4UfTBdweIbh98m2Ncx8D39fw9a6z4R/DvSvBGs3Dwau04eMMRLtGCCOP1rza6+E9pMcreyp6DDcD/AL6pdG+FMNhcmU37zKVK7SpGOQc9T6Vp7ZWI9kz6vhv7WX5UnRz1+Vga5/4h+AIPiLoP9nNdG3IYkOOmCMHsa8btfDK2keEu3Q9d2a2YdV1/T9Le0ttWMqNgL5+GAAOccg/pQqsROkzzmX9mlmc+XrEe3PBZDWv4I+A914c8U2N7/advKiyqCoQ5wTWodQ8a+fvXULBo+yFMZ/HaaVvEnjeC6hlQ6cESQM20HOAc8ZHoKv2se5DpyXQ+iILdljRSwJUAZ6ZqSWzN1DJGXADoVznpkYrxS2+J/iyP/Xx20uCB0AJ/IVLJ8YvEMYJGkwvg9QSMn8jRzx7kcjPJfGX7Pet3XiC6e2mtSm8r8zBTkE+5rBP7O3ikHg2TDrzN/wDWr0W/+Kfik307v4cinVnLbkk2jk54yfTNRL8ZNUVgJvCkqDocXSmtOe/UXKz1D4BeFdQ8LeFmtb8RCRH2fu23dAPb616RLGXfFeH+Fvj1bWEdwl5oVxCCQw/e5ycc4wtbT/tE6LtyNMut2OVzSuLlPWxZbY2LdMdCKglKi0Pl42A4Xb0rhvDPxi0HXoHe6zppXKskzZx+mOf8fSqeu/G7w/p8M1vbMJVXO0xHKt75A/zmkFmdR4wG/Qc99teWa9F9q0yJR2lDN9MH+pFbMfxHPijQ5FjgCRFQyuTzz26e1YDXRe3dNwO4Y561VnbQm9j5f13w7b2WoPCjFY0OAAM7c5IHXkc1mNo6qu4E7RxgnmvVvGnhC7vNWupYIV2bBIdiHGcY7ZJPA468muTs9EleRYzGyyYGVY/MD15x09fxrnk5I6VyyOettEQuocL0zzxVk+H0uYnbbsJHBAwa6IaPNDLKsifMmVPGM9QcVLFprC2WZQfKLEAnOD/nNZubLUUcLJp32S6VVxscFWOM56Y/X+Vd94Ng8nRrrBMagbd/UDIP/wBeqd1oMYmDFCJMEZHGc9BXY+EdJX7HNGwGyRwvP0NawlzSRnUjaOpHrk8cOnThVXckgHLglmOGJxnPfqcdc/XX/ZjnW4/aU+FDZznxbpJ5GP8Al8hrG8Tw/wChj5hu9O9aP7Mg8v8Aaa+E6OpXPi7SCSD3+2Q8fTNKrFp/MqjK6sz+hWvmr9uHnwp4T64/tVun/XF6+la+a/23+PCnhM/9RVv/AES9db2M2fLcDDcR71dLfuqzrf7xx096vN9wd/esBPc8e+L8pgv7ZiRyoILH7v3s9fp7da+do7yWGFUX5cZOSOuSf0r3n48RJcNbxvcS2qGMs7wDLsPmGAOcnJHGDnpg18YXtxKyKftE0iMo/wBYefQ9zkZyAe+OgrSGqEewaL4pSK6aNbm2kmwV2M43cdeAfb9K1X8TMolEt3D5cqtGVkIAUMCM8YPGc/hznpXz+7kdCRVi3bzHAIBFXYPU+3vAuslLbSPs8bXbLYBC0akr1z1A5xwPzr0jT5XZppHi2ZIPmlSC/HIC4B46Z78da84+CsXl+CvC0nyjzLJhx1yGzz+BH5V6huyOah7krYyJNT1GW/KpZyi3G4BtnX0PP0/X8awfiLbX9z4XkgtrTcrSeZINwHG7OCCwGckHqenToK7QtzWP4p859EuUt93msABsBJ6jPHfjNID5Q8Y65baRqMMU8zwuQR8sbElwSCAQOeKxrfxxptvMjS30yqDn/VSZz27euKZ8ZbCbTtUiNxIzSSbmWFkG2EbduM85JwSRwVyvtnzi6BjSNmDAuWxn+LheR61dij1f/ha2mxEzR3U7zMApPlEgjHfIHPQUaN8Rra51m3OyWUNKrN8oGDknj868hGXI4IHvW14YzHqtsckkyAdKqK1Ez7p8MWkmvXN7emYRLcbZUTGcA7iORjpXRyaAZozvuMysgTcE7Yx9TwPWsfwDLD9n/cnMZt4sfXHP4ZzXV7+etQSY0Xh2W3VVS/OBz/qQf51zHjbwVDN4bvQ97IAArZCgdGBrvieKzdcsF1XTLi3Z2QMp+ZDgg/1pAfHXxD1a48FPBDZ+VPFM7pulUhwRhiQQcHO4Vz0HifVI9D/tIJbIgk+SMoxB5xuyH9cjp2rsvjZojrodncPdiTzbzc0ceX8kCNwxdRzyQACR1PUAk1wZczeBrr91GgEitiJsY+58uBxnnJBOeR6VaGV5/ibrEq829kuDkbY34/8AH6iT4g6velUcWoAO75ITk9e5Jrm/IbY5PPqSMYp9ugiZSccdafUo+oPg5qc2u6WqX2yREYOAg24PyjPFfQS+HdNXH+jLn3Zv8a+ZvgLdk6ewznEZ/Qj/AAr6nST5VJ9O9S9zIjk020mjiRreMrGDsGOmain023MTiO3j37SFOMYPbsf5GrYfIppcHocUrgeI63ZRWljcmOxjIjDLI3l8Rt0wTjg89Ov0r5nl09r74gXNqy+dEtxK7RkkIFALDJJ6Djr9K+0/G4itLSNltHmglnLXC2qkyHglSApBzu2ncGB+XvnFfKPjLw3cWnxLmv7fR7y10qd2a2MsZOR5WCepPUnrVRW5V7GH4+0iPTtIsPKgESM0pcCMouSqcY6Z4rzsp1UKCBkEcYx6V6f4ztr/AFLToAbK6mlEjFnEbHg4AGMcY5/OuJHhvVHOU0m9Oe4tmquhVupnRRpGNoQAAYwK+qfgFOGt2bOcXETD6HFfNa+GtXGSNJvdp6HyG5r3j4E6ollHPbyl4pojFvRlOVIGDmk9iHa59TDngUBgR3xmsvT/ABBY6o+y0ukuXxkiM5x65x0/GpItat5BmNJ5lzjMcDMP5VCIZoZxzQD83bNYF3410uzZxK8qMmQwKYII65qnbfEnQrq5SFLltzsFBKcZoA7OBsSL9a04WygPtXOadrNpe3Hlwzh5M5wB24roIDlBjikxmdq/3hz+FUUbCPkYz2rQ1PnOc1nDJ3AcnrmgZzXif7nHIAr0L9j5Cf2i/CDYzgXnP/bpNXn3iQnyZMAn3r0X9jgBv2hPCuRyBdkZ/wCvSamVE/SqiiirNgooooAKKKKACiiigAooooAKKKKACiiigAooooAKKKKACiiigAooooAKKKKACiiigAooooAKKKKACiiigAooooAKKKKACiiigAooooAKKKKACiiigAr5R/b2P/Eq8Gj/AKbXX8oq+rq+UP2+DjSvBp/6bXX/AKDFUy2A+QUf34qeNsCqqHmp4z1J6AZ57VmTYshsDP8AKnKfT0quJATwQw9jmpI8sfT1piZOG4z0NSK26o1iJqeOMZwf0pXSBRbFVSSKkWPFKOuBxSn1BGetQ5FqKQuB6fnS9ATnpUbyqikk4A7mqE95LNBIygxxgZEjYH8z/Os3I1USzcXqW6E9McA5rNK3eqtgEwxjI3g/5/Tj345uQaNESsk6BnXnax3fmT1P/wBarN1dRWcBJKoijk9AKyvfYuyWrK1pp1tpaDYoMuMFz941Sv793YImVUkKZQvc9l9T+lRvetqLDy42mjIBVVbG/PQn/Z/n2B76NvaCEb5PnlI+8w4H09P89aTdirX3KlnpgwrTJgdRETnB9WPc9PpVq6uIoIt0rBQOme3+eKrarrUGmxsC25yPuiuE1jXJbvexc4zwMnHXvWMpG0Y3HeP9Ts9S06WKdA0KgjcRzzxxivAtV8ORoHe2xlzwMYxivT9Xka/t2ikJVTjhT+lc/LpRhD4y/HfqBWPMzaKSPMLmzuIwgaF0AGCw6YqaB3jVcSbxn5l6Gu/e1jmwrRqTjBDLz1qtdeGba4h27Ame4A496G01ZlptHLNctgsBvUnDMQM+v+fpVLWmRtPC7cMCeQP51vz+DJrZ3MErYIKso6H/AAqnLpEpEcV1bkgk7nA4AxRF8sk0a87lTcXoeUXl+LKV1VAeaNLlMs7O58sE9M10+t+FbSC6chn2sec9agtNFY5W2tmfH8TjFdjnFrQ85RaZhXkxiu2OQc9xz2FOiu8OzbuO1bY8H3E8zSXLFc/wrWpZ+EYbZcmME+rc0m42sWrp3Ryks1zdJshiZh0z0qe08N3UgBlYR9/U12sengDasftwKsxaO7DldvOeajmtsVq9zj7fw1DDIS2ZGzk5FbMFsVUJHFgdOBXSx6Gi8sAT781YXThHwAAPUVLlcXLY56LT5XU/LjNWYtHP8QLfWt9LFlGMVMtrjrjFTzFWMRdPC/wgDNTJaeg+ta32b5gMVKtmADx19TU3HYyRaHP3cVOlqVPTmtT7PjnqaeIB7fhzQOxlrbkdFzUqWvcjn0rTW2XHINSC1XBJouFjMFr6D9KmjtNn3RV37MB0HFIsIQcHFFxdSD7OQDxk0fZ8dVBH0q35WOvQHHNIsWQMHjrQFiqtsjdVGfpUq2cPZBn6VKbcnJ3flUnk4B5PucUAMEC4G4AVG1nCQP3a/gKmI2461JGgZOePrRcNDPa1YcrI6euGpEguFOFuJF+jmtD5eP60oITkD689Kq7IsQwwyxLxO2TznNXrbUby0DFytyDz85wR+VQ+bnAx+maXIYcildjsWB4gud/FrHt7gyf1xSS6/cAZFiuO+Zf/AK1VgyqeKaZMnGCKrmZLQ4eIbhCM2SKP+unJ9O1D+JQPm+yEn/f/APrVXYAf/r6VXccgEdaOYycS5/wlUG0B7RwD2Ug/4U0+ItNk5a2kB6cqP8aqG3WTnHHtzTP7PjB5TI9KfNYaiXhqWjynkMvb7hzTCmhs33ySeg8tsn9Krf2fH/dK/jUi2CrggkHHH1p84ctxbfStK1KR0Rm3KM4ZcYHqKr3+g6baRYMgGQeAKc+mIcd/r0praXsGOp+lNTYuVFjSNSXTNM8m3jEqAFGbkY6/40HUwyhiGAB/hG4D8s1HbBbWNlIOCdxOPwokWNvnxnHBIHNdMKzWhzSoxZLPdG7iIBJDHnHUc/8A1qjMcSq0qxIHPChhnnpn9aiBEhDbSW/+tmpDAVULuIKkkB+cnr1P+eldUZ826OWULPRkF3o1syyBk8ySXjc3T1/PrWDJ4TU5GTKrLJhEYKQeq9sYyCOo4NdO2nySRlJCc5GHjcqe57e+OPrUM2mkXIlEzKQQSM5HTHI7/wD1utTKKlshqTg9WcbY6fNO0qtHnoVUDjB6V2Gi6ayBVViGGQccfNzUfmxac7lwF3AYYkncByOOnB9qp3/iCCSOSKNdzzfLg5I9846j2zj8KiFJRd2VKo5KyKGuW5jil34Zw5XHp04/TP410v7NWmCT9o34VyMAdvizSmBHUEXcXFcHe6xLNcyx7isTPkqWLDPAJBJz2Felfsznb+0J8LPmyD4p0r/0ri70VXe1iqK3P3rr5n/blk8vwj4TP/UVb/0S9fTFfM37dA3eEfCf/YVb/wBEvXQ9imfK1pLkjg547Vob/kPSsy04PfitHcNn4d6wE0eOfHDT7i7FkI7Y3NtMr286noUKtxxyOvUEV8n6j8JfFGlR75dFuIoHP7h3KDzB6/e6Ywfxr701aG3uGAuESVAeFdA2T9KzZ7G01KFomtELBNiGSAfJwQMEjt7VcZWVhM+E4vhr4jlcD+znJPbenX/vqtZfg54qswryackQPPNxHk++ASa+uF0XyQ7yW6xxp95woIH+P4Vck0GQAuXiEW3iXOFxg4P0/PrT5g3OH+Fesf8ACL+CdJm1TMUFrG1uXXaRkMenOT35rsF+MXh99pSS4lDdCkYwfxJFeKa/uvdLvFYFArkohZiEGc4GcfyFZi2EdrtiKxuUAB2gcnv+uae7uJdj6VtfG+lXtkLmG8gYd43njRx6jlscc9+1U77x/pUapHJLGplO1HFzC4z2ztY14pok9vaWrIXihy5O3gdhzTtWW0lto3je3LNIAQuxmJwecE+3WhJN6hsXPF3gHXvideyWE00gaKbzTII12sFBTgA4PXrWV4q/Zxv/ADbMtfm4eRC0hMeCp4yOcfpxXuPhi6CeIJmYM58jaQuSeCvYk9Of6DtXUXNrHqbJvib5Bwz5BGfocdqd2tA16nydF+zjcF8PcS7OQSAg/rT7z4Ato0D3KXNxJ5Q3gs0YGew/z619JJpqG7mhe4iQRnG4nluOw7kdxWf428PH/hFbxEuDkAMJUjwRyO+f8fw6g5mK5xHhX4hJ4f0y2VrqBpmhEbI0MhIZR04GOvFdMfi3HMrm3kzFGQGmMBCtkDkbmHr0/wAnxNp1ENsHwjNu68c8cCl+0rE0atjDNjb6jvQFj1S2+Md/e27SLEAN3BWJcdPUtxUGr/Ga40i0kmuvNCBRnEC4ye2c1izNpFhpaxTXULyyKpAH3065BUfTueQwPHArhPHNz5+kXccCi5hwHWV8oUwcnAJwcAepzjj0ppA7Hox8DweN9WBktbBtM1MJKVMkm9hjgHB+XvwPb2rqfEHwB8LGwmS002C2jAGF82VuwAHLcDjtVP4Zz7rXQpOoKRgfTH+Feny3631u5iid0ycZXPmAf7PUjv26DntQ27ko8Xt/2f8AQbaHzLjSkMfDCRFYgg9Mk5/yahvvgjoMMPmJYxxRFsK2w5OR0z07HpXtcuo211K9jC25Qvl7UbGTxyD6ADtnPOR0zi+KbmS3tRaq6OhbOF4YAKMBgB6nP+FK7KuzwOzFl8O9WlltbOOdpmMce9SNoBz0PHRTwfU10sXxO1TU7lPNsreRAp+VnaPA6g/IRk/0ri/FsDP4mh2lzGJmOD8wJMRLHceQQeMZ7+wxUh1GGT5QX3HgArwfxzQL1PQtO8fa8budo7hJ7cAoLTkJEc8EEEOeh6setUtN1fVr26DhjJJM4SMPGcNkjDYUEnr7/jWdp9xDHF5ay/ZpGUOXccN2PJqtq2o3Wn30cNvLEyIwbcYkKuc7icEEEZ9ufTmgPQ43SfHusX3jya0nkhW1kkaJkizyu7jJ3Hn/APV2xX0d4D8N2MxujP5rqiqRvlOAMHNfLWi6RJH41juFcEPIWQcZz3z0Hv3J+tfUHhTX/wCzLuaBQC3loXZhn8hkZ6+tUDOpk8N6LeBle1Q2458wyPg/jnA6jvWddeDrO1jka3ti1nIMBRIzYXk568L1Ofeugg1OPUmjaKN5nRh98DA5HPBwOvXk1Bd+IoFmUR3S4R/nAICkdMA4JPOOg6ZqSbs4LVdG03SmZ5baK3CLlvO4C/XNeQnW45vF8k+nu0ERZlXaNgYZGSR19fzr0f4oagl6k7odiMpxH8vTBAJ5z069q8r0XTlOsWZErkOSDsQyZcnheox1Xv8AT0BsN9zVs764hnKiaQoXYEMcjknnnp9a1tGdra2kL7oQXbawJHGBk5HTvWTAsUOsC1adOTtLg/ITkcZz05HPb0NWdG1COK0ay2LchgWWWSXCquAMY5/yaYDfEmmMbWe5VnkKDOPMOcZ5781wdntbVoG5YfaFOdxP8VdLrvii2u4pYdPvYbhSpEhhuFlAzk++B1/L2rjre8hhkDGVFKtuPzgd6LsasfUnwzm3NYEnJKsCfwP+FevWx+T3zXiPwzvEkWyZGVgJHU7TkfxV7XatlDg96zJK2pjK+lZkJAcjnGOla2pAGPPWsiHl/wAKoZheIhmA44+WvQP2OP8Ak4Xwt/u3f/pLNXA+IFzbeny8mu+/Y5/5OG8LD0W7/wDSWagEfpVRRRVm4UUUUAFFFFABRRRQAUUUUAFFFFABRRRQAUUUUAFFFFABRRRQAUUUUAFFFFABRRRQAUUUUAFFFFABRRRQAUUUUAFFFFABRRRQAUUUUAFFFFABRRRQAV8nft9Af2T4MPpNdfyir6xr5S/b1jMmkeDsDpPcn/x2OplsB8coS5wBUkkBaM7vTNSxAKDxtP8AKrMMYcFzj0/CsOYOUyEZ0BiUE/NnI69a2oY8Op6Y5/Cs+7iWGeMg7cnliBgGr8KudruzJuAJGM/561Ny7XLaHcPUe1SId2ccnNJawMuHOMZwBRNIturcbmAyFXqfpUORfKx6LhuemM1XuL1V8zbhmU4AJwKgluLiOVotgeQruAXgAZx19qntNLjKxtLl2BLjB2hT07HnOc5OahstRIIIxfM8qorlRtG9sgHv647dqvRWiwkEkEBemPfJOTU8hCZyeB3NYOs681qkgRCxHyqikbmbGQAD+Hf1zjFQrsb0NG8vlhBC5Y4JwvJrGuLVtbiKRvhe5dMqDnpjIyRgjHQHr0wbWiWlxPGH1FES6OdyJ8yjIHAOB7jOM9emcVdZfswA2pHCM/MSBz2xQ3bYaV9yOCCGyjCIQoHzMxPU+tZOu+IRaBliBkPUlBmk1vXfLOIG3KUww25wT/n9K47UtSBdwwDE9WBxj/PFYSkapCajqT3GZJBtY9j2rEuG81wcYP8AKp583IznPGMHpn86akBjfsfoKxZqis9nuYnkZprWeOMZx7VddWbOM4HOQMU8R8egHJGDSLMk6WkuFZMg+1Mm0Xag8rIIzweRWyoJYnJwKcykKN2RikM5p7W5iB3RgqfQZNRyQpdAIAA5HccjiuhfazMD1znkGq81rE5DFck9/wD69MSdtDjbrQ41mcMqBVzye3+FUPsKFsRqXPYLXX39ilwQSpJHzYyeajjsY06RhQPaquRY5P8AsaSRsthQTzmlfTNrBREZCf4ug64rrGtQ3y7entmoZIgGEaklhzg+lO7FymFBpgUfdIA9qcbDDcDIrdFqAg4yB6imNb5GQvbnii5VjHSz3H7pI+lSmyweE461pR2zbiDjHt+tTfZiTgcEmkFjK+zALjaf8aiNsw/hPB+tbEsGFOD+BqAoeRwadwKMdsehXn6U9YCMAAn6VfSLuMZpRESen0H4UDKAt2zwCfwNOCEc7T+NaBiZTggUeUCc4yfegDPEbBTxTgjsDkHHtV/y8Z4+lBUAZPT3+tAGc6sBjaaiFvI5B28delaXlDgdDScFuvsKBFaKBxwwOPTFI6sr4A69yKuDDcDr09aDDzk9qA8ynh1z8uenSmyhypwp3Y+laIjUqCc49OaY6qozk9KZJmRNIS24ZPX6VPHGzdQcZqyEU4OM/h0oU84PBz6UAQYycBSfUU/aAoJHapmjGOMDNOaIhSewoFYqEjuDx3pwyByCM1KY9o4H50iJzyMe1MSIsAY4Jz2PekYDj5fxAqw0QL5B4HXim+UG/Ad+tAMqtuwODTHTcPcHAq5tHf064qNoxtJ/lRcllI27KwO5ufQmgEnpkip3I/uAjnoaYAC3QE9+e9MjYFU9dvtUgXIxj+dNeMFTjGDxyaWPchAJ9utAhQpHY/UU0nJwRz+FPAIznoOhFM8zL44yOmTzQMJIgqZC/Ujmq8lsshxIisP9pQasbyFU4z6d/wBKilY46gnvQDJ001TGpBxn+IHJFZd7rNvZ3LxtlpVO0sRjJ9v8962be6UxKpyCFx7fielcB4pf/ib3G2UM5JIUDJP5V6sNIqx5s9ZO5dvvFkgIEKGNjjBwP/r/AOf0x7jW72dnMj8BcblxWUWdy4IZTnqTjI9AO/X9KsPbz3kilRhSOTjOT6c9ulNyS1bJ5b7Ill1S4ukDAebKBjczc4/wqo16wWQEZZuBsPv6j64rRXSpiAxYnkBQSD1J/wAD+VaUPhwAsZD8xHOe5/CspVktjRUnc5Fba5mG9Ym2g9etexfsyWMi/tBfCwuGBXxTpZP/AIFx1zUWnLChQICGGM4/z616N+zpD/xkD8NDjH/FUaYcHn/l6irndXnaOiNOy0P3Lr5o/blB/wCER8J4/wCgq3/ol6+l6+af248f8Ij4Uz/0FG/9EvXpPYyPlCzfdkEY5q4xGzrVC0J3fWrzE7OlYEnOeI2uRCrWmTKHGQoB4wexrNe81KSCMRWk4l3733MuCB/COeh/Ct+6Pz+9VQ/zcVXkBlK2pqE22IZ0xtZ2A247AAj/APVxVPU7PWr+xnhkj3eYpGQY89OBzx+Y+tdMr/jQ7EoQDtJGMjqKdxHyt4q1M+GbG9juotyrJ8wWRdwBfbgY+UkA54OPSuYl8c272Ed0hnWMsY/3iqzFhzzgnH411Px10ie4tL9oj5psr4tKZG/ebPmXd78lc49c9M147LuPhqFWywW8IHsNmcD8c/rVx1F1Ovi+I2lxRnfHcPKW3ZWIdPxIq3F8RdJmRUS3ufNEisCyKOOc9G9x+VeXujFuhz3x0q1YqyTB8AHIxnpTtqB9t+DRdarrBvrSRVtZo3ISUkN1AP3eeo9a9Dmivw0Zgli4TaxkByx4546fh6/SuD+FtzHLZ6fIjsxMDBi3TO49PwxXowb3qG7MDHXRbx5N89xDL/slSB+OMfWsvxvYX15pjZu4VJIVU2HaCe+M8nHqf8D1ZcYFU9SthfQeUX2LuBOOpA7df55ouDPjr4oak/hGexhWNJvMaUFySAGGO3pXFp42vPscs/kW52SxrgBujbj69flr1T9oO1j1rRI7gG3E2nXLbHtn4dW2hkZSMgg4IYEqcEAdx4la27HRb4ENkSxHGP8AfH9atajRvn4m3ahQllbnbgfMzE4/DFKvxT1C6g+zvZWpQEsrAsCOc+tcaIZHY9amt4SuD29DzQt9hH1p8Kbk+K9D0r7T+4WN4yPK7k59a9lXwpZAYMs5/Ef4V4V8ApydDtPVWi6/U19EhgAOlJ6MkzY/DdtbuWimuUY8ZWUgkfhUM3hbT5CxdZXZiSxaQkmtneMdajZxjrn6UrgzxTxXouk6b4ovC3mKqoHSZx5jhyQCEGcEAEjBx0PUgZ+df7YvLTx1e2D3m+ytbmVQoQDKqSFw23I5wecelfVfxW+x2XlzSWiyzyFdsrJu5GRtOSMDv9R05yPl28tEs/Ft590yC9NwcRgAKzAhc89MEAH/ABppFGd4t8TanpWtzi2vWWNkQ9VkHTtkfXpWRJ4+8QTvmS/ycf8APGMfyWrvj6RbnUYZFAUFOh2nv7AY/KuW2gHJZQMdzVW0A6TQ/E+prq1szXeSXx/q17g+1fYXwvih1S0hnuYklnkt8s7DrgivifSMf2ha4IP7wHr719m/By4D6VY47wEEenINJ7Es9OTTbNSNtvED/uipPskCgYhQf8BFKrYPek3ccnAzUInUyte0pL1IY1RFVyUPHfacYHT1rw34t+ANWstJS9tAtxYROj3qSSBGmi3jMYxkjJ25IPr0HB+hHEcqFZFDqeoOCK868a7vCEwnsEB06cq9xZxp8nyuDxj7u4fKRjBBxg8CmvIEz5T8MWunzvFctaWv2jzg7JIhUIobjnoPquPfnky/F5ra5GnXVr5azMjLOkS4QHIwR1HTA69s4FaHi66hvviDqM+naaum2zqgW3gtysajagOCAOc57Cuf8WvdTafEixTvGsgOPLOCcH+ladbg72ODXnggkZ6mpkjUg/L1BOR3qc2Fw53C1nwO4ianJY3fGLO5b/tkaTKPqH4FXey0IAI2zhsfUD/Gvp6wYbcZr5F+BMzx20kbo6OoB2sCCPu19aac+R36DFZPcmxLqPMXXHP51iodsg4zxW5fjdDnj6msPpIuepp7AZWvLugbjJwcCu5/Y5GP2h/C/ptux/5Ky1w+tgm3bjPB+tdz+x2f+MifC49rv/0lmpopH6U0UUVZsFFFFABRRRQAUUUUAFFFFABRRRQAUUUUAFFFFABRRRQAUUUUAFFFFABRRRQAUUUUAFFFFABRRRQAUUUUAFFFFABRRRQAUUUUAFFFFABRRRQAUUUUAFfLv7dUiJoXhTeV/wBfcNg+gVM19RV8oft+ru8OeEyqb3We4bHquI8jrx2/Kon8I1ufJiyr9pdPLOQM/dAz9PzqwrRsqMFzv/gHofYVUt3urmWIGJkcZMgK/Kc9Me/H4c1qJYGETSy4YmM4iBxnHfPbqR+XNcrdjVRuyqLOKRPPnRAwbAIY4AyMHnjuOcfyp2kzWl1HHMzrHhXLKxOMEgg5PHTPeoNf14aZaRJdouyaVYWMbkiNSCTuOBjgHnjjntzhXcv/AAict1f3MsYtrhGjW3diZHTd1CnBO0Nz7ZrLmZqo2R1d1qKPCZITmFCB5o5DZPQYrNtbubUL94HsH8rzDH9qSYYUINwJAOQdxxj3781Q0m9sY4YZ7BzcRyuGV2iLKzMMbVbjackD5s4wenbqLD5rdZXh8iVlCsrct1PU9+SfzoemxPXUbJY+ZJn92+CoUMDkKfvA+uRmp5cRcqBjjOeOKS6uktIwzkAdSx6D6msi61W3ub+1sncvNcEskaHqoxlsg8D5h19fap82O9tESX+oWdvYSXdxIUtwDgqeW5xwOpPIGByScDkiorPRj5xuZ1XJ2skBXPlNjk57ntn2499JbVIoFjAGxcEEDAP1xwT/AIVmanqs1vJ5UUTlnBC4HzbsemPr69KUmOK6l271GGxhHmuFbOApbBz7fp+YriNY1kTk+U5AzkLkkk9ajuLqS8UeUSXyeRj9c9D0rHklEWQEy7cEgZ/L8v0rBybNkl0ZLcXrFCS2SRgr25rOcNK+5n5z13VKzAtgdjgEjn6UxnPO1ct6r/Ks2WtBkg4JAB9896cMcg8+wJqNlLMc4P178Uqxs56bgfUdakbJS4AY9c+lRM4JIHHHXH50PHhckYz7UwDAy2VY9P09KBj/ADyrdcgdiajaXzBnbjPqRUmM8kY4yc1CdqYxjjnjoKQ9bCFSxzg5PsfwqKaVYRlmx74NSSOUjwv3jxjHT6/571nXFuLplaTJCnIHTmmK5JM4dVA6EelERwCADgdcConBGDyMjrU1uPkAyffJ96AEmbaCfx56D/P9KrLt37wACf4jU88RZuML27YFRC3wRz17dKYAQSu3HAoCgA8dPWlP7vq3OetPVQUz17n0pA9CADyyOnI6jvUBuD54TjOM8HtmrE6gkg4BHPWm24XqDk+9O4LuDoSoPQn371CY+pP/AOqrMjDA6dKjUBgCQGPY/wCfxoAjRc5AXABxx/n/ADilQfveCSRkdepqXdjPAwOuPX1/nUCuzHoAR1HT2/rQGxNwcbiB70zJPAIC+9MWRyE+vFSlxvxg8cfSnsVoNzwcd+BTQu7gnce56Gn7iF9Md6jPyDI5yPWgkbIMgkgsfUHvTAxPUDNKzE7jjt1pqb/wzwMUCJYxtHXbj2xSPnp0x7ZpwBIzu55x7UFsDv1pgxqttI42jkcipSq4zwM9cHiq27PBH51JubI5zj86BClRng8HjGaaVAzx9BT8nHOWPemE/Q+2aAFVR1OPYGpFYHP88VGGyOOMdacpBOB175pidhjLj6H171E7soztI/HFWR86joff1qCYAHjn3oEwEpAOe/agHPsPSoD14Y49uc1Ivy9j+I60CvYVyCen4ZqMq3J9T0zTiwGMnn3qItjq3zAfnTE7ClCRycehzUHkncDkkdRUzHA7H2IppZlfJH1oJdhdpQcE596AwGBjHYk0rkEY6jtzTeikgnGfWgBC4c46Ad6jdV5Oceg70uSOMH8DSOPm5zn2NMNAJUDrke9RuduBkc8jmpOGHI6imyDKA5yO/IFK4aDAgKZz1HUHH+RWZq+nJM8byO2TnkYz+laKS7FJXG33HFV7vzLlFwFXYTnn6VvGdlYwlHW9jCbS4UUbeVxkZB54561PBHFFEwXAJHDAY49vyq4tickb8euKlt9OSMFR94/zpOY1Eo2yGS5jLZIU9ePXPT0rXVUI24AP5U63slU5Xll5OO1WEiGcnhSOCAT/AJ61m3c0USoImbgAEHGOOP8APNd5+z0gHx++GuflH/CT6Zjkf8/UeK49lCtwh29cnpXc/s/xsPj38MyVAP8AwkumfdP/AE9R5pr4kiT9t6+aP25Djwj4U/7Cb/8Aoh6+l6+av24l3eEPC47f2m+f+/L17EtjlPku1Jzg9jVxz8tULRsEY55q47ZTnisRM5zXtbh0u4hSbK+awUNkAD61x2ofFnRNMd0lNwzDcBtiO1iCRwf8+tJ8Yjn+zh1Icn9DXiN7O95Gsc/zBD36/wCf8+lUlfUTPYLT456LdyBFjmjPbzABn6d66GT4i6QLISLeQmbGTGWwq+xbH8s14PpYtkujJcGNFI5Mnc9v61u3OowGN1tsXSKpYlOAoAznB6/T2qmkMv8Aijw63xBmaaxE4i1pQfMVlCjGV5Bweqn8qxbz9nK6s9GihmlnRPO3Ep5eScH39h+Vem/D5haeC/CsKqIgbiYiPcSM+aSD6d/TvxXdale2xtTFdI8chwVQdTg9QccDr1wcdqq7WiITb3Pmm0/Zvlu7kIJ7kx9c5jzt9fanXP7OBs5XQz3h28gF4hx2zx6Yr6b03SY7eAyRS7nkUFZSo4HsPfP/AOqsLxdLbPp7hnXfsPmDk4UjJzjr+Bo52DPPfAfiW28LaJYme4bzoS8MqvGzKGLEjlR1xjv3rqtN+MNjdxN50bQSDPO0HoM9N3PP+R1ryKK8A0SOS4mVUa4YEtzg4yOB/j3rMW+gjcETISDwQetJ6sLHvb/EFrqz+0WO7aoJZZ4AO2eMOa5XV/jRe6bGSYAWXsYDz154PTiofCWq6ZZ6Zpl4t6iTrc7rhCSAEIXLHnBIwffn2rkfFYQy3EEUq3FvDK0KXCrgPggkg5/2f179aSWojoB4Qg+IFxDC1raSaZf5l3RyyRyEcsOhK9h0FPu/2ZtKtY7mMWpEEuw7lvHY8Hpjb15Ndt4RtI9KTw7ydssO/cy4x97P5DFdlrGq21valWKvK4OArZO05wQcYBIx9M98c3drYVzxK2/Zx8OT7RDpss4bPH2tlJxjOT+I/T3qtrn7NGladbxzJCsYZtuxriRscZ6/hXrGnX5juRKkaGUZILAd8+mPU9Kn8V6lDqH2dYScxlw2RjjjB/Q+9LmfcDyTwNb2XgPUtRsbiS6eKBY3hitmUgk5xktg4B/z673iz4u3lkz/AGBb2MBQyiZYScdyQCffpXEeN8nxLLKGYx42tj7oC7Rz+J+lYNxPG8Euxw3BB2nOMijcdjudK+LvibUrlRlmhC5bIVQODjkA88V01/8AFDUE0RGMJS4jO6RxKqkjngcY7jj2rxyxs9QQx3MFtOi9UkVCVPbPTHYj8DWpb65JqFq8Vw+0Bd3nAhPUfN69RwMdKBnQ2HxKvvGupz6MytDJCUk8+5jSTkAngZIx0PPrXf6F8LbHxDbLfXxgnud2Gl+zIpOPoAP0rxnwM8Fn4qEjiKJZI/mYgKwYKeM9+o49utfRHhjVre30cI8jRxzSOFmQE44HTv3H503voTqc34g+DegyS24khjWRhjzHAAAH6d6zI/gdoe/ankvGerRqDj8cV6S2pwTIUN9IyKuAI4WDH0yWyCffj8KyrvV4ZYPssMeIcjdJK4LsByfXvjp6UtRWPFPF3wb0e1u5Lwf6qNcnBwcAZ47dOe1UdI1VfCelTRWUKboXUW+WOSD13DODXoHjO6/cW4KnypX8gqcsSCOQPToR/nNcde+GZtSu5VtAFIKv8zKqAEjqTgLzwMnngUdNRle88Z63NbC4Z443b5sRggYOOvPv2ql/wmGteSJDcqC65VVYkn9ayoXDia1NwWKPsB3fK6g44BxwBzjvWroC20twYb2QRlAfJkPKxybgwyACemTwM/nQBg3vjXWJUZBKuSOGJc4P/fVN+GvjfVdcu7jTLuUC0uShcxM+4/e7sfUCjxVp9vbX88VvcC6RVX98qkKxwM4BAP6VlfCTSbqHxQHlj8hGKclwx4yPxJzzVJ6Ca7H094J8Iae2j72a4d9zByXzkZyOg5rauvBmi6jGLbbPziTYXKnHIzg/T+VY3gDXogt9DNJ5axSYVT/ET/8Aq/X2rpm8U262YdWH2kgHycMQPbOB2/X1qSdTlh4FsJLqWxi3Y3EBXmcKSPYd+P0rDuvB+mwXUsZgyUco37xiCQcV1NnqwtYblYkWASPvUYLNjsM+1ZdzP5880oXbvYuFLZxk560MoseCtPttO1Vo7ePyleJsjJPORXpmnn5Vxx8teb+GJdmtRDsysOfp/wDWr0XTiAF456VLFcu3ZLQYrDb5pB9cVu3P/HucVhsMSjHY44FAIztWUmBvTBBrt/2PVx+0T4ZwOgu//SWauQ1NQYn46V2n7IaY/aJ8NEdMXfb/AKdZqpFI/SKiiiqNgooooAKKKKACiiigAooooAKKKKACiiigAooooAKKKKACiiigAooooAKKKKACiiigAooooAKKKKACiiigAooooAKKKKACiiigAooooAKKKKACiiigAoorC8UeMbDwits18szC4LBPJUN0xnPI9aA2N2iuCPxo0AHBS8H1iX/4qgfGnQG6RXp/7Yj/AOKoJ5l3O9orgz8Z9AXql5/36X/4qmH42eHgceXe/wDfpf8A4qgOZdzv6K8+Pxw8Oj+C9/78j/4qo2+Ovhxf+Wd8fpCv/wAVQHMu56LRXnB+PPhsEfur85/6ZL/8VTT8fPDYGfJ1D/vyv/xVAcy7npNFea/8L+8Nf88dQ+vkr/8AF0w/tB+GB/yx1D/vyv8A8XTsHMu56bRXmX/DQnhj/njqP/flf/i6b/w0P4X/AOeOo/8Aflf/AIuiwcy7np9FeXn9onwuP+WOo/8AflP/AIuj/honwt/zx1H/AL8L/wDF0g5o9z1CivLT+0X4W/546kfpAv8A8XSH9o3wr/zx1I/9sF/+LoDmXc9Toryz/ho7wr/zx1L/AL8L/wDF0n/DR/hX/njqR+kC/wDxdAcy7nqlFeV/8NIeFP8AnjqX/fhf/i6Q/tJeFB/yx1L/AL8L/wDF0BzR7nqtFeU/8NJ+E8f6nUv+/Cf/ABdN/wCGl/CQ/wCWOp/9+E/+LoDmXc9YoryX/hpnwl/zx1P/AMB0/wDi6T/hpvwj/wA8dT/78J/8XQHMu563RXkh/ab8Ij/ljqf/AH4T/wCLo/4ab8In/lhqf/gOn/xdAcy7nrdFeRn9p3wgP+WOp/8AgOn/AMXR/wANPeEP+eOqf+A6/wDxdAcy7nrlFeRf8NP+D/8Anjqf/gOn/wAXSf8ADUHg/wD546p/4Dp/8XQHNHuevUV5D/w1D4PH/LHVP/AdP/i6T/hqLwcP+WOqf+A6f/F0BzR7nr9FeP8A/DUng7/njqn/AIDp/wDF0h/am8HAf6jVf/AdP/i6A5l3PYaK8d/4an8G8fudU5/6d0/+Lo/4ao8G/wDPDVf/AAHT/wCLp2Dmj3PYqK8bP7VXgzH+o1X/AMB0/wDi6P8AhqvwZnHk6r/4Dp/8XRYXPHueyUV4yf2rfBY/5Yar/wCAyf8AxdH/AA1f4KH/ACx1X/wGT/4ukHPHuezUV4uf2sfBQ/5Y6t/4DJ/8XSf8NaeCef3Grcf9Oyf/ABdA+aPc9porxX/hrXwSP+WGrf8AgMn/AMXSf8NbeCP+eGrf+Ayf/F0BzLue10V4mf2ufA46wav/AOAyf/F00/teeBx/yw1f/wABk/8Ai6A5l3PbqK8Q/wCGvvA3/PDV/wDwGT/4ukP7X/gYZ/cav/4DJ/8AF0BzLue4UV4cf2wfAo/5Yax/4Cp/8XSf8NheBf8AnhrH/gKn/wAXQHMu57lRXhn/AA2J4E/54ax/4DJ/8cpD+2N4EH/LvrH/AICp/wDHKA5l3PdKK8K/4bI8B4z9n1kD/r1T/wCOUh/bJ8BgkfZ9Z4/6dU/+OUBzLue7UV4Sf2yvAQ/5d9Z/8BU/+OUh/bM8BA/6jWf/AAFT/wCOUBzLue70V4Of2zvAIH+o1k/9uqf/AByk/wCGz/AP/PvrP/gKn/xygOZdz3mivBP+G0vAH/PvrX/gKn/xyk/4bT8Af8+2tf8AgKn/AMcoDmXc98orwP8A4bU+H/8Az761j1+yJ/8AHKD+2r8Px/y761/4Cp/8coDmXc98orwH/htj4ff88Na/8BE/+OUn/DbXw9/599b/APARP/jlAcy7nv8ARXz/AP8ADbfw9/599b/8BE/+OU3/AIbe+HnP7jW+P+nRP/jlAuePc+gqK+e/+G4fh3x/o+t8/wDTon/xyj/huL4dkcW+t/8AgIn/AMcoHzR7n0JRXz3/AMNxfDsf8u+uen/HpH/8crQ8O/tjeBPE/iDTNHs4NYF3qF1FaQmW1QKHkcIu4+YSBkjPFAcy7nulV7uwtb9VW6torlVOVEyBgD6jNWK5rxz4/wBM+H1hb3eqLcNFPJ5SfZ0DHOM85I9KBt21Zqf8I7pI/wCYZZ/+A6f4Uv8Awj2lf9Ayz/78J/hXm3/DTHhH/nnqX/gOv/xdL/w0v4R/556l/wCA6/8AxdBPPHueiS+FdFmI8zR7CTH962Q/0qH/AIQrw9/0AdM5/wCnOP8A+Jrgf+GmPCP/ADy1L/vwv/xdJ/w0x4R/55al/wCA6/8AxdA+aPc78+CvDx66Dph/7c4//iaUeDPD4GBoWmgf9ecf+FcB/wANL+Ecf6rUv/Adf/i6T/hpjwj/AM8tS/8AAdf/AIugOaPc9EXwnoaBQujaeoX7oFqnH04px8MaMxydJsSfU2yf4V5z/wANMeEP+eepf+A6/wDxdA/aY8In/lnqX/fhf/i6A5o9z0f/AIRrSNu3+yrLb6fZ0x/KkPhjRmOTpNiT72yf4V5z/wANM+EP+eepf+A6/wDxdB/aZ8ID/lnqX/gOv/xdAc0e56AfBnh8rtOhaaVznH2OPH8qT/hCfDv/AEANL/8AAOP/AOJrz/8A4aa8If8APLUv/Adf/i6P+GmvCH/PLUv/AAHX/wCLoDmXc9CXwdoCjA0PTQPa0j/wpP8AhDPD+Mf2FpuP+vOP/CvPj+034QB/1Wpf+A6//F0n/DTfhD/nlqf/AIDr/wDF0C5o9z0f/hFdF+X/AIk9h8vC/wCipx9OKX/hGNG/6BNj/wCAyf4V5v8A8NOeEP8Anlqf/gOv/wAXR/w074PzjytT/wDAdf8A4ugfNHuekf8ACL6N/wBAix/8Bk/wpP8AhF9G/wCgRY/+Ayf4V5v/AMNO+D/+eep/+A6//F0o/ac8IH/llqf/AIDr/wDF0BzR7nobeDtAYknRNNJbqTaR8/pTf+EK8Pf9AHTP/AOP/wCJrz4ftOeDz/yy1P8A8B1/+Lo/4ab8IYz5Wp4/691/+LoDmXc9FfwlocmN+jae+BgbrWM8flUf/CFeHv8AoA6Z/wCAcf8A8TXn4/ab8IH/AJZal/4Dr/8AF0f8NNeEP+eWp/8AgOv/AMXQHNHuegr4M8PoSV0LTVJ7izjH9KkXwroqDC6PYAegtU/wrzr/AIaa8If88tS/8B1/+Lpf+GmfCH/PLUv/AAHX/wCLoDmiei/8Ivo3/QIsP/AZP8KP+EX0b/oEWP8A4DJ/hXnQ/aY8In/lnqX/AIDr/wDF0f8ADTHhE/8ALPUv/Adf/i6Bc0e56I/hPRJBhtG09h6G1Q/0oHhPQxuxo2njcMNi1Tkeh4rzv/hpnwh/zz1L/wAB1/8Ai6P+GmPCP/PLUv8AwHX/AOLoHzR7ne/8IN4bLbv+Ef0rd6/Yo8/+g08eC/DwOf7C0zPr9jj/AMK8/wD+GmPCP/PLUv8AwHX/AOLo/wCGmPCGf9XqX/gOv/xdAuaPc79vBPh1/vaDph+tnH/8TSp4L8PRnKaDpin1WzjH9K8//wCGmPCP/PLUv/Adf/i6X/hpfwj/AM8tS/8AAdf/AIukPmj3PQh4S0NScaNp4z1xap/hTv8AhFdF/wCgPYf+Ayf4V53/AMNL+Ef+eWpf+A6//F0n/DTHhH/nlqX/AIDr/wDF0w5kei/8Irov/QHsP/AZP8KT/hFdF/6A9h/4Cp/hXnR/ab8ID/llqf8A4Dr/APF1Bc/tT+DLWMu8WqYBxxbr/wDF0rhzI9NXwvoyHK6RYqfUWyf4VIPD2ljpptmP+2Cf4V89ap/wUA+GOj3bW9xBr29XKErZIRkHH/PSrcf7dvw3n0oX8Nvrk8XI2JZpvDDquDJ14/HtTem4c0e573/YGln/AJhtp/34X/Cm/wDCO6Uf+YZZ/wDgOn+FfMTf8FK/hGmc2/iP/wAAI/8A47TR/wAFL/hGf+XbxIP+3CP/AOO0WDmR9Pnw7pJ66ZZn/t3T/Cn22habZTrNb6fawTLnEkUCqw4x1Ar5e/4eWfCP/n28Sf8AgBH/APHa674Uftu/Dz4x+OdO8J6DBrSapfCQxG8tEjj+SN5GywkOPlQ9uuKdmHNE+gaKKKRQUUUUAFFFFABRRRQAUUUUAFFFFABRRRQAUUUUAFFFFABRRRQAUUUUAFFFFABRRRQAUUUUAFFFFABRRRQAUUUUAFFFFABRRRQAUUUUAFFFFABRRRQAV5X8dTi20cdi8vH4LXqleVfHgE22jYGfnl/ktJky2PIidx9zSxEqGyMH3pojbBzgfjQiMu7OCe2Ka0OZu46RuSec1WduOfwNSyZPcHNV5M57VQm0Rs3APNRMSKftJ9KifPPegd0RsSwx+lRuQB+PanNnkdD7monHegLoa747iombI7k46U5gcdc1GwzQK40n0qM+ppWHXPSo2znHUetFwELH1HNMzzzwKVlPf+dMIPsD7U9RCs2AOPyprEY7UrZ9Kac+opalXQ0t7Gm54pGBB7GmnJ9hQIMn6HNJnn3oKnketI3JHp6UCGs1RMcCpSCT1FQstLUYwnnB/Gmkj2xQ2eKTbjPQ+9GorgQMEU0jPSnFeKKAGNzTex5HFPI5ppHcjpTC4zH40jYxzUgUkU0qT3/CkBGRTGqUrgEZphBHagQw/wAqYakIwKYfbmmFxhA9cUw5p+McdKaRg8UxaEZNNPAp7DA680w8HqKAuhjKOnaoyBipD+tMbuM0haEZH60w/wCcinMw6dqheT8KRasDDGccVExxSPIT3zUTOfx9aQDmb34qIuPrTXLHjpioySPrQMeXAHrTC/NMLHOeM0xicc0rjHl+2aYWpjMeaZk9jRqIkLDrTSc+1M/GgjnjpQMGbt3ppYHGP0peemRTT0P1piEJA49aYzDPX9KccjHI/Oo2BJ60gEzgUw9u1PIOe340xlP+FAhpPfrTD2x/+qnNnoMU1s4zTG7WGM2P/r0xiGPr7Yp5WmHn6UxDD8x9PrTWXinkEn6Uw9x/WkBGeCOnFQvznjp61ORgDoPpUTrjt+tMCI4x1xim/Tr6U8g45xntTSvHqfemLzQEHjIPPPArrvg4Sfi74H7j+3LEZ/7eErkmU57Y711/wfBHxe8D+n9u2PH/AG8JQUmrn6mV4n+1N/yKuj/9fp/9AavbK8U/am/5FXR/+v0/+i2qTpn8LPmrP4UmelIaO5p2ONC5pBgijPT60hPpQx21Fz/+ug/nTc+1L680gFpM+ppDyKO1NALwaAaTOKTPagYpOaaT1pTx3pDn1pDQh5NMJ6DkfjTmJ5ppxkc/iaGAbiR70gB5749qB0A6UvQe49KQhF69OvencD60nOOO3rQvXnmgLDh1x2o3D1FITg8daM+35UDHDn6Uucd6QdKUcimJC5pQPam0qkAUDHevqKTp1OKM560jcj0oEhQaXOaTrQDkUhigkfhS5yQOlJ0oBzQAo+v4UufpTc5pSTzUlWFJppNGaaWoGNY/nWdqkbTWrhRuPXAq8564qrcXAtlMjAkL1pXA+bviho8umaz++yEulM8TEcMCcn8s1zHh/wAVSeG77duEkLfJJG5+V19D9Ox7fSvafHGnWnjO0urUlEu7XcsJIywG4ncvr7j0FfOesadPpeq3FndIVkQk7iMBx2YZ6g1stdyEdf428KwatCdc0ZzNEw/fRhMMSOp29mHf1GD9eDEa7M5yDjoea6jwh4qk0O42SkyWTsPMiJHzfn0I7H8OlaPjjwghthrmioZrSYeZLEg5XuxwM4I7r7GltoNHECJRxuI56mvof9gpFT9qfwXg5OL7of8Apynr56XDqrActyO+a+g/2DeP2rvBagHAW+yf+3KemWt0frrRRRUnQFFFFABRRRQAUUUUAFFFFABRRRQAUUUUAFFFFABRRRQAUUUUAFFFFABRRRQAUUUUAFFFFABRRRQAUUUUAFFFFABRRRQAUUUUAFFFFABRRRQAUUUUAFeXfHLi20g8Y3y9foteo15X8dji20f03y/yWgifws8kJyc9T61EGByM8/Wmu5JzmmBwSTjNVucg6TB5Jx6VBI2M9h7UrPjj/IqJ24OPzpjGM3NRM2DjrQxPWozyOtMkazc4P51E54x2pWY/hUTH60hjS1RsR680rZJzz9RTGOfwoCwjHnGeKjL7vegnPXio2bFACkjGcU0t1700tzimk0AOZs/WmlqaWpuQT3FACk80hJzTWbj1FNJwaQeo/OaCRio888UhNACu3PvULHFPPH0qJiRQAh5pM0hHNHvSAQ80pz+NFJmmFgPNIRz6e9KKOlAWQ0jFIR/9elJpaAIivNNPHvUhXPamsO/X60AZGvarHo9nJPIQAFLZY4A56/z4rgrP4jNdSSSYcQRnAJY8njjrW/8AEfTbrWLCOztSEaVgGdjhUUBmJPtxXz14q8RQBV03SnlGnw/elc/PO/dj7egrWMopbamMoyb3PU7/AOLyJMwjDMAfvB+D9Ky7n4vzLGdpYHHHOf614us0kkigMxZiMDNWZJvIiMYkLSH77E9D6CtVKFtjGUJ3S5j1WP4tXMg3tK4B9QOf1qsPivdzyZMmAOMMo/xrzXcbWBXbLOw+VCePqahtWLbpZSTGvYH7x9KPdVlYdm7u56Zc/FS83Kg2sOuSOtVrr4qXUQTKIy7gGK9gTz2rzyPffXTAcD26KK0nsA0AgiTcW+UDuxrSMVO7S0Mpt07JvU98+H+sSav4dS5kLcyOoDdsMRXQmTPrXJ+AIDp3huGFnDMJJC2OxLE4roDN/kVwO1zvRO0lRmQVA0ue9MMhpXLsTM/vTC5qEyE0hfNSFiUtTC2cnNRM/wDk0m7PtQmOw9myKaG5phfHrmmlyfai4Eu7J9fejPJqEP8A/Wpd/PrRcCXdx1pueefrim5pN1O5I4+2KYx4NKTTWbkdqLhoIcetMIpxphPpTEBPA/oaYaU8E5pp6daYxrcHFNI4HHFKT7c0w9s/pQhCUxuuMjNPY8HmmNj3NAMYaY6jHpTyMjk4+lMc8f0FArXIick/4Uwn8v5U9j2/SmHr0yKYDuD3rrfg4pHxe8D5/wCg5Y/+j0rkM5BGK674Of8AJXvA5H/Qcsf/AEoSmCeqP1NrxP8Aam/5FXR/+v0/+i2r2yvE/wBqj/kVNH/6/T/6LaoOyfws+aM/SgnIpO+P5Cg4Hamc2wppKCc9qT6GkAAZHXJoz2ozxz2ozmgQtFN4z0pTQAd80nH1o5xzSHigfQXoOBxSFsDqM0E9RnFJzn0oJEOTim9846UFh3/Km7gT3pMYvT244o7e455pD1oJ4HakAoIPWlLd+vNMzxSg4Pf1oHccG7ZFKSfX8KapwKAePrQBJ0wKUc9qYCT2/OnA+1MY7p9aAaTPNKKBXF7UZ/yaSjOaYeoufegUUehoC4uc/Sj2oycUZpDAGgmgHjpSZ4NK4wJ4prHml/SmMeKlghjnnrWfqZ/0STuQP61ekOOetZ+pnFrIenFIs+f/ABjqVxpfiCWeF9mydmDY5U56irWs6PH478MLfzj7LcIjv5/3VBxywz/CcAkVrXHgt/EfiC6urrCabbzM0gbID9+vp0rh/iJ4vF5u0fS90GnwEo7RnAl4xgf7PX61s9bJGd7Hn0O5lILK2TjK9DXb/DzXbux1QWKobqC5ZUeEAkgDjcPQjP09a5G3t5LiaOCGIySyMFREXksegFep6ZZWfwr0P7deotzrt2mEiHWPvjnsOMnFN9gt1OT+Jvhm08N60ps5kTzxva2zkr1+YDsD6V6p+wYuf2q/BhJyQt7/AOkU9eE6pqFzqt7Lc3kxuLl+sjDt2+gr3X9gz/k6zwX/ALt9/wCkU9LbQ0Wtj9dKKKKRuFFFFABRRRQAUUUUAFFFFABRRRQAUUUUAFFFFABRRRQAUUUUAFFFFABRRRQAUUUUAFFFFABRRRQAUUUUAFFFFABRRRQAUUUUAFFFFABRRRQAUUUUAFeU/HpgLXRh/ty/ySvVq8l+Px/0bRf96br/AMAoM5/Czx6Q89SPamBtq8kmkc4zjmo9wycVRyjmfPPfFQOfwpWNQsfmxzmnYALZqJm4JHT1oZ8dP0qJ2weaB7jWb3/SonbrzyPWnFwRULtQIUsMVCXoLdeajLjJpFCluKiZuuaVnxUZYUCFLcU0tyBTWYUZ6HvQIXtyPzpMgD1PvSbsCmg5zQMC3pnimk80pPFJ9aQhTk0hNGT+FIWoAQnPXrUbf5NOz1pjHnikMafWjPNNJ60ZpgO6c0lB5yKBmgVhccUnajNLQOwwjPrSkcYpcZpQKCRuMCmsMU/1pjjj2oGcp471SLTNHkaeIy28nySAHBIIKn9Cf0r5e8VaE2lXXnxSfabCbmG4U5HTO1vRgPz/ADA+pfG+kxaxodzBLdLasVOxnHGe364/AnpXzPFq02gXt5pWs2rS2bk+dbN1U9nU+vTp1x2IBANK5ySTvA4Zfv8A86syIJE85CcDBK/3TVnxBo0mj3ETJKLiynG62uVxiUY547EHg59PrVC0u5IpuGA5+761pGXR7Eyh9pbl9f8AiYRKh4kUcMT94e9VUJjYxSA7CTx3BqxLlUEsTHZnJ55U08f8TCPAP78Dg8fN7Vrr8/zMNEtNvyKQaTT5wy5O7BHoRWu19/o3mxkhh09qyI5Cu6KUkAd+6mqdzPNaFyzHBGfYiqhPl9CKlPn9fzPefAWtNP4chZzly7ZPrz1ro/7QzwK8t+H2pn/hH4Pm7niu0t79XArklu7HZHbU3zd5FAuc1mLMDgg1KkmTWdzQ0BN70nmZqqsmeaUP70gLJk9KbvqAt/8Aro3/AI0ATlvWm7ueKiL80m8YoEThuaduz1NQKafupjJd9KDnjNRg0oPHNMljs0hOc8UhJApMk0EgTTWNBNNJ5qhgxHFMz6+lOJpuefbFAhpOMepprHHPWlLD1pM4phuM+opCaUnb1phOCaQDW4PWomPHpUhqNjjsMVRI3nqajOMnpTz1znn3qMnpj8zQNi8gV1vwdwPi94H4/wCY7Y/+lCVyZII/Sut+DmB8XvA3/Ydse/8A08JQCVz9Tq8S/ao/5FTR/wDr9P8A6Lavba8R/ap/5FTR/wDr9P8A6LapOufws+aMgUDr9aTJpCfxFM5Bc0Z5puT/AProJ68Uhik4PtRuANJmjdxTGKSSfejNNJOeaUHJpALnvSE0Z96QEcY+lIQGhiD1prHpn/CkIwMUAITikJ59DQeBmkPHcUgFyCB3pDx7Umf8ilz79e9IYZz6+lKvvz9KaMU7PWmIXkj+lLk4AppNHegpIcGKnPal4AxnvTO2fXtTv55oQmP70tNGM8/WjPPPBpgO9+1KDxTcn60o5PPFIY6jNIPr+VGeKYC9QaKM0UAHfIpCcUGm5qWNDjTG7UtNY4zUlkb8nFU5084bD3q1IeKpXUmwMw6ikM8y+MfiF7DSE0mwyi3e+a4cDkgsAAPQELXgk9u/aNzt4AAzXt3jyUzXPOCVXaPwrN0Lw/BpNudY1bEar80MT45PUH68frXp+yjGCberPOVaUptW2MvwvoMPw+0OTXdXgLavID9mtwdxXsBxxk5556Vwet6hf67qk99ehmllbhRgKi9lH0FdT4k8QT67etM42oBtjRc4UViP8wOTVxw+l5bmcsS1KyRzr28rHHlMR2r339gy1mi/ap8GM6MF232SSOP9CnryFVwK92/YjkSP9qPwbHu+ZlvcAf8AXlPSnRUYt3KpYiU5pWP1ZooorgPZCiiigAooooAKKKKACiiigAooooAKKKKACiiigAooooAKKKKACiiigAooooAKKKKACiiigAooooAKKKKACiiigAooooAKKKKACiiigAooooAKKKKACvJP2gDi10U/7c38kr1uvIv2hDi00T/rpL/JKCJ/Czxh5CTnNRbjyAMD1prv82Tim7sg4/WmcdhTISDjpULNk/8A1qVn49faoS2R/hVFIHbc2aiY4pWfINRM/bPPSgBjknv+FRM3J/SlZu4qMn2/GkAjNTC2Pag0xj78UADNimkg0hbp/Km5z9PSgAbr3ppbnGaRie3Wm/SkGpITxTM5z3FGenpTS1IQoOPakzkmkJppbn0oEPyBSE+vNJnNITQMQnmmMeaU01qEAmeeKWm54/pRu/yaYxw9qUHimD8qcDQKwopccUg6UtIYoHegDtmilFABimMuakA+lI3Si4bnNeMNIOsaPcweYsCbN8kxP3EBBY/kK+WvHWuN4r8Tww2Nq0gRRbWyYBllA7se54zycAfia+mPiaJT4UvUhDF5MRgKMlsnGP1r5x1l18CxXNpbybtduV2XFyh4toz1jQ/3zjk9uO/IroNOxneJNTh0zS4fD9u6XRik826uByvm9NsfoB0J71zZI3DHB9upqnLFtwV4A9+KsRwm1RZXGZmHyqei+5q4xJlKy82aTXgtIfLBHmsMH2GKtaSwXMr9QpKL6kCsqxslnDSz7tgPOOrH0qyYmmn3hioA/BRWvZ/cc9t0/myF5mluZZZGwgb5jnn6VT1CU3pKpxhcKuegqW9hWR0iiDbc8L3Y+pq2bBLSwbAy7D5mP8qqMOZ2XzJnPkXM9+iOl8EyiLR4kBzgmuvtrjHQ1xfhiF7PTY1kGGb5sex6V01tIfwrllu0dcX7qbOjt7o4xn86vxzBu+awIJavQy+/FZGhtI3HrTt2euapxTZGD+lTq2RSGTZ7fpSk5GajBz3pQeaBWHE5HqaQEj1pBQGzQOxIv5e1PBNRLUg4piJA2TS5xTBTgaYDs96aTjnsKQ0n160IQpPX0ppOB+FB/wA5pDxTQhCePSk6d6D09aTORVCGk57005NKTz6+9N560hCHPamt8opc0hPFADGJ49ajY5zTzx6VEw4PvTFaw1sgjnrUb/WnMSR7UwnP4UDFYAnn9a6/4N/8ld8D9/8Aie2P/pQlcfg11vwbH/F3vA2f+g7Yn/yYShMEtUfqlXiP7Vf/ACKej5/5/T/6Lavbq8Q/arOPCejf9fp/9FtSOqfws+ZhyKOnT9aaDxQT3zQzk3FJ9+lJnHf8KPTuKaDgcdaVxju3BzRjtnNNLZOccUE8Y4P1pAP6nFIPr+tN3fN6Uo6/jQMUj3AP0pKCeTwDSHg8k8+lAgPGe+aVuPSmn1JpG4PIx7CgAPGab+VKTzSdPekAh/IUuePpTSec4oJ/CgYo+tGe1Jn8aBzQA45yaXqTTTkGgduTSAep5GBTs/rTOAO9Gc55xTAd3696dnnqOKaDilBx+FFwHd89qBn1600Hj1HenZ/Id6EMd9OlHemj8fSlyPrTAXPfOaM46mqt3e/Z3A2bs88HFY6+MIt3zWzj3DA0DOh6jrikJrETxZaP95JE+q5qQeJrA9ZHH/bM1I0a+aYzA9KpWutWd9L5UMpMmC20oR/OrRJGetIZHK+MVRvP9U3+NXJT19MVSuj8jUFHI3Hh+KaebUbvH2e3YtsIzuOAa8y8Xa9JrV06glLSMkRRenbJr0XV/ER066ZJTuifAYc8+/1rhfF2grIG1HTyZYJcsyqOBx2HbvkV6sNHFz+R5E9bqHzOLlBJHqR0NRlTnPBpZhg9x/SoQ3zHnvXYcW4y6uBbRs5HTtXs37Bokuf2p/B9xI3QX2Af+vKevF7lBNkY4z2r2b9hG3a3/at8GgFjGVvuv/XlPXLWu1foduGtzW63P1vooorzT3QooooAKKKKACiiigAooooAKKKKACiiigAooooAKKKKACiiigAooooAKKKKACiiigAooooAKKKKACiiigAooooAKKKKACiiigAooooAKKKKACiiigArx/8AaIbFpoY9Xm/klewV45+0Wf8AQ9DHP35un0Sgifws8RZz7YzTAevf6013+lMDA59aZyIczcdvzqNj15oZsc96iZsDjNNDBnAqFm5NOZ/eomb0oAQsM+tRE5/xpzNx6Uxjg+9MBpPT+tMY8e1DNxTC3T+YpAKWyPxphf0pCc5P6UzdQwFJ9KRmIHWkZqTNIBSaQmgtxTQeO1AhxOKaTgUE4PvTSTQA/ikJBGKaSaM0DAmmHqeaU881Gx/SkApIz/OjPtTQwxjOKcKQDumaXmmdvp708HgUwsOFLgCmg80pJ/GgY4HmlzimZpRSCw8H8qax4oLUx24qR2Oa8eXsth4fnuITiWJlkU9wQc5/SvmbxLZw+J4ZtVsIyl2pzdWKZJyf+WqjrgkgEDPv1y31B4ouobbSbmS4QSw7DuVhkEdx+I4/GvlXxNZ3nhPV4b/T7tpbCUn7PdpgZ65Rx64ByCOR26gXEGjj9xYnJJ9DV23Q3+FbiQDhufmFbGqaUmr2kmr6XEsccY3Xlogx5HX519UOPcqeuQc1hxymMrg++Qea0jKxMo8yuty5ats3QyKSnr3U+tNud9nLgZYHoezCnvIbqL5WAnAHXowqkLzcGikLFScA91NbbW/A5929PVfqRXAJYTRghQ3TutWGvfNtGV/9YF/P3qnF5lrNhyWU/kwqtrIMaebExKHjOD8vtTU3B3XzFKCmlF/JnZ+GLhp7BS/8LEV0kDYrjvBM/m6XnuHP8hXW25yB/KuWTu2zqirJJmtA+cVegesy3bNXoG4HP4VBZqRScVZjkz3qhG2asI3QUgLqvnFPDccdaqq3FShvwpDJvelB/Kow1KGoAmXrUgNQjnp/KpF/IUxMkBpc00H8KXJpiFNB47fjSZ5pM09wFJIppxQxprHmgQhamk/lQG7YozgUCEb2pnb0NOJI/wDrU0nB4oCwh9aZ36ZpSevOKaTTCwhP+PFRljn1+tOJ/AUw9Djn6UwI5Gwcc/jURbHvT255qM8DmhEj8DAPX2rrvg4P+LweB/8AsO2PH/bxHXIdcYIrrfg1/wAlg8Df9h2x/wDShKoFufqpXh/7Vpx4T0b/AK/T/wCi2r3CvDv2rjjwno3/AF/H/wBFtUHXP4WfMnbpSkj0zTcjjNJnn2pHIKO1ITkdyaQEA+tAPv2pWHcXjrSkgHNMJzSjj0waAHEnGD+dIDn1x2pD6/rRmnuA7dx7n3o3Y6HNN3Dpik3EmpYIUnk9aQn35NJnmk3fhTAUmm/Q0pNNJzSKFznvR0FJ1OKSi4Ds0dO+KaOe+aXp2oHYdnj29KM03OTTsjPWkA4UU0E9uaOlO4rDqUHn0poOetLigBw7Z5p4Prx7ZqPPtSjg8daQDsn1/Wq91d/Zudu8EE4zipeg9ap6mM+X+NMdjndT8YRGRD9mcfL/AHhXD6b40t7jULpZbaZo44mdVDADIIrRaKO61eKKYb4zCW25IyQfauD06KFNU1RVhX5YnC4Lk/e+vtQWjrj4zsgObaZT1wp/+vVG68cwi8ggt0dXkBO2XvgZ6/nUOmSSWemSTW6bHNxtYkMcjYPU1kT+Jb1fElkpMJ2q/VD6Gn6Dsdt4V8XT/wBrNmCJsRN/GfUe1eiaTq51WKR2g8raccNuz+lfP3gzXrm58UypKEKyJJyo6fMDXufhXjSd/wDz0kLfyH9Klg1Y2JD71Un+6ancmqsrFRnsKkdtDzD4gxNGY2x8rrkH8a5bRfEMlhIYZh5lu/3lJ/Ue9er+L9Kh1rRLiOM4nhYyRknpuH8uDXg2prLaXktvKNsiHaRXsUmqkOVni1U6c+ZGx4s8PGAi9s9slq4yRHkge/0/lXMqhyf1rpPDPiT7IzWl0S1rJy2FyRx1FHiTQBZob60O+0k5GO2f6fypxk4PkkKUVNc0TmGU9ule6/sNQgftP+DmwMhb3nH/AE5z14USeTnkd693/YcY/wDDT/g4dRtvf/SOetKnwsij/Ej6n6t0UUV5B9GFFFFABRRRQAUUUUAFFFFABRRRQAUUUUAFFFFABRRRQAUUUUAFFFFABRRRQAUUUUAFFFFABRRRQAUUUUAFFFFABRRRQAUUUUAFFFFABRRRQAUUUUAFeM/tINts9CP/AE0m/ktezV4t+0ocWegc/wDLSb+SUET+FnhrOfy9abu4phbnOabuwCR9aZyjy2On6VC7ZyaGfk/0NMdtoNMBCc+9RscmhjzUZbHtTEhWPvUbNgZzQx61GW5oGITgckEUxj70hbNNJx3pCFJxTSe1BPGKjyKAHE8U3dmkJ5ozgUihd2BR9efemk96QGgTHE5ozzTCaM5IpAPJpCcZpm7ntQTQApbrTGIBNBOajNK4DiePWgHPTrTCc0oxxUgSA/p1pyn15qLOcU4Z9adxkob2pc/hUYbOKcDnpTuA/NGaaDS5oGKTUbnilZjmmOcA1DLSMLxRYz6rpVxaW6h55VKIpOAWIwK+ZPGeoW+n2Z8PabP9ptY5fMubkj/XSjghMfwAgfXH5/TniGZotOuGQlWCnBU4IrwmbTLXwlIL+W2j/tR/mtYWGfJ/6aMPX0H+R0UoOauYVKig7NHOBz4AsJochtfvIgsiHkWcTDp/10OR9Bj8eKJ3EgZwOOOK6e7jS7nklkUPI7FmduSxPUn1rOuoYZJPJgRNwHzuFHy10PDtbs51iU9Eigsn2RA7/fYfIn9apLG0jtNKSEB5PcmtiZIY8RhFklPCg4J+pp0dtFbDdMFZupJHf2rT2fTojP22l7asyVWS6m44CjPsoqhq8pniEMOdnT/eNdRHbIN00qhB2UjhR/jXO67drcsyxDEQ7gdTWc48sbt7mtOfNLlitEbPgpDDprKTuIc5/IV2Fuf8iuO8GQvDpuZEKh33KT3GBzXW27Vxu19DtStuasDVfhJGOfwrNhbtV6FsmpC5oxN09KsI1VIjxVhSAetDDcsq3r+VSBqrg1IrfpSGThuKeDmoQ3cU4NRYLllSB7VIpGPTFVg341IrEDrxRsLcnUgd6dmoQfzpd22mIkzmgtjp1pm7PSm7/wDJoAcW5pD7mmn1NJnmgTF3Y60Z9qaeKb6UCFJpu7j196Un8aYcD2pjDvTT060E/jTWPXHQ0wEc461G5z7ilJwTnp1phpNiGEnHqaafXrSnqe9NyKYhT78c11/wb4+MHgbjA/t2xH/kwlcgSSeM/TrXXfBs5+MHgY9P+J7Y/wDpQlUNH6q14d+1f/yKejf9fx/9FtXuNeG/tYf8ilo3/X8f/RbVJ0z+FnzFSHpRnj2pCc8VJyC9KQHFISRx+NNaQKMFgPrRsG4/rRn8Ki89P74/Omm7iU8uM+mKlsqzJyaTd2qL7ShHXP0pGuFXnBNF0NJkxPHX8qM5NVhdgnaFP40ya/WAjchOewoumPlZbz+GaTOKo/2qmT+7bipItQS4c7VYY9aLj5Gt0Wc/lRniq016sA+fJFV21yIZBjbPrSuHKzQzxzxijpWLfa+ILdmSMk9FBPeqlt4xQ/LMmHXqKdxuLW50uc+po696y4vEVnNn5tv1qwuq2r/dmUc9TSuIuhvSlzken4VCs8bdHX2qRRkZByPai4DgexpQ3tTAT+FLgg8jj60APHrQWpuDxxQeDg0wHg/lSg8HjJpnpS+3NAhxPFUtSb/V8+v9KtZqlqRwI+5yePyoGeczkw+J7VemQ64J9mrl/Bl5HB4j1V5Xjj3Quql2A/5aLkDNbniK8FlrsM+MiPLEeo5FeQw+ONMF/I8rNGJFbBdf9oGnYs+jbB0fQdwkV83BPDg/w4rzTx6QmvWJJ5CS4HXsa5iP4qafbaULSFiWVtwbft759feuV174hJe6hZhGLZcAv5m7aCwB/TNFhLc6rwD/AMjUeTxC5/UCvonQIzFo9sp4+Unn3JNfN/w5nE/iu4IOCLZyPqXWvpe0XyraJMY2qBj0pMtkzEflxVS4I2mrDkVTnbdnmpC55/4p1mfTblZIyTtwRnOPofUVz+r2EHi6yW5h2x3aAsQoHB9PcfyrY8W2k1/dLBAuZHAA9uayr+8h8F6cI8iW+kUjI7H1+lem37seXc8paylzbHnc8ctrK8csZjkXqD1FdD4a8SG1T7Jdx+bbSYX5j931P+I71zdxcSXMzyyuzu/Umug8M6Cb7/TLn91Zx/Nk/wAeOoroqW5ffOenfn90j8V+HTpZF1b/AD2b88Hof8K9W/YZbd+1F4O7fLe9/wDpynryXxf4mOryC3t2MdkmMJjG4+pr1b9hZ8/tSeDR6re/+kU9Qub2b5jRKKrR5e5+slFFFeae6FFFFABRRRQAUUUUAFFFFABRRRQAUUUUAFFFFABRRRQAUUUUAFFFFABRRRQAUUUUAFFFFABRRRQAUUUUAFFFFABRRRQAUUUUAFFFFABRRRQAUUUUAFeK/tLHFnoHr5k38kr2qvEf2mziy8P/APXSb+SUGc/hZ4SzE45puc59T3NR7jjsaTf15HNFzmsOY55qN2J6Uhf34qNmzVA1cC+TknFMdtvekZsetMZz29OtMQO+c0wnn2pC2SaY5oAN3pTS3FJnGe9MLYpALuxnNNLc9KRjgGm5GOKBji3f0ppb3ppbim5+hqQJM0AnGM4xUeRRu6f1pXAcW+tAOTTM579aTOaQEgY5zSlsnrUWcUbuOlADmb3zTScmm7uKaTxSGkO3UBuRzTM0BvegdiTPPUU8Ng+lRZ4pQeOtILEob0p2eahB56808HjrQFh5lVSAzAHtk4rCvvFi2dz5IgErbd/+sxxnHoal8RgPpr+wJ/Ln+leM6hp39oa9sgcB209XYyH/AG1J7U7lJHq0vjuCAjzoki3dN0wGfXqK27TUYdQtY5oZEdXRXwrBsZGa8E8ZWM3hm5kJitziKRUZCx/jQc8ivTPhpJJN4at7hyN0kMQOM44QH/2akyrG5rshjsZmGCQpIz0rxLxSF8RyzX9sT9qX/j4t85OB/Gvt0GP8n23UrhIIXklUMiDcVI4OOx9q8F8TRS6DqYu9PmL2bn91MPXn5W/zyK7cM9H3OHFLVX2OVMp59MdazCHspi/3oXb5j3B9a6y+tYdUtHv9PQKy83Nuv/LP/aX/AGf5frXPSSDaBnjFd1+bXqcHwPyZVniZ5FuIDlgDx/eHpT2dLyIEErIMHHdTUPmtYMed0DfmuaSYsG86F8t3GeGFTfcu234P9CQTGVXgnHz9/wDaFc7q1i9szHaTEe/p7VueYLxCQ21x6dVNV5JBNE8UuNwGD/te9ZzipqzNKc3Td180T+Eb2S804GRixjbYueoHH+NdXbtxXJ+FYRbW0qZyvmEjPXpXU27civOas2meommro1IGxjjNX4Tis6A4Aq9CelIDRjPFToaqxMcAYqwpNAFgHv0p4OKhD5x2/GpFPrSGSZ/Cng9O1RZpQ2KBFlCcU8HioFb3z9akDYoGTBsilDVGDxQGx1pEkmcUpb8aiLZpd1MBxPFITmmls0ZoAdmkyRxTd1ITTEL9aacfj60EimlgDyeaBtCk4HXn+dNY5pDxnJppI5Pr70xMRjkdaj6dP/105jzzUZYcmkIa3T/Cm9PwpWbqPypmeg5HeqJHMcetdh8GmJ+MHgX0Ou2H/pQlce2ePSuv+DWD8YvAvP8AzHbD/wBKI6EOO5+q9eG/tY/8ilov/X8f/RbV7lXhn7WRx4S0X/r+P/otqlnVL4WfMGcmkzg+9JnpjFVJb7y5WjwoIHVj1pN2OVJsffErbSkEqQM5BrJjvWZMMPmx1qW9uJ5IXAkUDHI21iSGdH/1pz9B/hXPOokdNOk2b0coKjGQKUEOcH+VcamrzTGQGaQc8BTj8sVchlMalnuJWXGfmlY/1rldZI61QZ1m5QucjPWhpY0I3SKuOxNcoJo5f9ZISp7k5qRJrWKTGM44B45pe3SD6vI6Y3kJOBLGeP7wqjdX0XmffXHHeuclvAJi7SNtHBwayLvWoYGR3LEu3yqx4p/WF0NIYaTdzsJNRg4Hmr+HNW7G/txvHmDr6157NrdvPGd0ioQDxuAFMs7sXQZvMyTkBVc9KarHW8E3Ftne3erwNIR5qEKemaz7nWbOFN0tzFECcfM2K4q/1e306DKbsn7wHJH4ZrkNf8R/arc5RjCpD4YDr06fjTVS7COCcopx2PSfEHiaxCRql5CRtJ++O/FcxJ4isY1y96nA3Haev5V4j4y8T/2QiTK0wDqQPLwK8vuviTdmeXPnFQTtLS9fqMVvGVzlxFFU3Z7n12nirTJCd1+q4PQuAani8Q6cx2rfLnHQOD9K+O1+KF4zAiM49C4/+Jq5bfEy9kPzRI+f+ehX/wCJq+ayOP2Z9l2WuxFVKXSvnoVJNajeLY7YR5uGiDdck4z+VfGdv49mnbd9k2L6LMyn9MVsQ+MLiNQwklIA+6ZmYD8c5rCVWxvGhc+uF8dgcJqCkYx3p6fECKUYN7Fkf7WK+Rj49v45AQ0hHcLKRx+VSRfE65hbnzQvo2GP58UlWRv9VPr+DxrbnObpMf3vOHNaNv4hSdQ8N6hBHQvmvj60+KQmY7pHj24IBTI/H5q7DSviLO9ohS8jKgDIMm0/lg0/bIzlh+U+lxrdwuMOknsD1q2viLCEyINw69RXzhP8QVjeItOu7s0dx/8AW61H/wALPuYwZY2kcFj0mwMVqp3MHSPpWPxLbMcSfuyR9abdaraXTRrFMrOAeM8188x/FKeZx5lpcKg5LxEOf51ePiqeeNbqy1I27D5is6BWU/iKrnRm6LR0PjuU2t/IWGNsfX6k4r5a1y4BlRAeFHNe0a74rvdYuBLNNFd7kCs0UgU5BPO3GK8g1bQJY52eW4ijyeAx6CrU49yFCSMDzCDj+tNaQlWx1qSe0ER/4+ImHqpyKbb2zXDfI4ZfryTSc49zT2U9z3b4Iu17riOx+eS0Un3LMtfU27nHavlP4O3H9j31rcfKVFuqsrDkbStfQFt8QtNusqm4SAfMHIXFF7mbTOpkbj0qnO3BxzWK3jjT84LgHt+8X/GoZPGWnsNwlTafSRT/AFpXBJj/ABBeW3hvQry/kCvcsqpCjdWbuM9hyK8F1XVZdSu5Z53Blclj82cewrpvif4oj1fy4oLgyRxb3wGxgkgfoF/WvNNOtG1fVVha5W1hUgySzPgAZ7e/Wu2lUjBXe5xVaMpvTRHZeGdC/tSY3Ex8uyi5djjBwM0eKvFkd2wsLIrHYw/KGVv9Z/8AWrH8a+LooLVdD0UbbBVImnjIIk7kA/z59q4gz4RVGcAcc1XtlKXMyVQtG0WdTJcoQPnA59a94/YRlVv2pvBoDKflvcYP/TlPXy352cA5Pfqa+iv2AHL/ALWPgjjA233/AKQz1pKsmmhQwzjJSufsJRRRXGeoFFFFABRRRQAUUUUAFFFFABRRRQAUUUUAFFFFABRRRQAUUUUAFFFFABRRRQAUUUUAFFFFABRRRQAUUUUAFFFFABRRRQAUUUUAFFFFABRRRQAUUUUAFeH/ALTx/wBC8P8A/XSf+SV7hXhv7UTbbLw9/wBdJ/5JQRP4WeBFs00N9PwqNnzSBtuelBy7EjMMEYphfimFs8UxjxmmAFsmmFjikZh06mmM2O/SmIczdf61GXzwaQtnNMY5zzQG4pbH0pm7kUhPP+NMY8ev1pXGOJzn+VNLCmlhzTc8UMB+aaWppOetITUjH7uaCaZmoLy5NvCXABwfSkCV9h895HCwVj8xGRxTPt6EcBvpXO6xqBZg7TCLHTOB3965+28Wscq8p3A42hRz+n61yVK6g7HXTw0pq56GbrJ4SopbxoUJ2qT2Ga4ZvFcMZzJPIzAgbVkIzz6CsvVPGhSDesjTKCf48Vl9aW50RwcnLlPSYtSaSUJsXHUnNRT6sYmICKw6ZzXlNh4tkv7obHMPyncRJ0wMk/lWB4i8ZXM0ckFrI4I/iWU5OOeCOe1Uq/Nsdby2SlZnrV541azvWiMSSIBztySD/n+VSw+PbJwN8E6/RRXw18Qfi1r1hr01lDeuyxkht7liScHn37VgW3xj8S71DXrFR2BYf1Fb82lzzqlHlm4o/RW38VafOoIkZD6MOasjXrBhkXKH8DXwdp3xZ165tw8l1jH95mOT75Jq5H8W/ENqyu9yJlHQK23P41l7dJ2NY4VyV7n3Wuq2zDIlGPXBqWO+gkGVnQ/8Cr4x0P46a0IWZneJOCSzbyfYdMVY/wCGk7uGUpmQjIG50BBGfc5//VVRqqREsM0fXeuyA6ZKAc5ViCP9018ueLfiQvhjxAoMUp2w7AYZdrHLbvy59aitf2hWuyojmltyvDbipR8jBG3+uf8AEeb+NLyHWbg3rXZdyACNoUfXqatVY9WQqE72SOu1v4yzeLNRt0cMkbl1YSY/i5ABzz8wFfT3w0TyvAujk9XtkY/98gf0r4T0m0Z76KQg+TG6uSCMnBB9RX0z4X+PumaL4es7GaHm2iWMyZPJHUYx/n2p+0i9mEqU46WPZdc/e2U6AZZlwAO9eJeLbtNCt7nSEkSe5kcm5I5WM5+4Pf1P+Rov+0bpdyJFjspzJ0B2kKffJFeOS+P7TT/EDTXyy3kYBZVJIQuTwWPUgdcd/wBD0Ua0I6SZy1sPUnqkd7YTL4Ztlu5+b6VT5FvnG0HI3OPT0HeuZedpHZiRuJye1cbL47/ty8lmbUfPnZss3K5+g44q7b3bmPzZJXEa9gxyx9K7YVot36nDUw8oqz2NqW4aV/s8f3yPmbHQf40kkwskCKNzn5VHr9aw4LmSeZ9rGMHkkHAApJbjzrhVjYnHAbPJNHtVuCo6qJuRf6MjyStlm5Y/4UxlMqmaTKn+FPQe/vWNPceUoj3GR85LE5APoK0LOyLRF5SSWHCN2+tUpcz5UiJQ5Y8ze5e8OXAmilKn5RIRnNdLbtnFc3o0P2dGATapYkcYBrft24Arjn8Tud9OzirGvCavQvj/ABrLgfIAq/A/NZmhpxvwBU6NyKqRMMCrEbYpiLKn0608N78+lQBunanq/HNAE4anKeah3Y/linqwPtSHYnVqeG6dveq+/H19qeDn3pCJw/HPApd/QA1CG6Um7mgdiff3pd/FQb8Ed6XzD2ouLUmyKTcKi8zmk8zmgCbfmjdyPWoRJj1o389aBExbj6U0v/nNM5A5z9aaXz06UCHF+B7d6aW65pu400n1oAUnNMZvxNDE/wD1qjY9cnBpiFJH0zTGYCkLcmmFh09aoexIzjua7D4MN/xeHwJz/wAx6w6/9fCVxe7APPPvXYfBds/GHwJk/wDMesP/AEoSglPU/V6vC/2s/wDkUtF/6/j/AOi2r3SvCv2tP+RS0X/r+P8A6LakdctmfLxOaxNSRvtbMPbH5Vs9PXkVm6htErZJ5xWU9EYQ3My4kMdu7E4wOea53UdZK27yImDjAZzxnp2rc1SREspgWIOw1wF4oFuwJJ5B24rza0rHq4eF2V/tsschZpB6YQYH+P61Yi1M7l8xztA4HX8zWCbkRysh6Z4yetRS3xRiuAMHsa853e56rhbRI6S41pvuq4Jz0PYVBJrjOQrZUJySK5abUTbhwzfKOQSelZY8Twyfu93zA88nr+VbwszCSex3Ftr5uJszP+6VTjjnNY2pamGSZm4IOF/2R0rmf+ElS1uUYjI5yH5GeaZNq8VxASxyWBPTPPrSnB3TWxvQaizXj1PbcKN3APIrp9H1FItPu5nAJjxtrzGO5eZlboMgDP6Vv2+om3094WPLE5yefateQ73WVRKm+pZ1XVzd3DnA3E4yvH9aoIonDrg8rwT2rPnvV3ITkYzuXvWloEZnbag35znNbrY6p0owjajLY8r+MRe0srKLA5VmwR7ivFGn3vux8xOTXvPx6ijto7FpG/eLERsA6DNfPsj/ALxyM8HiuqC0PkcRUdSd5blyPkDk1PGdv1HXNZiXBUqMcZq7by727Y7Z705I51qbemMqPnPbp711EVyIrfKfdyMmuSs3w49Qc5A7VtzzCO1zwMEfd4rjmtTrhojThvElB3qBjuOKSQrIvyK2D/erKtp5XYiOPIweamg06WUhp7lzjooPH40nBJm6npckityJmIYY6EDtXRWsojtQsZziuZeze3kLRvg578VZiupIY9xwXI+6vSpaHfmDVZ5N21n+RicA1km88v5S+5jxU+q3iyYUKwOM8Vkux+9jBP8AFWsLownI3l1eaONVQlWOF7HOPatKPxDLZWyGTK4PyhDjBP0xXJRTiFlbaW/Gr80s11a/OgRMcKKbXchSZ1sHi5XjJlkx9Qcmm3HiBboFVcMD0yK4VUZH2ld39auWN19nm/eRkEEdaTiugKdnqbXmMNzyKAAcdBWtp1nCRv8AJTPYjIrD1KYRzRiQGJSu47+v5VZh1/KKkKb8YGc1m0zd1OY6Rb06YfMt8wyZAJBz/OpT4u1VJWWKeJ/eRCD+lZBu/NgG8AE1SF2IZemWPr0pxk0Z8qex0N74v1aUYM6AAgYUD/4mq9rrOpXSgSXgIxyNoH8gKxLlnlIPAzzkfyq1bSCOEZ9OwqnJ20ErXsas+q38cexLiJgQQN6v/wDFVyd+9/eXW+S4tw6HKt84I+nWtiaYPGdp5rBa3lllkJHfnFKM5GvLFrUll1fVba2aCO6iSFslkA9fqKLTXr+MYdxKoHTAxj8xWRcuVb5uueamW+MUJVYxluOR2xW6nLoZqFNu0jrdM1kX7InWQg5x0r6p/wCCfsaxftU+CQ3+sK334f6DPXx3oc7xyrIFC4zg19b/APBPfUFu/wBrLwQpI3hb/I/7cZ69CjJSi77nl4qChUiobH7HUUUUGgUUUUAFFFFABRRRQAUUUUAFFFFABRRRQAUUUUAFFFFABRRRQAUUUUAFFFFABRRRQAUUUUAFFFFABRRRQAUUUUAFFFFABRRRQAUUUUAFFFFABRRRQAV4T+1McWPh7/rpPx+CV7tXg37VZxYeHP8ArpP/ACSgifws+fSdvpTQ5Oc0wvkUgJIpWOUeXxnimlhTS2ajL/5NUh7Dyx/GmM4Ht+NNY49KazAfjQK1wLZJx60xnz601myaYX6+lAx27AHNNLelNJpufelYQ8tTc0m6mnpQNDs8dM0m6mk/hRn25pDF/Sq9+wFs+Rn2qbIzVbUWxaP+H86mWw1ujgvGc5SNeSFCNnnr0rzu4v5I2kHGVI5Y9c812/je8CGJexBryd7lrq/CRjqei98V4lWLc2fQUJwjTQ7VvFM1lOse3eDkls44rLbxU8qvGyHy+cYPPQDH04/WrWu2kdukUboTKcnB7elYJs3kuXjiQs+8kKOw5B/kKcYpx941i/ev0Niw1lrKKV3cguhHPGM9an0RjqF4oYhUYNjnOOPSpY9HspxErSuc/wAarkZLAda63wbp+nrd27sm9YI3Eh3AZ+9jP0IqlOO6PRp11FSjLVfnp+B8f/Foj/hOdUMa/u/NbDHvzXMWvm5UsjKOoPrXa/E50k8aarKFAQ3DsB2A3HiuYm1ZboxRiPBGOld7vZKx861GUm0bVm7w2DcYJx37ZFX4VEkayPcFUC9EO0fn1rNvY/s9gqkANKB8qnp0/pUMMRjhMaTMVY52muXdNnTD4lFuxv21xJCuElLoem7096wrt2knLcZLcAGuhhh/chf7oAJrGjsGnu2iXhVOCSO1QnZmsoKUXZ7A4mW2KyfIoIIIHU+ual0y42XKCSQFG+UlgauXVj/o1tANq8nJzx0Oa0dLtRBEIztYr36/hTdRJanMoXZBpd/dbSpQRqDli/U1L/aKzXDiI7gerL0FXpbdGV8jkjGaxls3j1KKMKWjA5btmlG0ldF6J+8y/b3Zt0kLEscksenFU9Qt5ZBJOr4BxhQe1Z+t3ssN+8akIFTGe57/AOFTENIgPJUjnH9arl6js4xuUo5JEWIOBhmyWIzXaWOpfaoI4idrIBtbsa5ieyQwjGcLzk06xuiu1c9TnNduHla5xYmLlFJ9NjsrS7MLPE4Ox+vqD61OXa0lVlO7I4PYis+yuTdxhSR5wHytxzVq2uGGY5iQucf7pruvoeZbV/iTSYOJUztBzjPKmtmw1AXMYVvlf+dYe+S3n+9lG6HsRVoI3yyQsdpOOOoPpWkZODuvmZTgpqz+TOjtrp5Tsc52cA+1atu+QOc11WgfAPxff28dzPb29mJACEnmAcDtkDp9K62x/Zv8QHBkuLUKf4lc/wCFYzlFydjammopM86gfOO1aEDcivUrf9m++TG/U4V91z/hWlB+zyIBmXUw/so/+tUXRpY8ojfgVYSSvY7b4F6fn97dyEf7NaC/BnRIBzO5/wB4LRzILM8RV8c1IrliB1PtXsr/AA60W2cJhnUcfKB/jWhD4N8PoABEdx7M2aV10Cx4cqueik59BUqQTE8Rv/3ya9y/4RnQ7VTJJEAo5JcjA9+RXF6p8aPhT4evJrO517TxcwsY5I4yZCrKcEEKDzmhSuM4dbO5ccROSe1Spp105AWE/pWnL+1R8K47lILSe5vJGIVfIspACT05YKK9N0fxXpus6ZaX9pbYt7mNZU8xcNtPIzQB5RHol7KQFiY+2DmrKeF9Qkx+5ce2w160+s26rkQR/ior5s+Jv7YmqeBvE1zpVj4as5I4wrLNNOQXyAegXjrjrQLU9ATwdfuP9W//AHzj+ZqZPBV4cZjPvyo/rXz5e/t1eL7kBYNH0q2PTJ8x/wD2YV7n8E/i/rPxG8P3V5qf2dZUkVUFuhUbSgPqe5NILNGsnga6OD5eQOc7v8KenguYfwD9a6abVJ3XBJxVUX00zBS5Cj0pCuYk3hF0BGAuO+w1Zg8EuYRKCmcZxtz/AFrq2Qy2RZs/KKj0hy9kmT045poDh7/SDGjB2IYdQVxXNyp5JxnPvXpGvxqIp9xBOd1ebXr7tjDoTQAzd9aZupm/PUUhbg/zpoQ5m/D2pjN1prGmPJ6imIUsCD3460zcT/KmlucZ/Goy2BTJJy3XtXYfBds/GTwJ1x/b1h/6UR1xJfA6V2XwVOfjJ4Dxj/kP2H/pRHQhpan6y14V+1r/AMijov8A1/H/ANFtXuteE/ta/wDIo6L/ANfx/wDRbUmdUtmfLgwB9etZWonMwHfANavtWPqJ/wBKPptBrKeqMYbmTqgDWk/rsIrz/W8mJuw4Bwe1d5rEmLG4Pbae9eeahMsrfdGCMHmvLrrY9rCu12YF7cRpdx4YMccDHoagnuVmdiFwe+OKq6jccjBHHXZ2NU7aRmZuST0yTk1yKHNG53yqWnYS/cXMDnGTyB+VcmiskjEAZB5rurexDmTJ5Ck7SOvFYU8EZlcjG5W5Hc89c1tDTRnNKTkzCky7leuWHWpEbBZT06YFPvIsXT7TwpB4HHSmTI0d0yAYJ4rqesUa0bczTL8IKRBDwCN2MUk1420D77dF962dO0WWWESE5OzIXHWnReF3nhWVDlO+FHFZRnGTdzonL2SXIYlkZptrtGGZece2a63wrlrguieuM4qXw9o62q3JmYLGyFVaTHc9q7TwPolmdQuEdwYQpZCQMZ4qnJbHbTrws6kVdpanzV8dle4vI43z+7Rtox6mvDZ4GQkKPbFfRf7R80U2vDytuFRgdvseK8HkADhuODnNdtO/KfO4qrCtU5oxsVrLQXngZ2PGcinLZ/Zjjrg1sWd7FFDsZgD2z0qlfTLI6OrqcnGM9Kz5220zP2cUros2SxwgFjucHGOxBrTuyhtM8heOD2wap2n2e4jEatl85xjiptVOLUqw2uvHu3vWDfvGlrIWw1JN+1j8hJH41qG8WBGdlzjp71ykVhLIFkUnHp61ckM7RYkZmxx17VU0t0a0I88rSNa0uZNQlct9xeQo7VZyx5IKqOtUtFRo0O6MhHGMmtRk+Q8+/FY3OmpaMrR2MnUJBI+zkDFZzbnOCQAvQZrR1KICRSe4x9MVn7WJ2xrwemepqo3uRUpx5FItWAgnj8pzhyRhvQ1PfW5sbU7nLkkBQfxp+nWgjuQkkfzYBBqbW0LLGqjkuMY71V/escdjHUvcSBFBDVbS1vEKuozt5pYbRopkcJg55rqIUVVwFHNTOpy7FRhcyLywn1RYXnX/AFYxknkj0/OrGnwrAXTbyDya1toIHQ00woCzdzWfPzaFOFloY17qTW8hWNNxHXNVY1aQs8zbX6cVfurZxOGAyO/0rJmdBfCMtk5Fb9NB0km3d2NdE3xcAtxz9KVGAulRivKcLU8K+XCMDgL0rm7zVcXzOhA2nAxUpO4lHnbsa8M3+mlm+4q4/HNXXuI/LODnPaud0+Zprl2cnBJJzVtwJG2hCPTAqmrsUo8pWvFi8xVTJ3HJJ65zSX0YMKMONnGPU1YEJmfzM7cY69jT7i3O0liW70XsTa5WsLgq4Ufyr6p/4Jyvu/bB8CnpldQ/9ILivlIoYpiy/TIr6j/4JvTlv2w/AanHK6h/6QXFd1J6aHFVT5tT9s6KKK3ICiiigAooooAKKKKACiiigAooooAKKKKACiiigAooooAKKKKACiiigAooooAKKKKACiiigAooooAKKKKACiiigAooooAKKKKACiiigAooooAKKKKACvBP2rjix8N+8k/8kr3uvAP2s22WPhr/AK6XH8koIn8LPngvxk8HFKHyDzj6VWEmDjtQJO3alc5iYsc88UxmwPX0qMyD8fWms/5GqFsPL9e1NaTjGM1GX6/40hbjpQMVm5600mk3Himk8UAKWpN1Nz+FNJwRQMfn1/Oml/Qimluen500tkVIiRmH0pu7I60wnA9qTd+FSMfuyevNVNVP+gyc46c/jVjdjvVTUzmylHU8cfiKTGjyP4j3LRLbAN2bv715RomqSW+oM6SHAPIX616x8RLNpFgwvIDcgfSvMvC1h5WtoJhwZARgehHFefUSdz1aMlGOprXGk3GqX4xGwzkZPT/OagsfB9zJLNLekW8YY4Yn3/8Ar16ilzbtEcwhMYxz+FZHidM2Dx7lyzfxen4e2a41JrQ63K6Zw8d0mjxXVuWN3CwLBYcErjcRn24x36V2Xg97O8tNTuraIxQFAcFcMOTn6dRXHXCwCV5CYyoU/uIgQCQEwDk88A/nXpHgSCO28Oak8UMcaZLgq2Sf4Of++P1qpWtcUG7nyR4u0K2v9cuy25GZ2OM8keuK5218Frb3JkM4IBO0ba6Xx3q23xBdOsSqwkYA4zkZrEnlu7+3E0dx9niA5CjkmtoylZajqU+WT0E1O2EFmPMcSyE9T2rKs7dpW2FMANnceM1sQ6eJoQWnec5yWc9fYDtVh4B5ZQYHHQUnPl0Q4wT3GQYV8+Zu3ZAqm8lxHeMEOC2HO0ZBFQxWkloCm7OG4P1rShkEC4kI8w9hSa0uW3yTaWqKGsyyvaxb0ZiX4UDnoaNO1sWKLGIsA985JNXRcTyyjbGiJ0BPJqW4sIi3nMoOEIxgUaW5ZGDTvdE1nqstzkFAqjrnrUi6jGZCqnLL14rHv7SZ0R7Ji0bcEA4qOFf7NBkmBO4Z3rz/AJ/+tWkYxS3Mm2ynqjSTX9y+7KqR05z0rUsmMixAhkUrtyvc4rLjtJLvUN+dsLsWJP8AKuj+yeQYRvPtz0qpNaI0e1rj7mIQWTuCcgZPvWJaSmSRnOAxbPA4BNdDfjzrOVWODs5I/pXNaagkJ38Rjqa3wyvc48TLRHSaVMFHmSZCA46csa1Le6N7OW3bQBliRgAViW6G5lVF+VQOB6Cr7kRARxk7c8sOrGvSsreR5jvfz/I05r9JpEii3FFOBx1966bwNdp/wlWk2qjdvukVyR79K43b9nTaP9aR8xx936V1Xw2torfxVpF1O4SOO4VsscAe5NNJu/cWiS7fmz7limu3uYgFjNvtO52Y7gewA6euSTXkf7RP7QOvfB1NPGk29rdfanKN9ozhAFyOFwTnB716j4e8Q6VrbGO2vo59gG4xtur5m/bogXydEeIZjM6oG752SE/0rjW5127nIy/tv/EO7GI4tHt89CtvIxH5yYr6E+BfxQ13x94KfU9Yu0nuxdNFmJAgChEOMfVjX57ohB5yOa+0f2UpwfhjMCeRqEvX/cjrRpWJZ71LrEzoV3ketfDXx4+JniofEPVrKLxFqcNhiIpbQXbxxqDGp+6pA65P419oNKMHmvhj40+H9T1H4q6+tnY3V2kckcamCFnGBEvcD1z+VKII4zTdev7rULdrq+urlRIpImnd8jPuTX6HeArhn8FaA+T81hAf/IamvgHTfhp4uldXi8M6xKueGSxlK/ntxX2B4f8AjV4K8KeHdJ0nVfENnaajZWcMFxbZLNFIqAMp2g8gg8Vcr2Ez0zXpm/si8Gf+WL/+gmvzq+JSeT4+19QeDezH3yXJP619jX37Rnw6vYpbYeIgxkUx/JZXBHIx1EeK8J1f9nTxf411q91yxgtP7Pv5WuYJJrkKWjY5X5eo4x1pLbUaPFtImMOo27E/dkVvyP8A9av0N+F7Kfh5oHOf9DQcewr5etP2P/GDMHkv9HtgP788rNn6CPH612lz+0nZ/CeGHwtLod1qVzp0So1wsqxpJkbhgHJx8wHPpQS9dj6OuGcxOI9okIO3d0z2zXw3+0D5a+KbzIG9mj2euPLXNehS/tsM2Vh8IZJPBfU8fp5J/nVvSPhXYftExy+KtRvLjSHaTy/sdqFdRwH5ZhknDgdB0oXmG258o5O4c19ffsh3xn8PapCxP7sxEAjpzIv/ALKKuwfsdeDo8G41HWJz6LNGgP8A5DJ/WuX+IsU/7PNjDb+BWeLzwftUt9+/dgvIx0A/1h6Dv7UWvoDZ9Nuw2/Wm2yZl9q+B9R/aP+IV6zZ197fJ5FvCi/04ru/2f/it4q8ReP8AT7fVNevb63eXa8UsnynKPjge4FJ7CtY+2pJFXTnC5LHPJrFi1dNK0ye4lBKREkheScelae7Nk3sD1rldVXzdFvYx/t9foakRyWofEtPEM00cULRKDwrnk47/AP1qxl1Jp1RNm3n196xoNOCElRtNXoR5YXPBGeTS1LdjR83njNG/I61UEue/NO8zAqjNkxcHv+lMZvQce1Rlz6U3fxjNOwhxORTWJyeuaazdKaX54P41QiUEEV2fwVbHxl8Bc/8AMfsP/SiOuHDccH8a7P4KEf8AC5/AI/6j+n/+lEdMSep+tteE/tb/APIoaL/1/H/0W1e7V84ft469L4T+C9vrVtFFPdW+pwxok4Yph1cHIUg9vWkk5aI6ajSi2z5y3DNY2pPi6OTj5R/WvGn/AGiNfRMjS9JP/bOb/wCO1WPx41fUZGZ9M0vcOMqk2P8A0ZTnRlFanJTqxm7I9L1uUtp9yRx8h6GvNrqfDnPT0pk3xW1C8t5IZNO08I4Kkqsuef8AtpWS2vm5OWsbX14Mn/xdcNSjKZ6NKqoXuY1xdebIQMgA8Z9a09E0qW6VmPyDIbODzUKw2jNuNnFnOeGf/wCKrVsL9LI7orSEE8ElpOn/AH1WLw9S1kdH1iF73Ham8en28oVh5oH8JrkNzMTJxyx4A9TXZT3UN5/rLKDBHIDSf/FVANPsJFA+xRjnPDv/APFULDTKWJppnHXvySzjgBkBI6c4p9paRTMHmmUPsyvPJrr20LTZnLtZrkjBw7//ABVPTQNOH/LqOmP9Y/T/AL6p/V6nLYueLpt3iZum37SoscbhSE256+1XWivNHS2LzARtN8w/hIPb2q5BounwTF1tFBIAI8x//iq1Lhra8hEclnEVBU5DODkdP4qyWEnHYHjIaM53+1lSWSFsyIFIBzx1ruvD8saWpnRSgIwQeMisWWGymcSNp8AYDGQ0n/xVa8Wv+TaiAWNsI1H/AE0z/wCh0lhqid/1LeNha12rnzZ8aZRPrk5B4BZR+deOzts68819fa98O9A8RzvNdWjB2JJ8uVh3+tYD/ALwhJnNtcnJ/wCflq9CMZKNmcEqkW7o+T2mYj8KLcNLKFxu56V9VH9nfwc3/LC7B/6+T/hUkP7Png+3fK292Tjvcmm6bGqsTwfR7SOCzDCFQ2TyB2rP1hmklwchQOMd6+mF+C/hlQoWG5AHT9+aWX4KeFpl2tb3H4TtXN7Gadzb28D5fhmWFFDbs1YEo2gtxkZAI6819IH4B+EnYkwXRP8A18Gnt8BPCUmM21zwMD/SDWnsm9yY1oRd0eB27KbROcDHFXomRlwCD+Oa92HwS8LBQghuQFGB+/PSpovgt4YTkW9weMZM5rF4eZs8TTa1ufOWpxebEGB24qLTLPe4lblV4xjv619JyfBPwzMpV7a4wf8Apu1LF8DvDiqBHBdBR0AnNJUJl/W6cocup4KI13bsfN61Q1SRInhZmAAcZr6QT4JaAF2/Zrggf9NzUdz8AfDd8F329wMHPFwaSoTvqc7xED51XUrI8gqWJ6elalu/mhWGcV7jH+zZ4WD5+z3Gf+vg1rQfArw7EoxDKuP+m7GpnhpvVFQxMFueBMAB79aXbx7V9Aj4IeHR1imz6+c1O/4Up4cwcxTkf9dmqVhql7lPE07HzpIgbcOxGKx20QNerOSMgjIFfUY+B3hvgGC4JPT9+acvwL8Njn7Pc/8Af4810xpTRhKrBnzhOgW0Yg44PNcRKNjkhMg8E9c19jyfATw7cRkG1u8HIyJiP51mSfsy+FHwPIvcgf8APz/9aiNKSNIYiEUfKunPtlXJwGGOPXFasaNMchtvOD9PWvpaz/Zo8LIw2Wt4zA5wLkkfyrS/4Zm8POB/ol2uOf8Aj6odKVyp4mnLY+WYofLXkYAOSxP4VMLclWw29cgc19Pr+zj4YjbDQ3PH965P+FJN+z74ajRgsU/zc4Nw3FS6MyY4iCPlC/RkYqFOOpIr6T/4JuMG/bJ8AYOfl1D/ANN9xUsnwQ8Nw+YvkXGCNpIuG6ZB/pXs37EXwp0Dwx+0x4Q1CxinS5hW82mSYsObOdTx9Ca6qcXFWZzVKkZy0P1QooorcQUUUUAFFFFABRRRQAUUUUAFFFFABRRRQAUUUUAFFFFABRRRQAUUUUAFFFFABRRRQAUUUUAFFFFABRRRQAUUUUAFFFFABRRRQAUUUUAFFFFABRRRQAV8+ftctt0/wzj/AJ63H8o6+g6+eP2v2C6f4Yycfvbj+UdJkT+E+cTITnnBpofaKrmQsKDJk8/rS6GBZL9Kbu/GoPN/OlDn1zTFuS7vekJAqPfzgUF85PamwJM0wnOcU3cf/wBdNLceuOKAHbvxNNLehppbPU5pC3Pt3xSELu7Um6mk+/NN3f8A66Q7Emcim7qbnikzikMeW61Xvj/oz/571JuqG8wYGB9qh7FLc838cq2xGUAkA4B+orgtFsRcSuz5V1YMGU16D4xuFVokwS2Cc1xikrZz+RtLjqR7jNeVVT5rntUHH2dralHxfc3FpZny7twCRwCeRmp9a16Sx0xJBMskhQYDjcARjJz9Mfma5bWkupoEjJ3KIyGYnklWyPzzXfaPFDeWFs8kYYeWrgHkDgf1zWTdmd04R+rxdtbsy7O4W4tWvntYEjRzggbmYHHK+gGd2a6nw3ew2vgnWWTCFxI0QHBx1/OuenZf7UaJJM/NyvGF54/P/GrV7pkNh4UvHQsreUxBHfj/APXUc13qY01Fqx8u+LUje/kdVAycMR1zmqtq8SRIJHJVh07CodfuguqzhiQA+fXvVe0mtpiQ8kZb0J+tdK2LqW5pWZYvJzY2bNFIyqT8hIBB71k/8JLMildm+U8bugqyk9mZpUcoUX7uTRZ3JEturshjYE+UIwOOxP5VatbVHK+a+jIbXX2VWa4ABA42L0qBb1r6QvGSDnkOOT+VaGoadbySeaAy7uML0pi6UqTZTdtwCMijmja6LhzqVpaj7e7ljkQFsE8YxU99fzSR7Dlc9OcbvaqaxoLqMLk7ThmP9Ku6jCs0ybcnZ3JqbWauVUnz3sZEd5ceakSMUjLY2rxmtKO4gkIguywUjpnn2qMQS24PBCt1IGTUwssy+dM2OAAPWtpWvczhJ8jj1ZNbiOOUxxgmFPmBbk+laKzrMgckfJ61WghTcS3AIHQ01hp2CpuQCOv7wZqbpmNmtC55/m2c7k8AHmue06Yq/HIPVav6gUGmsttIXVjgkEc1SaxmsLgxuOSMq46MPUetdNB2baOeurpXN63UxBZIycHoavFDMhdV/eDqB/OsrTLgx5BBYN1H9avMGgkWRSSrfdPT8K709PI85rXzLsJNwAjY8znBPcehq1YXclpKFbhQenoazpEMiGVQQR95f61Kkv2jaCpDjv6j0q02npuS0mrPb8j7N+F2gLpMcN0AQ0tsN2TnkhSf5Vb+IXg/RfGzW0etafHqEULl40kZgFbGCeCO1XfB7E6FpbdSbWPJPU/KKs6vIqurNgYzya476nUcXZ/CXwTZqAnhXRz/ANdbOOQ/+PA181/tFX114M8fpp2gXEuhaWbKNxZaZI1tCXLNuYxoQpJG3Jx2FfV82u6fbgmW9towOu+VR/Wvlj9oXQdT8beP1vPD+n3WuWaWscTXGmQNcosmSSpKAgHBU49x61cb3EePHV76/lAub24uCeMzSs/86+6/gOWHwm8PDoPLk4z/ANNXr4ytvhN4z8xP+KW1hSOfmsJV/UrX1H8N/iR4e+H/AIF0nRPEmrW+k6xaRt9osrhj5sRLswDKMkHaQce9U9hM9muZfs9tJJtZ9qltiDJOOw96/PD4qw/ZfiHrijgNOXHPqAa+v7n9pH4eRkofEKsR/wA8rWd8/kleG698BvE3xM1298R6OlqdLvHBgkuZ/LZwqhCduCR8yt1xSQI8R0+QidWPIBzX6J/DiZZPAmhEYO21RePYY/pXyrb/ALJHjRV3tc6PEfR7qQn9IzXott+0XonwrtYfC2r6dqd1qWnIEllso4mgYn5htZpFY8EdVFN7Cep9ByvnPtXwX8fhE3jy6I4l2xk+48tMf1r24/tk+HZThND1Y9vm8pf5OawT8Cz8cZT4tg1RdHtrvCrayQeY6hQBywYDmhaBsfMiAhhX2v8AstSD/hXki5wRcg/+QYx/Q1yMP7F1ioBl8UT7u4SyX+e+qev+K9R/Zx0qHTfD8EGs2czsz3OoE7iwwuVCEYHA6k9qNwep9Osc9OlfO37SFt9lsBczYKRzuTkcEOpI/livPZf2x/GTA7NN0OIHpmCZiP8AyLW74H8WXf7RWsrpHi1YI7FVLhNNVoSzL0yWZj/EaFvditY+aZ/3jHA4Pb0rvPgjqcmm+PtLkXOBcRE8/wDTRR/WvqeH9lr4eQtltMuZ/wDrpfS/0Ire0P4G+BvD1/Hd2Hh6GK4jIZZHllkIIIIOGYjqAabC56lEd9m2Peuenj821vI+248fn/jXQWn/AB7laxCADdgjPTrWaJPLhEFbGP4jVe5ZUZh/KrtywidySBhyMVzPiHV/s0zqqEnZnJ6dKTsVuWzdLnr+dBvURSWYKB3NcFNr13M2PMCj+6gqLMs/zMWY57ms3Oxoqd9zt7nxJaQAkybyOyiqieMLduqsB2Nco7hU+dgPcmqhvIGbbHKrMecKc1PtGHs1sd8niW2kwc4X3FO/t62IA3gA9MnrXk+ra1cadGXWLjPB9K5O68Y3pk2hivspwfpTVU2hhXUvY+iG122RQTLzjPHPSuy+BWuW1z8avh8qZ+bxDp45GP8Al5jFfG83ia8L7vPcH25r1f8AZV8V3lx+0b8MYJHVo5fEulbyRjLG7ixj8Kr2jbLlhFCPM2fvpXyt/wAFJZGi/ZvLKcH+2bTr9JK+qa+Uf+Cl5x+zSx5/5DNp0+kldKdndHPJJppn5eLKLiMbWzxyM9KfZAqXB56c1j2jmF87iBjnJroNI0q+1Bd9tZzyqf41jOK6ZT54HmwpezqaFmJskfzq3GwxjHPrV228HaxKwC2TqSQAWH+FbUHw51wj/j1cewU1ynYYUZ5/wqzG3Tiunt/hdrUuP9FkGfatS2+EGtSKP9GkBPc09AOMjP4E9qsRtg131v8ABfVmYboHI9T/APqrUtvgpfbctHg9sk0roLM81Q/SpVPevV7f4LTDGVB45Bb/ABq7F8HD/Eg/DbU8yCx4+mcjgke1TIkhGRGxz/smvbYPhHCuAyt/30o/lVtfhZaovIx9ZD/hT5kFjw5baU/8sm/KnLZzk/6ljntXtrfD6ztccRnOfvMf8Kli8GaeWw8cP6k0cyBo8SXTbhuPLx9TViLR7iQfcAPvXusHg3TYzu8tMk9lxUx8M6ehK7Mj6D/CpbQI8KPh+6xwD/3zU0fhi6dfuv8AUKa9xXw9YIT+6B+gH+FW00qyRQBF07k0cwbHhieDrw8iNyPXb1qaPwXeEjMMn5V7YbKxTOY1z7k/40v+hqQPLjJ+lHMPU8aj8D3LDJt298tVlPA1wekCgd8kZr1aa70+AZkMEeO7YH86gg8QaVPKYre5tpnXqsbqxH4CjmFdnm8fgac5JSMH3NWI/A0pI2mIemATXox1WLjAH5Uv9qR47fhRcGjg08BT5OSMHsIyasL4DfI5kJz/AHK7GTVwpyDn8a82+I3x/wBF+Hlms95LLKzSGMRwwsTkdecUJu+gtToE8BEHkH6Edf1p48DouSVf/vsf414Lffty6Pki2068ZvWRSP8ACud1D9uO6YEW2nbck4YxD+ZejUdmz6hXwdbADKLu925qUeEbVeRHET7k/wCFfHVz+2l4jl3eVbBT6lUA/rXqHwi+Nev+L/FIsr+6325gaQL5ajkY9APUUWe4NNHu3/CO28fSOAD155/Sl/seAYJ8ofRc1RfUnfncTTHv2I4ak7klue0hjYBWXn0Qf4037FFEMtKB+AzWa14w6mo5Ll5jgscUDNYQRSkhZP0FRS6b5OWDnGOmBUViT/e5J71rrGJDhslcEUkMxoEiS7AJY5xxnitkW8WPufgSawbg+VfxjOM8YrdjbKZ5qgZlatpq53xttz2NYN7C8CHcPoeorq9RDPBwPfOO1Yuox5i6D6CjYRxVyCHfnGa9Q/ZFb/jInwuMADbd/wDpLLXl10wE7jOcV6d+yKcftF+Fv927/wDSWanoNbn6R0UUVR0BRRRQAUUUUAFFFFABRRRQAUUUUAFFFFABRRRQAUUUUAFFFFABRRRQAUUUUAFFFFABRRRQAUUUUAFFFFABRRRQAUUUUAFFFFABRRRQAUUUUAFFFFABXzn+2Kcaf4W/663H8o6+jK+cP2yjjTvC3/XW4/lHSZMtj5n3/wAsUob8AeagD9eacJMk5/SpMCbdzzQGxUW+l389aYWJt2CaN3v0qIHnrSEj8aBWJNxOBSFuabnJx2pCRimFh2abk00tnjNN3daAH7vxpN3p3pu7POabnmpGSFuKTdx6VHnIz/Kkz+FFxEucCq2ouVs5SOwqYGqerNixl9OP51DLW55d4+ujHEp6sysK4S08ZQ6XLJHcJwXVCN2NvHX/AD/Wuy+IUfmG2CnBIbGP5V5Fqtk6dFw8jk4GO2BnPfrXmVnd6nqUrqOh1dzc/wBuzRNAvl2+4ocjJznjGPr+ldQsw0TTY4kHmbU2DJ46YH+Fed2Ogayfm8w2sQcudpxnjqB2PFdBqGo/2aq2sHmO/Uyu20Lk4ySenY1yL3nodfNJpRZs3tqT4ghUFmDgk56A8d/z9ua6XxRYJD4MvWUneICozzjg1yGnzgXaXMuMhTl92VByATk+x/Kt/wAS3q6loN9YSSeUFjX94CQMnOB79P1pcreqBPkdj5D8QxRvdziRsfMfu89+9c9Fa759qNgZ6ngCux8X6dDbXUsayDdu4Y/WuVjtQyykFiMEA44/ziu2F0tyZz99S3IYrZRcAvJuUHtzmrqy20F0zAkAcAH/AD2qCzkKAp0B/WoZraV1AwSemBVvXRg5c1nFam8kv223DLwA3H0pRK67gCScHIz3qDT28mNYyCRjk471dS2+8TyGrJ2WhSTerKlpb72yTtwauaiGSEbRgDGSKfFGLcs+KbJqEYHzpuHPAFNtydwSVNpjriYR2Vu7vhgw6dcZ5/SoJ3+3XAEBLjv7e9VL+fzolOQAo7Dj6UzTZxA0rbip29u9XbQcFrzrcXUropL5SSfKo2kA4+tYEhxO59SavzSbpCe/XFZcjgyuvQg4rogrIwxKSt3NiCR/sIb5iquMKOmKuC5lvrkySMSxxj/ZHYD2qrbSeVYgDqWA65rWs5hGAMZLcAV0UI812zzq8+XlRd0633ZZjhQOfUmrx33Eq5wi9AD0Ap9oFtULv1PLGrtupkbzpM88qD2ruUNLHnuo7tlWUkx+WikIOpx196cqmPairuLEZcdMelXVP2s5wfKXjn+KoZb3ZdRQrn/WLk+nNNxS95sSm21Gx9x+G1EGm2KAYCQKu30wBXgP7ac3meHNKj5VY7xH69SySDBH4V7x4fm8y2t8AgiIdR7CvG/2r/B+q+LtE0iLR9Pm1CdbwNKIV3FUEb4J/Fv1rgjujuPjJIYyRlFxnOCK+0P2TQqfDaZQoUfbpDhRj+Fa+cLf4E+OpCMeG7sfUov82r3D4U+MdN+Bnhp9E8bzPompzztcw2/lPcExEKAxMIcDkMMEg8Vq9iT6KZgF4r4W/aJj8v4r6q/eTaT+HH9BX0gf2mPh4wIGvOT6Cwuf/jdeSeOPhfrHxp8S3HiXwqkV5o84CJPPL5JLAkkbWG4dR1FSkB4Lak+YM9M9BX378EpfO+GulN7y8f8AbVq+Z7f9lLxwcErpsX+/dH+imvSNI+N2kfBTSLTwpr1pfXWp2is0kmnIkkJ3OxGGd1P6VT2sJn0LMwAIzmvgr48qF+I191D7It3/AH7X/wCvXuk37YnhlyBFomsyD1KQr/7UrBufgtJ8d7y48WWmpR6Rb3D7FtriIyOMDrkEDoRwKS03DY+aYzhxX3F+zXe/aPhtbJkFkfHHXlVP9a81T9jGYKWk8WxRnsF00t/OUUTfEKf9meEaAunr4oSX94bvz/se0gBNuzbJ/cJ696e+wPU+ni2VNfKv7TcZ061s4JPmYGWNT0znyyD+XNOP7at0wwvhCJfrqZP/ALRFTaRcRftSXxh1OP8AsFbQGRfsjiV2PAPLADGMdqF5k2sfMZ6lu3vXsf7MF21v8RLOMEhXJX/yHIf/AGUV65H+x54XH+s1jVn6fcMS/wDshqPU/gzpPwetH1vw9dXk+qQo8sR1B1eMFVPO1FXPDHvRcG0e9b+eRQGwQO9fE9z+1P8AEK3mZDcaejI2Coswcc/WpNI/ad8fX2qQxzalZrG5x8lkg7HGM574pWFZn3TYyZjNY0pxNc9eQKb4E1c694Y0/UHOXubeOVsDHJQE06cf6bMp7p/WpQHnN/F5txdKDkiRiPzrzrx7ewacFkmkCBk25JxXplyuzUrkAceYf514F+0Ovkx2hV23ea/yAHGOO/5VEzekuaSTMO98eWdkCYIWuG6ZHAqvD8RlcKZSsKn0XI+leZPJI6s68+2cY9sVe8nUr+CMfZT5XQKCF9+9crXMtWdvLGL0X3noT+Iv7QclA1xH2KHrUEfiK0gm2oz7wfuqmDmuOEl3o1qyMXiLf7X6fzrYlaOHSre5jYHcPmz1JzyaXKYysnob11frqETqzBAR1LcisUeHba/l2w3W6UdVJzUdpfxalEyB/LI49iadbWtzZ3W+FSGTkyYwv8+axcZRdjtpTjGDs7Mr3nhq4t4ymweZnG31H+c16X+y9Yw2f7RvwrgK7pV8V6UxbOfm+1xfp0rgFvhIXnvpyXkO3YjcqPpXqP7NVq0H7QfwskhUSRP4q0r5y2Wx9ri/z+Fa3aauYTqSmuVvQ/e2vlr/AIKPxiX9nFkPQ6xa/wApK+pa+VP+ClM/2f8AZsdhwTrFqP0kr1Y7o8+pdxdj4E+BHw3sNd1573U0+0xWg3pF/CWJIGfXpmvp5FtrVQkcCKOgCjFeD/s4SbdNunXksEBJ+h/xr1e+1i+sr2CC1svtTSNh5WJ2p074/wA4rKb94iCutTrrXa7AGEH261qxxRpjMax8Z5IrnFlkW3yWw+OduRzXz58fvjpqvwoayXT7CG8kuJSrPcysFXjPQf41mtXZFWPqgzRLxuX8TTWu4l6On51+dtz+2P41n4itNLt8/wCw7Y/M1Rl/au8f3IP+l2cPukJ/+Kq+RhY/R7+0YQDmRcD3qKTUon6uPTg1+f3gD42eM/EPiuxhvdbmaB5Y8xozBWHmKCCMnsTX2Ot24CnJ5FJxsLyO2F9GDgMMUkuqwwgDOTj1rkBfEAjJ/OoZbkuDk5pWA29d+JGh+Go0fU9StNPVidrXMwTOOuM9e1cfqH7Tnw+stwbxPp7MP7js/wCoFfJv7VeJdZ06ZgGCtOvPpuFeCgqD8qqB7CtFFWuM+/8AVf2uvh+khCaobkrxmKJiP5Vm2f7V/hjULgx2FvcXLHnJ3Lx68rXwmkuD1yPrXXeBpNuqdOkR/mD/AEqlGINH6Rw6080MbKdisoOPwqxHqZRDk5Ock1z9gf8AQrft+7X+QqyD155NZtIlGu2rFU4FeWfGn4o6x4K8M6pdaUsAuYYFdGlQtglgOma7uWTI614v8flFz4e1VDyBbxg/9/Af600lcZ88ap+0v8RNT4bXVgz/AM8IAmK5u8+L/i6/dvO165bPX5Vz+eK4+6jMM7pz8rYzUJOD6VoyrWOgm8U6rqDZuNUu5s9mlIH5CvpT9m7UGOvtGHJV7VX/APr18oQSYYZyf6V9M/sxNu8TWvqdPK+/BFDehLPqcOx5p3nHA5phNNJ9+BUECyzNt4NfNH7Qlkt/YgOPlN1IAw7E9D+lfSUjZ4r5y+NIz4btjzxdLx/wFqFuNHynf2r2l1JG4+ZScE9x2qkW6+3Nb3ilw2pADghOa58jgdjnrVMomjbnk5B719G/s83jN4x0+TgF7NgefXZXzahO/Oe/517x+zrdGLxVoXPVpIz9MN/hS6A9j7HTJGc0MAfekXpTs1KIZBIpGO1MjA3E8mpJDk8VGinPfk+tAjTs+ecjFbsAUgck+pArFtY1xwMAitp51SDaF5xjNShs5jUj/p8behNbtu+6NemcVzWpsTdIeeGP0rahuVihBZgB0GTVXE0Wr1s20hz0FcvrF6LeAEjLHoPWs/xF8SrCw8y3Q+bIDt4YAfzrlLnxP9s/ebCxIz16Um+5SV9R7XJlvXBGOM161+yNgftGeFcdxd/+kk1eFrq5Fw+YsH/e/wDrV7R+x5eG4/aN8KDaBxd9D/06TUdSran6X0UUVobBRRRQAUUUUAFFFFABRRRQAUUUUAFFFFABRRRQAUUUUAFFFFABRRRQAUUUUAFFFFABRRRQAUUUUAFFFFABRRRQAUUUUAFFFFABRRRQAUUUUAFFFFABXzX+2i2NO8Ke8tz/ACjr6Ur5o/bWbbpvhP8A663P8o6T2JlsfL6yEdT2qQMORmqok59qer8kioMiyGzx0NOVsdarq3JHbPWnK2OKBFgPn29qC4x7VDuz7GnZqriaJN3rSFsE1GCc470m6mIfu/z0ppbp7UwtSbqQD9x+lIW9eKbnn2pNwGaQWJA3BpNxzyfypu7qOopoNSMlHNVdTG6xlHsMfnU+7kc81W1I4tHB56Cpexa3R5r41RontGGCff3rzm+e1iu4lly+Q4G33Ir0LxnC4mtyCB8ufxya8j1WOaaaCaNSQjMxByDjIx/KvHrJylY9qnbkTPSLQ+ZErevIBrnPGGmyzIzW8RnlYBdnbAbJ/HGayNK8WXr7Y0jBKuV+Y9u3612EeqxxOnnuoc8kA965qEXF2aLnUtaUHZo53xbNNo3h2zgQLHK4VHyQNox83Pp1H41Qa8nmsLj7TKs0jQqSA3DEYAJ/z3p/xJvXvLvTY4l81GdlwB3wuP61i30sZuHhlmMOIiGRDnH3Tg4rrasjroyUqTUt9WeR+IWL6lOSo+8RhcnA5/Lt+VUI4lCYRSe2etXtYLy6hIsbKIsnG8ZNNt7YgKxIDHqR3/zitb6I4ErsqwRIjFpAc4GDVyOeMYGCv1PWqsoMLEMSSO+KrvexrIwBy2M4rOzbOxOKjuaM04TlFyeoOaEvjukDBY9oGM1mx3IFsztkc9D9arXNwJWBXpj8aqMLsic4qOhuNdbkAYgcdu9Y813JLcOoUbAfSrNqvlqJZiNqgFQeKrwylpmJGAxJ/WtYq1zmm+d6aECSyMpUt16D0p6KyLtVTyOop8UO+Q7QTgZGPpV3zQQWJ2N0weB15/lWjeuiEnZFRLB/lYlQGGc1mxQW0XmNKTu/hrfaHcHAk3AcZFRN4VWcrJ54A78UKaV7sqo3KzsULv5bO3AJXe2fp71u2sQkVccMCMH0rN1OJB5MKtvZW+8O1bUNq9qRu+YMMq4OQw9a7cM00zycXdNNGjaSGRfKkX58c571cty1sSrfMhOAfSqMUQlGCSGHQjrV6CTzA0ci/MOuOhr0Eea7E+x7dvMT7h+8tRtaLd3EDrgHcuD+NIHa3dY23FT93/CiIeTewOmdhkXK+nI5o3Q1o/M+39GAhggAySIwOPoKNTfMwzzTdMbKp6beK5X4nfETR/h1YwXusSSxwzS+TGIomkLNtJ6D2Bryz0TpEb5a+T/2tOfFunMfviIqB3K4U/zNejL+1V4KA4/tFselr/ia5Lxd4dk/aR1CHV/CssUNvYIYJ11ItE+5sEEBQ3GFPcfStErMR86RZ3D2r7c/ZjlDfDKMA523Tj/xxK8Yj/ZL8WEgi90dB/tXEv8ASI11vhv4j2X7N9gfCniW3ur++kkN4s2lIskIRgFAJkZGz8p42+nNW9tBH0k7ALivh79pNBH8TJk7+Xuz7b2H/stex/8ADYXhN8j+ytcY+ggh/rKK5nWPhfd/tC6m3ivRbmDTbAj7OYdR3CXcCXzhAw6SAde1JLuGx84w5DL9a+3/ANmm43/DeJCSWSYA/wDftDXko/Y91xQD/bmm57/JJj+Vb1v8QI/2bLNPD+o2smt3E58/zrZhGigKq4+bOenXjrTe2gtz6Skb3r5J/autltdXtSOfMJP/ALMf/Qv1roT+2bYMOPDF1/4FJ/8AE1BPp0f7UciTwZ8Pm0BkImHn7gcJgEFccpnp3pINj5gXOetfQv7JU5j8UToTw8Mo6/8AXP8AwrcH7GsezDeJmV/UWeR+W8U+XwM/7OFrNr9reDXpYUJMDp9nBVsKecv0wDT8kJs+kw2RnPSuD+LyMfDF3KB+7W1nDE9OU/8ArGvDP+GzNSzx4atFHPBumP8A7LTT+0rf/EINos+kWlhb3A2vIJWdgD8px07MT+FJJk2Pn3VZjc39xIBtVnJGabpzmC9gk6BHVvyINfV6/sgeHpWLtrmpEk5AVY//AImp0/Y/8LxjL6vqzcc4aIf+yVTaY7nrPwUnEvgHRQOQtsq/TaSv/stdFd8X78dUas3wH4et/CemQaZavJJBCGCtJy3Ls3P4sa1L8E36dQSG/kKzQjz++XGq3Pb5ya8j+NqeRAk5ICJJ83vkCvY9SiK6tPx1OeK8i+O9q8mjTMmCwlQjcOPuGpkrmkH7yPGLfWbJpAiyR724GByaffTeUm4dAc8VgadYQyXKMys0iktkdFNdFJGZIypHGOtcLtFnU1q1HYw/tqX8scaIxIbOSM8VJqqjd5QbLDkKORyP51T1iwFmyyxAhcZypJAP+cVNqEcjaVDMvyXByW2jlhk/0q5K9nE0pTUX76HW8ENo0RTJlXklj/n2rodKvHvUYlRtBPJzgj1rh7K4by2hcsVYg4PJ/wA8V1nhiGSSd7YIQMBvk7Zz3pTjy/E7hfn1irJFuHw9G0zTTSu8hOVTPyr/AJxXoX7OKrb/ALSnwrRpcsfFWlYUjH/L3F7c1z1zZjTrb5myw/hPc9a7P9nCBbr4/wDwruHTY/8AwlWlkDeT/wAvkXoayXNzJsjTofvFXyZ/wU4YJ+zKxP8A0GrT+UlfWdfKf/BSuBZ/2bCr/dGs2h/SSvZirtI5Zvli2z4t/ZxTboMzn+Pbj2wK9vjI6jHPrXjvwNCW+jt0UcYFewWk0dywBYGsqitJoiD5o3JJWzERwufSvjf9spSyWj/eEd2FB/7Z19tiC3jiZiVzg856V8VftnYVITztbUE289cxH/A1EdzRHy6h5ODU0TYI5qNV645qRV+XnjHathXO8+FcuPF+nYO0mRBz/vrX36jYVee2K/Pn4ZOF8X6X2zMgH/fQr9Aon3RqT6UpbIjqTFs4prPgU0v05pHPGKzGfI37UZ8uazz1M04Hv8614GVHAycivfP2rISNU0uMcFp7lv8A0A/1NeCvEy9vzrRJ2KGqD1rpvCDbdTTpny3xz/sn/Cubjj3HpkVu+G51h1OH5gM7lxnuVNWkxM/RrTWD6fbN2MS/yFWc9PWsvRrjzNJsmPUwof8Ax0Vak1CCJd0k0aD1ZgP51iQTSucYzXkPxzUHQtSGMg2iscezn/CvQ5/Fejxk+ZqtinPRrlB/WvOvi7qemazoF1DZ6haXVzPbSQpFDOrsxI4AAPrVID4jvHMtxIxx8xzxUOMdua9Atvgt4yvfueH7oD/aAH9a0IP2dvHl0Bs0NlPYOcD86u2u5R5hGMOM+tfR/wCy/NjxRp/P3rSVfqQ1cXH+y78RJCCNMtVGP4rtB/Wu88B+GNV+BbjW/FLQJBZRSb4LQmaQhzgYxx196TtsKW2h9Us3Jx2phYdMYxXzve/tmeHAzC30jVJCBwZERRn/AL6rCu/2zgxPkaHIOePMAP8A7OKWuxFn0PqJiM9a8C+Pcf2fSLzPIjuVlOOgBDf41wt1+2VrTgLbaBZA88ylgP0Y1Z8LeMb/AONetWtj4gWG30/UCRLFZJtb5emGOfShKzuyump88anO11dTTMcBiSAew9KqCM5IyOuK+44/2Xfh+pDGxupG65kuCc/pWnB+zn8P4OugRy/9dG6/liqbTHdWPgYqqN2H41678AtQRPF2joDl0umGPqrGvqNfgL8Poydvhay/4EXP/s1YvjzwZofhHw9dSaBpdtpFz5Eknm2qbWBUZBz19aXQTaZ6gs6pGvzAfUiopdUtYh89xEvrmQDFfnfr/ijxBHfTxy6td7lYjBfn9Kw5/EGqzjEmp3beuZ2/xocbaMlRP0cuvFmjWm7z9UtU29R5oJ/IVSX4keGQ/OrRHHojnH6V+cpvLiRsvczsT6ytz+tdP4LmeS6uVaSRsxg/M5IPNKw7H6R6deRXcEU8Lh43AZGAwCD0NaxOVHuM1wPwtujdeBNBlJLE2keWPU/KK7xTujB55GKzTuI5vV+JFOP4jUmoSf6CgHr/AEpmsqN3T+Kkuv3lrGPfNMbPB/FEf/E6uwBzvNSaTcNaJtYEoQOPetXX7Uf2vcsVx857e9VFtQBxilJF7qxKrrJNuT06V7h+xkuP2jvCuT/DeY/8BJq8Qgj2t04A9K9y/Y14/aN8KcY+W76f9ek1C3BPWx+mlFFFamoUUUUAFFFFABRRRQAUUUUAFFFFABRRRQAUUUUAFFFFABRRRQAUUUUAFFFFABRRRQAUUUUAFFFFABRRRQAUUUUAFFFFABRRRQAUUUUAFFFFABRRRQAV8yfttvs07wl/11uf5R19N18w/twNjTfCPOP31z/KOk9hPY+WFfJzyalVgMn+tU0cHIycdqmRgRWZiWQec1Ij1WVs96ercev1pgWA2P8A69LvPHNQBu3WnBuPWqETF+9IW9elRbsZ74ozk0bAOJH4Ck3cUwtyelNDZHqaBEpPX0pM5NM3U3d/OkBIWFAYVFu45pVbGaQyYNVbVHAsnJ6DGakDe9UtckZdOkK9cjt71DGjzLx9qAFzbrv2HZnpnua890+VbmZmMgdc4x2OK6r4jt/pdrtbDeXnGe3Oa8m0+/khvBGhbdk4z/j715GIbT90+jw1OMqWu50Gpxi1PlwlY3bJQ9PmznFZOiXd7dXkTX3mIqMAxc42n3Hp/jWZrGtzWtwZSC8qHkMeB15qbTPEM+pwSiUDcxxgZ5x6AfUVVOUoU02tyPY+1k0uh1muTY1ywGciP5yo6ZyOP0NZ+oaYby/uLoqyeYzELGM5H+c1p+D9KaZJm1CFv3Ks6kng4GRW0Xja2k8xFBVcKQO1FTmStEFUgoKNtUfPmtoseqOqI2Aeec5565pYokwpAxn1q54lfbrkpCtgMSATVcyqXGKqzsjC5UuLIyzFpAFiIxknFUZNCDSOwk4xxnkmt2dA6gsAcc8iqtzaH7PIFO0nPINOMmuo+W5yk48qTYWUkHkA1WaTc4IY5B7CpZ7Q+ZtVdw6s1JHYSDDKMjrwa6lYxl7raaNXTUmvLdlGdq9Cxq7DpBSIrKec53Cn6GVityA+xupDdanutTjgKAEyMeDgYrFtptI0jeSSIJVWxgQRgAucEkZ61nypukJkOR647fT8TWlezL5eSDjjA/GoIViZTIEJCHPJpp21IerH2apDaMwGRnOT3qFbmS53QsxjTr8hxk0kl3HHBIg+Xcc+mKqrcMWLR43Hue1T1bOlL3bWJCbezRPNwrZ2hcdTWquom5cM7gKOAM8KPSuXv3lnYCRwCpG7B61c09SzHP3RyT6V3UHy6nlYlc2j0OqjugowpBJ469KvwzRRR53B2HLEHJNc9A7yuiKAF6Af1q+8xjTy1Hfk9z7V2+06nn+z2RopOjne7ruPQZzj6U+wmSbUYNzYjWQcetZbOYEGeXI/Ku4+C+lWeqeL7b7fbpdQgk7ZScfdbnHfnHWh1LKxSgr3Pr62jMbL6YrwP9sSQN4Q0xccm+AH/fDH+le+WsvmIp3b8DqTXl/x3+Hlz8StMsbG0uoLVoLjzi0+7BG0rwAD61xx3Os+IUGH9PrX1X+yK/8AxJdfHpNESD9G/wAK44fsoauR8us2Gf8AaVx/StrRNVH7L8EttrSNrD6uweL+zsbYxGMHcXK8nf2HatXtoSfTYfAz1r49/auiZfH1mx5za8n/AIESB+RruJP2w9K6ReHb+Qdt80a/41n3PhSX9pyY67aSxaCbUCEwXAMxcH+LIxjlTxz9fRJa6i2Pm+IYYda+0/2Wpg/w5lAOcXh/9Fx15uP2PNTzx4hsf/Ad/wDGtK08fL+zHaL4Y1G0k16adzci4tCIkUEAbcMSc8Cq6A9T6YZsL1xXyF+1vGU8UaexGSVcEj/gJH6Gur/4bN0x/wDmWb7/AMCE/wAKp3+ij9qKQahYSf2ELL7yXQ80vu+X+EjGPKP50loLY+Y1J3d6+ov2SbgLNexZ62xP5Sf/AGVZ7fsc3+cjxLaf+Ajf/FVbsNLl/ZdR9Tv5V8QR3C+QIrRfJKljkHLE9PLb/voUwPprHc85ryP9pJN/w/vyOvlEdM9HSuGP7aNhuI/4Re62jp/pa5/9Bqte/Guz+OUY8KR6TNpL337oXU0yyKhJGCVAGecd6EtRM+YXzkg81qeGpjDq9uVJH3un+6f64r3tv2Nb5if+KntfY/Y24/8AH6fD+yJfaS4vB4nt2EALlRZNkgDkA76LoLn05p04ms4JF6NGrAn3FTSMccHivnG6/aug8ISvos/h2e6n09javOt0qiQp8pYDacZx096hk/bOs9pA8LXH/gYv/wARSsybM+mtLP8ApP4H+Yp198uowk55J/lXCfBz4mxfEvS5tRisnsBG+wxvIHPQHqAPp+FdprE3k3du/X5hgD8akDC1fTJf7Tdth2sBzivI/jpYzjRZjGpyMORjkja3T1r6NUSTwgs4AP8ACq9K8j+NmnxnSbzeucQE4+gJoeqKg0panyTZ3D7/APUYAOD7H6VoPc70I2npWJdX4tdQlhj4G4k849+Kh1HWHgcOpAU8EZ6V5VSDbsekrdEV7iV45wk+SM4XJPSr97DJf7Cp8lUGfvYyfSsS/cai8bxy5wCMdOfUfpW/pzR20KqWYnGTux/hTvKKVtyeXW9tDJsrI/bCrl4QrffK7tvv7/8A6q9S8JWEQhnuFG5USMA9CTk5+nUV5pfXItr1ZAAyOcYJxmvV/B0iTaFLJGAqMqcYxjrxXRTbnJc6MKzcINRINauCLQmVQgD4ABznrWx+zjOR+0n8LDveJD4r0pRx9/8A0yL+eazteIfSeCcmUDPfGDW3+zjZpL+0H8KjuYsvizSn+Y56XkX+FXOKiyKU312P3rr5V/4KTvs/ZuJwD/xObXr9JK+qq+Sv+CnTMn7MpKHDf23afykrvi+WSZnUXNBo/OTwr4v1S2VbW1u3t1Yj5Y+M16/8OPEOpz6kIrieSVGJBL8n1rwr4VFdS8TWsbL5hzyv4H/9f4V9I+GtISzvlkUFRnp+VOvy8111MqHNycsuh6E0xETAnivl/wDav8H6x4qg06PSNNudRkS4SR1toyxACuM/qK+l3kGwj2rnNVUeZnOTXNF2dzY+Dofgd47uGGzwvex57zKE4/E1rW/7Nnj+5AYaVBHnr5lyg/rX2qrMeuMVIBwKvnYj5E8O/AXxj4T1e21bUoLSCxs3E0rLcq5wOcADP0r0e5/bA8L2zGOHTtVuivG5IlVcj3ZhXqvjcBvDd4o/iAB/MV+fF4vlXtzHn7srr+TGn8W4W6n09dftjWWT9m0G6b0Eu0fyesyb9sLUpGP2fw/AB282Q8/ka+bgwY56/SrVryw7dqdkJn1P4R0Kw/aLe4vPE0clqbMK8EenybP9ZnO4kEn7g/Ouxi/Zg8BR4/0O8kxxl7kmua/ZaBS11IDobe3J+vz174OuOtJtp6Bc83tv2cvh/CctoSzH1kmf+hFS3XwV8DaNaz3dr4ctI54kaRHJZsMAcHknNejj1rD8X3Ai0eVS2DIQq49c5/kDS5n3EfC/jD4leLP+Ej1ezHiXU4be2u5YY4IJzGiIrkBQFxxiubl8Ya7c487XNRl93uW6/nVr4jw+R471ojpJdyv/AOPmucz74q7jsaDape3GRJfXUh/2p3P9a9K+C0jp4oscO7g3cJIZyerDPU15XESemK9M+EEoi8Q2nPIuIW/8fFUncHsfeQJGCOKTqMfpSK+QCKCxxWViBkhya8V+PURvPD2tRsBgRxKD7blP9TXtDHPOa8d+M6iTS9cB5xGhP4bT/SjZjR8UX1u9pcPHJ/rFODVYcVs+I5BJqkpGCMAZBzzWNj/OK0ZY+MnPXpXuHwAm2+J9AwR/r3X8cPXh6dc+tev/AAHuxH4q0rPCreDn0yCKkln26jDHNOZs596jRvlBzSlsjFLoZ9Rp5PtXm/j2Y3tprQbcR5EsajrwEI/+v+NekEetec+K7ciXUYmIzJv6ejD/AOvQUj468Z6aJQ94ijzE4bHcdjXDSgA4GPxr0DxfcCztpYGIDsSuD7GuAm5I4zjvWjAhPBxk/hXSeC32atj+9Ew5+oP9DXOc59MVt+FHKa1B2znrz/Cako+/Pgpd/afhvorA8pEEP/AeK9JRsRivIf2err7R8O7SMnJSSQY9t5r12L/VViupDMLWf48+oNRyHNomOef6VY1kZWTmqww9l9CKsDzHXoydWmBH8R6/WqqxBSRjj3rX8RQbdVlPUkjH5VQKfNzSZRC6becD869m/Y1/5ON8KfS7/wDSSavHbgAISOcdq9g/Y0bP7SHhPGOl33/6dJqSBbn6b0UUVqbhRRRQAUUUUAFFFFABRRRQAUUUUAFFFFABRRRQAUUUUAFFFFABRRRQAUUUUAFFFFABRRRQAUUUUAFFFFABRRRQAUUUUAFFFFABRRRQAUUUUAFFFFABXy9+3GQNM8IZ/wCe1z/KOvqGvlr9ukkab4Px/wA9rr/0GKk9hPY+UlYDGTmpkb/9WKpIx6frUyueR/WszNlxXxTlb3warh+O5qQNjuRxTETq2cAflTw2R61WVvr61KGH1BpiJM5+tJnHv9KYWJ9qQnigPQezdaaX70wtg80hI56UCHls0m7HT9KjZ+KaWoAkaQfhQJe+c1E7cVGZcd8UhltZB6VW1WUfYySRjIpnn471T1i6xZNnnkVEtio7nl/xHRFnifriLhQcdzXj8DouqKSMKj56YyO/SvVviLJ5kikHpF/jXmFnYhrr5gfvZ6dea8as1dpnvUFJxVjP1Sy86edyCVI28dTgn+lVUsZI4HaBChXpnPLcfriu1+wqLyAOvDOFI9frWxJplhZi5lmwscbbDxjnjH88U4T9xJ9DWSdKV11M/wAN313PbQxzSswJUEe3el13VvJlkCt1XGPxNWdKZJpZnA2qr8L0x1pNZ06xaN5Zm2kDgscd6tVIt3a0OSpSlGXK9zx7W7iBpZZWZd+axbS68yfk8Vr63Z2QuZcSZXcej9ayYhaRuREyl8eua1TjZk66DtW1XYohhb5+Nx7D2qq11K1vvuWYqfTp+X+NQz2bvOzIQ3PQVZ+xt5QFxJuRR9wDFTojoWi2GkZhUKAARnpUMUbCUkkFQRwO3tWhb2sflNMSQuOnp9KjtbiFnkVlG1OCzevoBQipON7vcmZ4bdAZAF3849aztSnSTAUHIIxuHbFaeoWXnlCBux0AFZ17B5chUDJI5BHNUrWM4Plnc0Y7aK6iXeBjrwev+f6VXu0SCVVX5VA4UCprVjbWaBxlwMYqtdTCZUPAk57dKS1MpbkN6hNsxxxySawpXngKlWIz710NxIkkBjVhuIxg1z2oReVKqhs+uKuA5S0Kf7xrzdI3UjPNbVk7I3GP6VjWvy3QDglN3JHXFb0tmbSRCG3xyDcj+orsg7HDVs3sasChkDpzjqB2q9zMmePMA/76rKsZjEcgZJ7HvV5gFxKmQCfyrpTujjas7EikuNr8AfdJ7e1avhDxW/g3Wo7tomljU/Mi45ByP61hzy+bGXAG5Rz71VaU3MZVhg/wsKTV9Bp21PsP4UfEy18aGeK0SURx/wDPRcYrs9SUPKGzXhH7LERWC/fj/WYr0X4w/EA/DjQV1NbH+0PnCGHzvKxkgZztPrWFrOyNWzrom2gdq+cv2tkJuPD55IPmn9FH9KE/a7jUf8ixIT6fbQP18upI5/8AhqGQR7P+Ebk00FgWP2oSAkZ/uY6j16Vok1uSfOyAg89c19a/smOP+EZ1ME870OPTmT/CuW/4ZHuM/wDIywdf+fNuf/H6sprrfsuRLY3cX/CQrqfKvAfI8vZk8g7s58z8Me9U9VZCPptXBHXivkb9rpAfFunyDg7GGf8AgKV0iftkafjnw3dj6XK8f+O1nalZL+1Dcrc6aBokmngq63fz792Om36CklbcD5yTPXJ5r6p/ZGuP9D1WPP8AyzQnn/bf/Guak/ZA1pfua3p5/wB5XH9K1dBDfswCWfXt2qwX2I1GlqGKnOQTvK/3T09afoB9NluOteCftYW5k8ILL/CskZ/Itn/0IVDH+2H4TY86XrSj3hi/+OVneKPiBpf7RGmHw5oCzWmoMwZG1JPLjJznGVLH+E9qEne5J8skdh0rt/g7dGz8f6RID/y3jHT/AKaJ/wDXrum/ZI8ZKRi70Y/S5kx/6Kq5on7Nvi/wfqVrq9xc6Ube0kWSQQ3EjPgEdAYwDzjvT0GfWoI657VFfgSWVwg6tGwx+FeNp+1l4FAGTqak9jadPyNSH9q7wG3Bm1AA8c2p/wAamzJPlj4ooF8f67gYBvJW592J/rXJnkAZ4zXumufBDxJ8TdWuvEegxWraZfOXj8+4COMfKwI553Ke9Zkn7K3j5AD9lsOf+nxf8KtvUD1P9jm/LaRqtqTwrRyD/gRlH/sor6F1pdxgP+0K8U/Z2+GfiD4dPeDWoraJZkVR5MwkOQ7HnA6Yava9XYeVG3cEc/iKz6iNi3nSOFS5AHqTxXlHxt1SzOmzr56HdBIuFOcjb7UnxbmunjtkinkiTdk7Gx2HX868f8VwzLpknnTs6+TJ/rBnGBzSbsUknqeAa2yPrErdwQP0qdopLiPcRkkYwaqzpHbX8reYH+c7QR0+lKNXjYMpcKR6nvXDUvKWh3QfKVZLJoTuyAB0wapanqF3apCEmwobcvAOCPrV77Xb+aN8wlA7DBFVL64tZShONiMGwB1HpVw0krlznzRsh954lubmC3nmVJlBKsGTbzxkZA6V7J8MLs3nhWbbgqNrAjqeT1/ACvJdTvNKawjFvaCMYKcZ6559cdMZr0r4GjzNEv0JO07cY7cv/n8a7ElzJo86o/d1NnxRdrFp6xgbmMgOB9DXQfs3XQH7RHwqXIUnxZpQwT/0+RVxXja4YWUZXvMP5Gnfs2Xjz/tTfCMMWAHjDRgAT/0+Q1E4Xlcqk9LH9EtfJP8AwU8OP2Y2PprVp/KSvravkr/gp3II/wBmRiwyDrVoD+UldC1ZUnZNo/Mn4FyZ8f2Qb+Ikf+OPX1rbRiJxwOtfJHwUU2vxF07Yu5XZgPYbHr63jHzKBgH3qKisyYyTV0aUkhaMjIAxWJqSs7KAcDvWu3AP0rKvzh6yGQZ/CiofMAzk+9AkHrTEZPjEkaBc/wDAf/QhX5960Nut6h3BuH4P+8a/QLxZ+80O5C8/dP8A48K/P7Vo9urX5c4JuZeP+Bmrgr3GVAO3AqzanEmO/pUaQZPf6hTirNvaysQUimceixMf6VpZiPq79luXdBqQxj/Rrf8A9nr31W59frXzf+zRef2PaajLqG6zieGJI3uBs3bS2QM/UfnXtM3j/QLb/W6tbKB1+fOPyrOXxCszqi/y9BWF4qXz9HuMLuKgPk9sHn9M1z8/xj8H25bzfEFogHqT/hWPqvx18Cy2lxbpr8EssiGNVjV2LEjgDilqI+Pvijz491dQOlxIfzY1y+CB3r3bVvgP4q+IWtXmu6RZ25028kMkUtzcCMsDyDt5PII60z/hkrxqxwW09PYT55/KtNO5VzxCPO7P9K734XzeX4it+SMPG3Hs613Mf7IvjE9b3SUX3lfP6Ka09L/Zt1/wdcpqV9rFkYo8BktlZ2PzA8ZA9Kat3Jb6H1ZDIGRe+RUhbj61813v7Y2k2Dm3t/DeoXBjOwM80aZx7ZNZ0/7aaM2IfC0in0e6H+FRZisfUGQOOory74xQZ0vU2AA32TP07jP+AryGT9s3Unb914YgAPQven/4g0+z+N+pfFG4GnXWmxafBORas8MvmNtk+XPKj1p2YHzvcF55WdgSWOc1CU54I9a+0bb9lPwcVVpmuLg8EF2YY/ANWpa/syeBIcB9KWZe4JYf1ptpjufDaIQBkfpXpHwbuhB4mstxAAvIP1bFfVsP7PXw5thj/hGIXIHV5pP/AIqsnxB8P/C/hiOYeH9DsrC9WJnMyR73VguUILZwR1z1pJpA9T1GF/3KnqMdalV+P61+fPinxx4ut9WuYJPEN8VDEqu/jB5GK55vF+vSsS+tXx9QJ2X+RptNC5bn6SyXCqPmYD61ynjOS1FpFctNFGytsy7qMgj3+lfn63iHU5vv6rfP6ZuX/wAa1/C93czaqfMuriT92xBaVmx09TQlcLWNPx7pWoX/AInvvslhdXkKSMiPbws6kZPIwO9YcfgTxFcMNmg6i2f+ndv8K+8vhPctP4D0hyxZhAgyev3R/jXW5OeBT5uYV+p+dtv8I/Gl2MReGNRIPf7O3Pp2ro/DvwJ8df2lbu2g3ECq3WVWUYwe+K+7SfWmbicDNSx3ucV8GPCuoeD/AAy1rqKKkrSs4VWJ2gknuBjrXqdv/qgcfnWRFyp7cVrW33R34rMi5l6wNwcY/h9Kp253WTYHp0rQ1ZeDn+6azbTizkH04qug9zivFEZ/tEnjt04NZL/6wEA9K2vFQ/05TtycCsSYiNgScAihjGXRAt27V61+xg+f2kvCQz/Def8ApJNXjmo3W2zlIBOBn616R+xBqEtz+1D4PU/KmL3I/wC3OapTLSP1YooorU1CiiigAooooAKKKKACiiigAooooAKKKKACiiigAooooAKKKKACiiigAooooAKKKKACiiigAooooAKKKKACiiigAooooAKKKKACiiigAooooAKKKKACvlb9u4403wb/ANdrr/0GKvqmvlT9vEkaZ4Nxx++uv5RVMthM+S1IOMHHep42J5PJqkrYH15IqeLv/nmoI6lsNj3p4cEVXUj8Pano2D6/XtQJlkNheKeHyarhucA8U8PnsKYibdjPJo3DBqFmyaUGmIkyCaaW7+lNL8YzTC2SOaAHsxPQ4ppIHFN3daQ5akO1xC1Rk5z0qQR5/wA4oKBeuKylUS2NI029yEoT0yB9az9YtS9qxMrAAjjjH8qfqOv21jgbgzE4CDJZj6Ad6W4uVvNOlyMNgEg9ua55zk0dUIRTPLvG0AFyVOSohzk/jXLWmlgSBxyB3z0rf+I8zW9xIU6mAAj6muavNbSwsHkI+dhn6da8qUXKdz2YSUadkat9cW1laeZu/eoS/Hbj2rk4fE099G9q4XdNIXx6EkH64/OqD619sXa7Md6dB06/5/yazoJRDqG4sByec9Oc1trHQ2owjUV5b9DrNXd/D9gIzJsmds/L34rgPF2rXN9p8jNcOeQVAPT9a6DxXeG4vCPNLlQB09q43XlP9nTZ98An3/8Ar1VJW3Na1ONSi6j+Lc89nuJWdgzsSTjk1Jp0rCcKjMCeCQe1VZxtkPucCrelH9+pGM+5r0JaRPmottmxFI1pLJ948568099VLNhk9OKmlljD5cA8dwef1pjIxKSrEoHbcea47Xd2ekpWVkXdUmMGnLGB87dh2rAjuslwMFmfdz0q9qs7zQjOPr3rPsraOWYK+cnpj+daQskzCone5Zn1y7WUqr7k4CttprajLKq/IWlJwWpk0Ae/KHmNSAfetm3torZMImOO9DlGPQmKlJ7kE9zJHDlsyM/YdBVaBxIjZJIHzcjjPtV262OAOhHIrHdlsrKcE7y2TTik0DdrpkBv2uJx6KDhvUUxh5hDHqe5rOgnCy85xz0q7amSdgI4nlJ4wgz/APqrZqxLaexJHtikUsAwBGQO9WGvZp5fMcFj0AUcAegq7Z+G7qWVXmKRRg52jJY/0Fb8GkwRDG3OB1NCmoGc489jAtJ2LA+W4/4Cf8KstNNNgeUVUdscCuiSxjHQVJ9iUqMKAar25HsFucu7SsPL8p9vrjrUyRtGuAh3HqSOldCdPB7Zpw0zI+U0e3YewWx7L+y/C0Wl3rMMEzHr9BV/9qvnwFggE+aoHf8AjSuY+EXj3SvBEc8OrXK2cLMXWV8kZOOP0rT+I3xF8DfE/S5dKl19rBVdT5/kEgkMpGCe3y/rVxld3MpQadj5V2HPSvov9k07NS1TPUwk/qlVrH9njRNYRW0/xdBPuwVGxWOD7A16T8KPhUvwz1C6mbV4b5Z0KBRF5ZGSvuc/d/WtnJNbmdj1cH0NfM/7XEJE+iv94F5CMDoCqjH/AI6a+k43WQkKwJ71538Zvg9d/E62sBa6hbWcls2f9I3YIw3oPcVKauFj4nUfN0zn8a+kf2Q5tt7rUec5jB/Ir/jWdL+yJ4hUEpq+lM3oWkH/ALJXpPwP+Des/DLUbybUbmxniniKr9lkZiDlOuVH901basSeyFs8AdK+f/2s7Qy+GbeUDGyWI/8AoY/qK+go4dw6jP1rgPjd8NtU+IHhL7BpSwtcq4b99JsBww6HHpmlF6gfBeDwBXqv7O1x9n+IumdQWmUH8mH9a1Zf2UvHi9LO1c9Rtul/rXQ/DT4C+NPCXjTT7++0xEtYZkZpEnjbgMCeAc9Aaq6sB9Tbs9KzPEXzaNcqTkYBI/4EK0Fifd90/lTNQspbqynjSMlihCjGcnHFSSz817nKXEgHY4xUSZJx1r0zXvgR44j1e88nwxqEsXmuUkjQEMueCOazn+C/je3Pz+F9TGD1FuxH6VpJ6gfWn7PNx9o+GWnNnOJJevXlyf616FdSYwK80/Z20rUdD8BCz1Ozms5458iOdSrYMadvrmvRZQ0sjEZPaoELb4Ku8jBVXueMCn38yy2SSIwKHBDKeDyKS40wT2jpMu6NhyuageOO101YY08uKMbUT0AqOo9DnviPCHs4X5Jyvf2ryvxhah9NKEZDRSDtzxXrPjwbtHjfONoU/rXmviCBbnTo2IywbBPoCD/9amwWx8d63dAajOuQBnt9M1ltcYORk/U10uv6B/xNJiDkZHtxgVnjQHAHGfpU3ijfUxhO4bINI0rMMEmujh8NrIPmY/lUz+FE28OcHpmj2kA1OYiZiu3PGc4Pavd/gaNuk3gOCcr0+rYryb/hHvJkA3de+OtewfCS3Fpo16f4l2kcegY1cZKUtDKsmoD/ABlZIbfYD0m64xwKs/s1WKr+0/8ACdgBgeLtIIIP/T5DVDxnLi3hQDjzQxYfQ/nW5+zRdKf2l/hOuOT4s0nkjr/pkVYVpOMkka0IpxbP6Ca+Sf8Agp7GZP2YyAcf8Tq0J/KSvravkb/gqG7J+zAxXqdatB+kldi3Ilsz8zfglJ53xEsI0AKqW5/7Zv8A4V9ZxEh19c18k/AEf8XAtScn72AO37t6+s43Cuvc5qarbkRCNlZGk2dmc9K8F/aW+Jmu/D/R7WXQngjnknRHeaLfgEP26fw17vvPlkFe1fL37WrGTRX3fMFu49vt+6Y/zJ/OslvqWjx6f9o74gzg/wDE4ij/AOudug/pVJ/jv8QLjr4muI/aOOMf+y15/vzt7evoKkT2x9a20EejaL8S/F2tanBDfeI9QuoGJLRPLgNgE87QO4r7K0Hwb4eOl2cyaFpweSJHL/ZkJYlQSScc/WvhHwm2NVhPQhXOfT5TX6B+GH3eHdLJ4LWsR/8AHBSlsiN2TR6DpkR+TTbNfdbdB/SrK20MH+rhjj/3FAqUsO350xzwe1ZjPmX9r4C4sdNY5IhuQMduUavmTykyQEUc+lfT37UyiTRmLfw3qDP/AAA18xA5ANWnoUKkKDogH4VueG1RdUsm2gYlUdB61jKMnH861dDcrf22P+eq/wAxVJiPvP4QSh/Aen45CqF4+grs8ZFcJ8Fm3+BbXPQOR/Ku6HBqHuSIcge9cz43BbSVQdHlVcfga6SRhzzXOeMTnTYz2EwP6NSA/PrX4PI1OcDoTms3rz1re8aHZrk8YxhCR+prCFaPUoehw38q9A+FcwXWoADhhPC3zf76156nB4rtPhzIU1sHOAArH8HFAH6A2Z32kR77RU2cfSqGiymTSrZickxirlQjPUcT8vJrzvXJC97eZYkmRl5OeM4xXoTdK4fxZp/2O7Ey48qZi3f5W7/n1/P0o3A+M/iFZqly8ij50laPJ7jJrhHGD146da734oXJTXry2HGJ5WYHj+NgK4Rx8/T6Vo+xZH9Tn1xW94TYf2vCCPvKy/pn+lYW3A+7itjwy23WbYn+8Qf++TSBn3P8FJhN4AsGAxgbcfQAf0rumrzf4Cy7/h9bKCAFmlXH/AjXouStR3Mxxxg4o4H+NJncBxxmlyPXpTuBLGcHFalucqM9MCsmNsuo7HtWjaPmNeedtSBDqf1/hNZlhhoJBntWlqTc/UYxWXppwrgZp9B9DkvFYP2mM4yuOfeuevR8sZGRzXR+LBmSI8ggdqxPKE0e00PUa0Ma+y1pMM/wnrXof7CzN/w1L4NDHqt7/wCkU9cFdx7YpUPUAiu1/Ydvoj+1p4It1IyRfnAP/TjcVns0bRVz9baKKK3GFFFFABRRRQAUUUUAFFFFABRRRQAUUUUAFFFFABRRRQAUUUUAFFFFABRRRQAUUUUAFFFFABRRRQAUUUUAFFFFABRRRQAUUUUAFFFFABRRRQAUUUUAFfKX7ehxpngz/rtdf+gxV9W18oft7nGmeDPTzrr/ANBipPYD5FjbOOcmp1brkc981UVz74PFWEY4OfwrIgnDdulSKw+tQ7snP8qcDz1BpgWFf8qkVucVWDHIOcVJuyOO9MknLZHXtSbu9RjJ6dqkCkkH3pXQWbEz+NKFJzTwmakCY9vaolNI0jTbIljz0/lUgTA5pJJUjB9QKybnVGlGIAGycbsHH4Dv+HH0rBzcjaMFEu3V9DaJlnUD1JxXPXur3N6WS2UqO7uMAY/z/wDWqSS28tRLdSEspJwxyfTt0+g9epp1rp0mq7Sym3sh0UcGQfh0FToXuZNhpB1C4Yw5dx/rLt+QO2EHQ10r6Ytrpj29uOg4JOST1Jz61oxQJBGqIgRF4AA4FMuZkgiLSMFUdSazk7lngXxU1KHTrkCZwpdAh3HBTBz/AJ+orzTVvEVk1q0UTieQ4yc5xXrXxO0PQfEzX0skMsl1NHtEzTNtj6Y2r0GMZ/E14ddeDb3RTI6kXMR6YG1h+Fc7s9jqjfqOluE2RMvAwcj8f/1UsF2CC6gnHX24rF+0GQLEvyyLwUcFT/n/AArWgeW2g2PFtRhg4/GnJtI6ITS0Qy8v3ml4yc96zfEE4bSH+YtnGAOe4/wrowYFY5UFgOoHYjqR+dZuuWtv9h2KpyWzn2p05LmSOmrUU6DTZ5S7O0rBFLd+K0NNQmUFsDHJq3JcWummZSg3N6io9Ic3MruBiIc8jk+1dk3o9Dw4xs1qWZL0Q3wyu7oM46cVZhuXubkHB8tR0P0rJnmMd1IxHJ4APtVm1u/JVyWA7ZrJrRWOmnLlvc0NSgP2cEY+WoLEJEm9iN5Ofw/yapXmt+evlxAu5GPWi00fU7sZWBkUnO5zjP4VPI7ajlOLVuwTaq0d1IqFFXdyx5PQU99eUoBHlm6VoWfgUswe6mLseWCcCuksdCtbIBYYERvULyfxpy5DGLn0OMjXUb3AjtnJPcqVH61dh8I3V0v+lShVPJVB/Wu6WyCr0/SpUsycDB49qXtLbIrlvuzmLPwtY2hBWEOw/icljWmtmFAwoA9AK1xY5OCD+FTLZYGMfkKhyb3GopbGQllkjip1szg8VrC0BJG0+lTJahfQVNy7GOkBBHFWFt8fwmtQW4GTjGPapVs884wKLkmYloCMFasRWKr2J960PsvIHU06K3MYwSSTzyKLjsUTp0Mq7XiDD0bmom8M6e5ybVPwGK2fLJ/vZ9AKURsBgZz6UrsLI55vB2lXB+a0UntgnilHgDSE5WFgQeAJDXRLBkE5/MVOkIjXj5qrnktmJxTM4aJG6bfOdCR1DEN+YPFOi02/sQotfEGrQkdCl65/mcVpbcY4bH5UMqgZIINPnn3Dlj2MyfWfHsIAtfF92UHQSKpI9s7arR678TH4/wCErm3Z64Qf+y1s8YPUZ60sTiM8ZNV7WZn7OPYi0/W/HtiA/wDbjXcwHH2l96Z9wRXd+GPjTr2l2TR6/osepTZ+WawkVOPdWx/OuTByOoANNZFI5PHXrimq0wdKJ3cf7RBFyyz+Dr9bYDhoZo3b/vkkD9aj1L9pS0tCvkeEdYmB6l/LX+TH/OK4ZVH1qN4QysMEDrkHFUq8uxm6MTuLD9puxuHP2jw3qtqqjnARj+HzCp5f2pvD9qTnTNcYZwSIVH1/jrznyo4wM5OO7Nmo5LaOXJZFI+nb8qft32MvZI9Jg/ax8Izj99BrNq3pJBn9Qxq3b/tReBrl0U3uoRbjgl7ZgF9Sf8/SvI5dHspVxJbJtPtiqE3g7SJiT9nAz/dOKtV12D2KPoSD47eApUBHieFS3QOrA/qtE3x08AWaGQeK7Rz2EYLk/gFNfOEngLS5uiSKf97NUpfhjauSVldcditWq0SXRZ9c+GPiBovjmzkk0vWUuYUYq52hSO3pWd4z+Jvhfw3aNDd6xaJNgARiQFueM8dK+Uz8Pp7aJ0t9QngjbgojFVOeegNZdx8NZ5izPcGViOWfJP501WiL2LPpbWPiVpfijRI49Nbz0KgCf+HgjOPyxXMzaksljJGwJJHBA79q4LwwYfDOhwWUzMhiBLOykLyc9enetiPUlkG5JQ468HPp/wDXrpjyzWjOWXNHSx5brHh+8/tCeT7OwQtx6gdqoDSZFHzxshHYjBr2UzRzDDRq2P51Xk0iymyPL256gfhWcqN9maKvbRo8mSwaM9CfbHSrK2LEnAHPfHWvRJ/C0Dj5cEewwaoy+GWibCiueVKaNo1YM4d9LJ6gfTHFd54CsRBp9ynZwOPw/wDr1Ql0aSIjchOK6TwzC0ds46fNjBqqPMp2aFXcXT0OR8bJ/okLhSTv9+OKv/szyqf2n/hNngf8JfpAHp/x+RVF4tA2BBjb5hAzWz+zboYP7SPwmuF+XHi3SWJAPOL2I/0rSqlzImhJpH9AlfJv/BTbB/ZmbOMf2zadfpJX1lXyH/wVIYr+y5IRn/kNWnT6SV1xdncma5otH5sfAOUP47j2gKAHGR6bGr6jQ/vUGf4q+TfgG5j8aRtt3EBsAf7hr6rs7hnkGUKj3rKo+aVyYx5VY12OEPevl39rstDoi8/628iI9v3bj/2U19QE/Ka8A/ab8E6t410qzt9JtGu545o5GQEDgb88n/eH51mviRZ8bAYx3p6ivSIf2f8AxvIcHRTF7PMoP6ZrTtv2avHE/I0+32/7VwAf1Fb/ADJucH4ZYx6pbk8j5h/46a/QLwydvhzSh6WkQ/8AHBXyZZ/s5eM9MmjubmGyhgiO6R/tIYgd+ADmvTP+GovCXh6BNMlh1Ke5sVFtL5NuNu9PlbBLDjIPalLVaCtqe9M9NZ+CetfPc37YPhxD+60fVHHclUH9aYv7YWhOPl0DVWP1jH/s1RZjK37VsZi0JMDAku4jz7o4/wDZa+ZPKxgY4HavpvUNVi/acYaTp8UmgPbgXHnXmJN2zIwFU/8ATTrntSJ+x1cc+b4oj56BLQjH5tV6JWYHzOqHPOav6Wdl3Ax4AkUnP1FfSafsdQlSH8TyjOeVtB/8VT/+GP7KFd7eKrsbBuwlqo6f8Cp80UB6V8CbnzPAo6jbcyL/ACr0PzSfevlnXPjFefAtofD+maZFqsMqm58+7mKNluCMKP8AZ/WsV/2xvFDt8mh6XHj1aRv6ipt1EkfXrHI9KwvFaeZo0h7q6n9a+Vj+114yfhdP0pR/uP8A/FVJYftF+MvE8v2O4XTooXUkmCFg3HPGWI/SjlbBpnmPjizaLxZqiEYKzH+lYRgPfANfaPhL4M+EvF+jW+t6jYvcXt2C8rswILZI4BX2roE+AfgmMAf2NExHcqn/AMTVXQXPg5Y8A5IxXQ+C7pINXfDru8kkAnngivt1Pgv4Hi6+GtOlz/z1gVv6VQ134feFdCsfOsfDml285cJvW1TODn29qOZA7M6vwzIH0W1YDOUBrVDZ96+BPH3i/wAUaf4iu4ofE2rwW+4lI4rt1RQOMADp0Nck/izxDLkt4j1ds+t7J/jU2Fyn6UF/lPPTrXO+MFEml5JxskU/TqK/PY+ItadwW13Uyfe8k/x961vDeq39xq8ST6leTK4bKyXDMDxnoTRbzFymz8UdNuJ/G+p+TBPchpmIMUZbgkntXMx+FtXkxs0nUG7/AC27n+lfcnwbWO48B6czojOFwWKgnI967wKqjAVR+FU5X6Anbc/OFfBmuSn5dC1Jv+3V/wDCtLRfBHiWPUraT/hHdUUCQZZrRwMHjOcV+hm5h36VV1VyNOuSSSBE3f2pc1ugN9jxz4UeK7DwL4VNn4hvYdJnM7ukNy4Vypwc4611D/HTwTG2G1y3Hqd4x/OvBfj3pKajfxHYrSi1BQkdw7ZrwCWBVP3R9KOXqFk9z7zf9oTwFEpJ123YjPR15/WqMn7SXgYMcaoJMcfJs5/8er4YwAM7Rjp0p0QAbp+VGgcqP0I8KfFrw94t1KG00+aR5GG5SwXDD2w1eiWBzCM+lfFHwEuxF4z8NMDkSKY/yX/61faemsBEB6cVm9xC6gOB/WsbTzzKOtbd+uVzgVi2BIupBz1pgcv4uU/uyfaseAnHtXQ+LUxbqSOjYrnYThc+vtQ9QWxl683lTqAOGAPNQ/sEXs0v7cvgBHPGzUQQPawuaua8EVVZlDYU9R2qv+wzID+3l8P0RBGqrqanAxn/AIl9zUW1R10X7rXkftHRRRW5AUUUUAFFFFABRRRQAUUUUAFFFFABRRRQAUUUUAFFFFABRRRQAUUUUAFFFFABRRRQAUUUUAFFFFABRRRQAUUUUAFFFFABRRRQAUUUUAFFFFABRRRQAV8nft8/8gzwX/12uuf+AxV9Y18m/t+Nt0vwX7zXf/oMVTLYD5AU4/8ArVPEefUdaqqxPOenpTxc+QNxG5M/MMdv8azRJdDZNOB/D61GvRWB3KwyCOhFTQxlyDjjPWnsIeiMSfSp44uOtOSPA9TU8cRx6+1ZuZooDUTnpk+9SohPNSLHtwTx9KbNOsYPSsXK+xsopbinai5OBVG6v9hMaDfJjIQf19BVS4vmmkMcTbc9ZeuPYepppjEMJLgwwkZbd95j6moGIY5bp2LtuUcFf4F/+KP6Uk0iW4xFlpMY3HrjP6D/ADzTg004UIpijwMDHzH8OgH1q3Zaalr8zYaQnOfT/PrQ3YaRWt9J89vNu8se0Z6DjqR+JrUGAKCwH41zniHxPFp6tGjZkxzg8CsnK2rNEruyNHWNdg0qEs7Av2WvONf8WXN8cmTZGcYQcD8ap6nfPqExd23NnqTx/Kst4GZwN271z2rnc2zeMUireTS3JIJ7cZ5zVKXThyzgNx3FawsHJHU+2ad9jIQDAXHt1rM0OZu/C1hqCYmto2Y99gB/OsLUPh4AmbG6nRuysQVz9K9BFkXIzn86mNiqqMgkD3pqTQNJnjEmg6/pJdXtkuYSPmZCCQPpTFtE1WSK0YtDKwAw4xg45r2ZolIO6Ige/eqt3p0E6DdCrMem5eRT5ru60GtFZ6nzf4g8CXEesSRCQFQfmdsYFJFpMFmoSIvcP/Cqjr717xeeD9PukVpbRXCcqGyVH4ZqkujQREiO3Tj+5zitvatqzMOSz0PDR4S1LUJmd4xboeeSCfyFbdn8PoVRWn8yXPYnA/IV60ulKTnysAevSq8yRfavs6qS+3dkA49Ov5VXtW9hcnc4iz8LW1ouY7eOPHTA6VpJpeSOP0rqI9OVlBKYI9e1ILIK2QAB2rNyb3LUbGCmkjGQpIp/9nAMcKCe/Sugjtd2QOnvTzYhTgLuHXpSuOxhxWh6bDzU62m7OQa12tdo4zUBjKydeR60XCxnLaBiM+vSpo7PGQB264rQS1yoz1pwj59880rjKK2u3krk+uKk+y45AFWzHnAyTnPenbQBwOn40XHYqC1OM8H8OtS/ZN47D6VOTgZ29O3XFOBO09yRQFiqkGDwwIpQhU461I8oQAFuOmFqAs+TjI/D/PvTuKxKUJH+NAjY54/KpYt7Lhs/jwaDlTjqOxouIh8tw4AAI9zTtjheAM+9TEjngZqGeYoCUG8AcDFAgLcHcRu9alEW4dRn61BFKJwDgr9R0qZCQcZOB3FACNCp4Y/0oWKKM5OR+tSt5e4DPJpSBjoPypkkbGMYGc/WnkJIMbuOp20w7cHOMCnx7QORg9etAxixorHoTRLIuOo9sUrRpuJyfp2prRoHOCQPQUCIZsseGPpxVcyNk7iy9sg1bKxEcg+lNlgTaCB+tO5DRScMCMMSPUmlWNiMHJ781NGkynkxkdiQak8wgjIT0yRigkijj2dPwqwvzA9iKFAY5BH0FOMbZ5bryMCjzHcYQH4+9g+lOCqBnHPrinbgg5qJ5VlADN+OaLgEsSPwB06ZrPbR4A7OiKjt1ZRtY/UjrWhIuyPIOT7imZBPI56U02thWKRjnj+6+7qcHmgXEsQPmDr3XkVppZGZc5AHpVW+ltrI4mkUY5xnmu6n7VK5xT9m3YYt6sjDazY/2hjtVlJjIgJGCSawLnxXZ2u7y0LMBwT/AIVjXfjO4l+WFQgH412KTS1OVxXQ7d3THzY56VWGt2lgCBIvuFFefXGvzT8sxZvrxWfJePJ95iT+lLn7E8l9DoPEGrLfToU27N7EA9cGvQf2ZiD+0F8LOn/I06VyP+vuKvFxKc5AZ27cV7D+zFDJ/wANC/C0kHA8U6Vw3/X5FXNVd2jqpK1z98a+Q/8AgqQjSfsuOF6/23aH9JK+vK+S/wDgp0M/syN/2GrT+UldsVd2FN2i2fl/+z6C3jiEE9n/APQTX1ZbgrKvp3r5o+A1pGvjRZQDu2OQAOhx1/n+dfTEL5kHbrWVVcshQlzK6NIyDZ07Vj3fMh+taZPyk4+lZN23z9eazKIwOalUAVXUndyan3YAoEZviSUx6JdHOOAPzIFfAvjuH7L411pMAK15My4GOrk196eKRu0SfnjK8f8AAhXwj8RWEnjjWAvWO6lBPb7xq4gc+Dz1qWEjP1qJRj2NSxjLDkGrsGx9EfsqSY8UPkffhmHX/cP9BX1WeT/Kvk39ld9vi4AHjy5v/QUr6wDUpbiH8AYzmq92N0Dr6qR+lS7sDrzUUhB64qST4s/aKTdrNnIe1umPb5mryEDI9/WvYv2j12axpi9AYcdPQn/GvHgOelXbQtCj0xzXQ+EZtmtWhz95ip/I1zwHFbXh19mq2Z6fvVHNNC3Pu34QS7/AWnN1xuH/AI8a7TPGcV5/8E5/M8A2nOcSOOn+1Xehs8fpUE2B2Bziuc8ZqzaWhA4SUMT+BH8yK6Fjk9vwrE8VfNolyPTYf/HhQKx8R/Fm1EWuXXGGWZgPXnmvPXOWr0f41/u/F91CMgbt5/FRXm7jngcmr6FgODxmtrww2NatMn+Ij/x01jY5yP1rU8Ot5er2jHH38AY9QaEB9w/AqQv8P7XPG2WRcemGxXoR+leYfACfd4JKZyFuJOo9TmvTA2Tx29ajqZseKzPEMxh0e5YDkrt/M4/rWkzYHQ1U1GH7XZTxYyXQgfXtQI+Z/jGoE+nv0OyQE/Qj/Gvm2/C/apQOm4/iM19G/HwvZ6dZy8Bx5qc+p2V83SAlySMnrWq+EdiEjcTjgCnRkh8EZI7CjaT2OKcilWzz61BR678DrryvE3h9s/NFeFOfQg/4ivuPSJCytk8bq+BfhRP5Orac24rt1KHn2LJ/jX3rpLfvJVBP3s1m9GI0r0Awk8Vg2YxeuPfNb12f3LfT0rAg+W+Ynp1prYDG8WLi0bGMh+P1rmYOp9K6nxV81o5x/FnmuXtx2FD2DoVPECb7ZMkAZrU/YjhiT9tvwUQiiQf2hzjn/kHz/wCIqhriA2Snr8w7VsfsZosX7bvgQDqwvySe+dOn/wAKjqjSm30P16ooorcsKKKKACiiigAooooAKKKKACiiigAooooAKKKKACiiigAooooAKKKKACiiigAooooAKKKKACiiigAooooAKKKKACiiigAooooAKKKKACiiigAooooAK+Tf2+wW0zwWAM/vrr+UVfWVfLX7dUe/S/B5IBAmuuvX7sVRN2iNanxtFaYO5m/AVMbMSoyZ69M9quGGPIwp9quW+nK4DkFV/U1z8xXJd6HMRST2kqRyMRGjdD2HeumhtggOTk9MCqPiCyje2d4B+8wYznrkjjr+NReDdQU25tpcCRTgZGCPb8h+hrFzubKC3N6OABemR7U6TahHY+lStIFXJOPWse91PdP5auqcAkueg+nqcHj2pJN7lNpFm4uwkTEkKAMkk9qykjl1SUhSUgXhmHf/AD6fn6UGyVmaacuIV+bdKeTjoQOi/XGavQJNcRqsUfkQdmYYOPYf1P5U722J3IkEVidkaGRwOo+Y46dPSoltLi/lBlRoowc/MO/+f89q17e2S3UBRljyzHksfU1KW7HpUeg7dyvFAIkCoOPc02ZxAhdztUdyafdXcdjEZJX2IB3rz7xP4v8AtIKx5EOSABn5veolJItJs0db8XKN0dueP7wrg9QumuZCxYs+M/K1Pa4M6uSMgdB/n/P40wWnnoAX2EHjn/PrXO3fc2SsVmgeRMb9nYjFSw24T74D4NXBarH3ycYBzmhoh2Cgeuc/4VBVyB2Gfl3ZH4cUqRAdT2yQc1L5SIGbKke3+f8APFMaRSSEwT1ORQVcEjUNkqMdMbf8/wCf0R8HGF7ccZFMF0i/K+eOen+eahacXC702tGemDkf/XpDCRN5AyDzxxUflqDlju7D2p5jxuPVm4OPX0/z/jRNwSNvzD1Gf170ybsoX8m4eWo2L3qCK0VQNowOuc9atvEB8xwTj061JDtwAMYz09T/AFpgUWgLrgnOe/rUDWyLj5AX6VpXDeVndjnsf61ApUsSQGyMH6f4UAVjAqp0A/GopLcDOAAQOR6VfYllIA+h6E0igYwe3YUaBczYLchhkZI6Y6fWrAgBwAM5PQd//rVa3bMfL15z/h61WN8puDHkqxGcD0/zimC3GS2ygjI69/Wq3lDGMA54471oOrEE/MPT/wCt61E8ZPU4zxjP+eaLgQiIDHyE9hSJCCSfLIA4GRjNTKNyuFYkjgn0p8XEhLMeBjr39KBkPkICRsPpSLagt/qzg+varZxJ2IPp/jSFyMgH6n2oAri145X5T700W6kHKYzVrzARzlj6dzUbAHv169aBNkElqrEZUHFOECg8Y+lOmbap55xjmoVmWQA+3SmSSGOMYAbI6AZ/+vTWtA7FlxwO54p8OOoGaV5MheSMevNBQz7JuH3Rjtyaa9kuD8oyfxqeKU52NwPcVPtUDIPXrg5FMmxmfYQnOAfY4p6QgEcYHTnrVtgCeT8v0qJl8sZC8dhigSRF9nVAxC5bNDxkLnYOfepo33c98454zUoORgqG9xQDZQa36YUc8cGnJBlsYx2INTnGCpHHT1zURkCH7ynHfI4pi2GmEbiAfwFIsIIPG4+x61KspOTt4PA78UhcNn09aQiERDnIFJ5aoucipZMjnPNV23NkYyD60xNjZUQgALnjPWq6wlztCYA7k81YMJJ9/Y1Eli6sGWVuOcD/AD/n3p6EO5HLF5YJAGfc0+B3Aw3UdBn/AD/nvVny2XOSfoTTWiIHX6gUhWI1DbeRnHpxioSsYl++Nw4696nzyeT+PrUbR7W4PC+gpjFaRAvA4B5FQyNtbK8n0OKeeFPPzDmkkOVK5+XOee1AbmjYyDyVB257gV554wnMdyiliOOh+tdTcREtwzIeQDnGPX+dYd74WXU7jzprqeVscAtgV3xxEeWzRxSoS5rpnFPKnqM5pkfnTnEcTMPUgjFd1B4NtIiPlPfJ21qQaRbwqNqAkj2qXX7DVBvVnAw6JcXHUBe+O/51pW/hKIDfIWkPpnvj2rsFt448njpjj9P61IYYyBg8r0z2rB1ZM29momBb6HBbqPlyfTBNenfs62iL8f8A4YlRtI8T6Yf/ACbiri/LXnjHYEnHeu//AGeVVfj78M9oYZ8T6Zxnp/pUfepTfMiklY/cGvkf/gqDJ5f7MLH/AKjVp/KSvrivkf8A4KgoJP2YHU9DrVp/KSvajujjn8Lufm98Aju8Sh88eTJ/Na+joGJlXHA96+av2fFaHxOVJBUQyn/x5a+k7fPmjkgYzWdZ3lcikrRNF/uc81kXrgNzgVqSEFTg9q8i+OfxHvfh1oYvbG0hupi6jEzELg59PpWPoaHoAlyevFSLIOua+P3/AGrPFr7tun6ZH9FY4/Woj+1L4yYDbFYJ2wYiQf1q+VgrH1tr37zSbof7IP5EV8KeN7dm8beIWx/y/wA3/oVdxB+0P4z1iVbWWazijmOwmOI5wePWvcvD3wc8L+KtFsdZvbMyXt/Ak874X5nYZJ+761SXLrIV1ex8di0YdBmnpbsrDivtpfgH4QJBNjuHTGxP/iamHwH8EqBnR42x6hQT+QFVzREeG/sxy+V43hU8ArKP/HB/hX1p5q+teBfF/QrH4V+GLq+8J2kWkagqKRcRKN4BcKcHr0zXz83xr8dOAX8RXbg9QJGH9aTXM7oLH38ZwcDNMMgPOR7V8A/8Lj8augA8RXqnuRO+f50+P4seNpXyfFOpYPYztj+dLlBo7z9pS0b+2dLb0WZSR6bhXjZgXuwz9a+tfgbYW3jmzu5PENrDrE0aRskl3EJGXcMnk5616unw98NRN8miWK85wLdP8Ku6Wgrn55iEED5gB9elXdMkS2v7YmRVIlQ4J/2ga/QgeDNBUYXRdPxjobZT/MU1/C2iRxPs0XTkbHDC0jBH44pcy7Bc4/4DXG/wHEM5CzyDp716R5mAAc4r4m+P1zf2/ii3eC/vLWI26/u4Z2ROvXANeV/2zqYIzql/2+9cN/jSt1Cx+lZlH0rL18pJpF0pYA7M8n0Oa/On+2NRcc6leH0/ft/jV/Qr68bV7Qtf3TAygHdOxzk4/rTS8wO9+N2mSXPjeZ7eOS4VkT/VKXAOB6fjXBp4V1WQAppl4/0t25/Svsf4Cot54bkNwq3DoxG+QZbhmxya9R+w2qZxbQj3EYobC5+c/wDwi2rLydLvc4z/AMe7n+QqxpeganHqVr/xLL3Kyp/y6yccj2r9ERFGowI1H0UVDf4+wTjr+7b+Rpc3kK7PIfghqcGgeHbuLVJU0wtOWQXjCEsOpI3Y9a9IHjbw+OTrenDnH/H3H/jXyx+0jbJLc6dNjkIee+cmvCcKrkjj8afLpe4Wuz9GX8feHB/zHNPODg4uUOPyNQv8SPC0Qy3iDTv/AAJU/wAjX525yMEn86WNQzHOfz6UWQmj6i+M3l+N7E2uhH+0rkTsyxwISCp9DgDoPWvEv+FP+NJG48PXJ6fxLXpv7Pt2Y/F2k4ziWArjPcL/APrr6vVvSnzdELY+Bv8AhS/jhhx4auef9peacPgn48J+TwteEdN3H+NffgBINJke31xSuwufG/gD4QeMtPuo5LnRZLREuopcyEZ+VgT/ACr7J0kFZZM+g61DLwDz+VWLAkzMR1wKh66j9TVuObdx7dKwJMrqGcdRW/ICYm57dKwbj/j9Q+ooEjK8TrutJT3z16Vy0AyM+nrXYeI4PMs5RzzXJwIcA5o6AV9cbOnNnruHNan7HAUftv8Aw+Pcx3xGf+wdc/4GqeqRFtNfnB46/Wt79j62Vf2zvh65HzCK/wCf+3G6H9albmkHY/WmiiitjQKKKKACiiigAooooAKKKKACiiigAooooAKKKKACiiigAooooAKKKKACiiigAooooAKKKKACiiigAooooAKKKKACiiigAooooAKKKKACiiigAooooAK+Yv23rX7Vp3hBcgYmufftH2r6drnPGHw98PePo7VNf05dQW1LGENK6bC2M/dYdcDrUSTashp2ep+cENjHCwbktnOTUzHHHt1zX3n/AMM4/Dn/AKFqP/wKn/8Ai6b/AMM3fDjGP+EZix6fap//AIuuf2Mmbe0R+eHiQn5fLP73YePXB4B/WuHOvjS9RaUDYcjerduh/PvX6gz/ALMfwyuSDL4WicgYGbu4/wDjlZd9+x58INSDi48Gxvv64vrpc/lLU+wl3GqiXQ/P298Z2Elks8Uqt5gG1O+T2x9eKbpbRwMzO5ub5+WCDO32HoB05r73sP2I/gnplws9v4HiSVTkM2oXbY/Aymuih/Zl+GVuoWLwrDGo6BbmcD/0Or9lK1jPmV7n5/w2sk0iyT4AU7kTqc9if88VdPH+NffH/DN3w3/6FmP/AMCp/wD4ukP7Nvw3P/Msx/8AgVP/APF1PsZ9y+dHwQZD0/CsjWPEMGlx4LZk6BetfoY37NXw2cYPhmPHtd3A/wDalZdx+yH8Irti03g6GQnruvbn/wCOVDoT6MaqLqfmPrXiNtRmPmMxHQBen4VkoqHkLlm5OB1r9Sj+x18HixP/AAhcOT/0+3P/AMdpp/Y3+DrMCfBcJI/6frr/AOO1l9Vn3Rp7aPY/LoLGTk5A7ZHSnGVEXGMpnPQDJP8An/PNfqMP2PPg+AR/whkPPX/Tbrn/AMi01v2OPg6/3vBcJ5z/AMftz1/7+0fVZ90Hton5XvIZW4AORgggnPH8v8femojyNu/dle4ZOcemf8/yr9Uh+xv8HVzjwVCM/wDT7df/AB2lX9jv4PIAF8GQgD0vbn/47S+q1O6H7ePY/K92ITa2CB2C9ahUE7twIOeCe9fqsf2Ovg8f+ZLh/wDA26/+O0H9jr4PEY/4QyH/AMDrr/47R9Vn3Qe3iflYYwQ27ByecgHmk8nHG0AY+6tfqoP2O/g+OngyEf8Ab7df/HaD+xz8HScnwXD/AOBtz/8AHaX1SfdD9vHsflVcTeTGMKC2OD2rDubZr65WSVjsU/6s8Cv1vb9jf4OuPm8FwnjH/H9df/HaYP2MfgyP+ZJh/wDA66/+O1X1WfdE+2j2PyZZymAMYGOnAFT2rAhR1PfjnNfq637FnwXY8+CIT/2/XX/x2nr+xn8G0GB4KhH/AG/XX/x2l9Un3RXt49j8mrmN2fCoGz26/nTFhlRRkqPbGSfwr9av+GNvg5/0JcP/AIHXX/x2mf8ADGPwayT/AMIVFk/9P11/8do+qz7oXt49j8mkYp9Rk+/51Ki925J64H+cV+r5/Yv+DJ6+CYf/AAPuv/jtA/Yu+DA/5kiH8b66/wDjtH1SfdA68T8mLhiw4OT6AZxUdrB8+7B3n1NfrW37F/wYdcHwTCR6fbrr/wCO0D9i74MBcDwTCB/1/XX/AMdo+qz7oft49j8nJZAq9eSMYzUS8noQRX6zt+xb8GGOT4Ihz/1/3X/x2lH7F/wZGMeCYRj/AKfrr/47R9Un3QvbxPyZEionAz34HA/CqvnlTwOf1r9b/wDhi34MYx/whEOP+v66/wDjtNb9in4LNnPgeE5GP+P+6/8AjtP6rPuh+3j2PyUjugcEkAk9c96e7DnHGfQZr9aF/Yp+Cq9PA8A/7frr/wCO0f8ADFPwWJJ/4QiHJ/6f7v8A+O0fVZ90P6xHsfksJAFOcnPcVEZCg3Hkj3zX63/8MVfBbI/4oeHj/p+uv/jtB/Ys+C5x/wAURDx/0/XX/wAdo+qz7oXt49j8jXlZkJCk/pTIW3KDsI544/z+dfrp/wAMVfBb/oSIf/A+6/8AjtH/AAxT8FsY/wCEHg/8Drr/AOO0fVZ90L28ex+SajC5OQfakZtozyQOMmv1v/4Ys+C+Mf8ACDwY/wCv66/+O03/AIYp+C3/AEI8P/gddf8Ax2n9Vn3QOvE/I04yACeOP8+lOWYkgEkgen/6q/W8fsTfBRTkeBoR/wBv93/8doP7E/wVJBPgeHj/AKf7v/47R9Vn3QvbRPyU8wsMjPHTNNGSCCcn0ODiv1u/4Yo+Co/5keH/AMD7v/47Sf8ADFHwV/6EeH15v7v/AOO0fVZ90HtkfkkpyMBefpTkbbnjr2r9ah+xL8FB/wAyNB/4H3X/AMdpR+xP8FR/zI8P/gfd/wDx2j6rPug9sj8lyhbp+IPAqrcwgdFU+nHT/Cv10H7FfwXAA/4QiHH/AF/3X/x2mv8AsT/BR/veB4T3/wCP+6/+O0fVZ90HtkfkGQQAVGcdj61MH6jBJ9Bg1+uf/DEXwS/6EWH/AMD7v/47Sj9iP4JL08Cwev8Ax/XX/wAdp/Vp90T7VH5FmT5mByOOoNG4pgYAI7AV+up/Yl+CjDB8DQken2+7/wDjtIf2I/gmQM+BoeP+n+7/APjtH1afcPao/IrcylOm0c9KMsMnPTrn0r9dT+xH8Ez/AMyND/4H3f8A8doP7EnwTOc+BoTn/p/u/wD47S+rT7oPaxPyIaQDhTt7UzcTx1Nfrx/wxB8Ef+hEg/8AA+7/APjtH/DD/wAER/zIsH/gfd//AB2n9Wn3D2qPyBwykA4zjnJ7e9KUbaMk464/xr9ff+GIPgiTn/hBYM/9f93/APHaX/hiH4JD/mRYf/A+7/8AjtH1afcXtUfkBsJz+nekZMDl9vOB7V+v4/Yf+CI/5kWD/wAD7v8A+O0N+w/8EWGD4EgI/wCv+7/+O0fVp9w9qj8ft6EE7iRx2zzR5ahSAcn8q/X/AP4Yb+B/H/FBwcf9RC7/APjtKP2HfggvTwJAP+3+7/8AjtH1afcXtEfj8QMYGRjk4pohAAXOPev2D/4Ye+CGMf8ACCQY/wCv+7/+O0o/Yf8AgiBj/hBIP/A+7/8AjtH1afcPaRPx7W1IB4yD69qkjs+epYdgOlfsD/wxD8Ev+hFh/wDA+7/+O0h/Yg+CRxnwLDx/1ELv/wCO0fVp90HtIn5ASRJn5owCRjIruv2fYv8Ai/vw0wv/ADMumk+n/H1HX6jH9iH4JHr4FhJ6c393/wDHavaD+x38HvDOu6drOmeC4bXU9PuI7u1uBe3LGOWNw6NgykHDAHBBHFVHDyT3J50ey18if8FRnKfsvPt6nWrQD8pK+u65T4l/Czwt8YfDX/CP+MNJXWdI85Lj7M80kQ8xc7WzGynjJ716K0Zg1dWPxV/Z6tNuuF2GX+zyEk9vnUf5+lfQyMwkU9ODxX3JoP7GHwZ8MT+dpngmG1k2lci+um4JyfvSn0rd/wCGafhr/wBCvF/4FT//AByomuZ3RMU0tT4LY/J618+ftUEN4YkB6AIf1ev15/4Zt+G5GP8AhGY8f9fU/wD8XWB4m/Yy+DXjG2aDWPBMN7E2Mqb66XpnH3ZR6mpUWmVY/ntBAGCfzpygBhz+Qr96P+HcX7Of/RNbf/wZ33/x+gf8E4/2cx0+GtsP+4nff/H60FY/DDQBnVLMZ4Mi/wA6+7PhixfwHohJJ/0dRz7cV90Qf8E7f2eLaVZIvhvbq6nIP9pXvB/7/V22mfsq/CvRrCGzs/CUUNtCu1Ixd3BwPqZM0nqgsfBqnBxSg5HSvvsfs0/DUf8AMsR/+BU//wAcpT+zV8Nj/wAyxH/4FT//AByp5WKzPyc/aPjM/hDU0GAPs0eM88+ZXxorDaOmO1f0L6/+x98IPFFrLbap4NhuoJVCOhvblcgHIHEo71x4/wCCcX7OajA+Glvj/sJ33/x+qSsOx+Da8e1WbbOev4elfu5/w7j/AGc/+ia2/wD4M77/AOP05f8AgnP+zqpyPhtbj/uJ33/x+mgsfm1+y++6yvl7mCBiPwP+Fe8Y9q+1vDX7G3wc8H7/AOx/BUNlvVUbbe3TZA6D5pTW7/wzf8OP+hZj/wDAqf8A+LqWtSeVnwZVa7fbBKfRSf0r79/4Zw+HP/QtR/8AgVP/APF0xv2a/hs6kN4ZjIPUfap//jlFg5Wfhr+0Sgj1izzgF4VP15avGyevWv3/APEH7CHwJ8VTRy6r4At7uSNdqsdQu1wP+AzCsj/h3F+zn/0TW3/8Gd9/8fq+lh2Z+DCHgY6dq1NDJGq2n/XVR+tful/w7i/Zy/6Jpb/+DO+/+P1LD/wTq/Z3t5EeP4b26shDKRqd9wR0/wCW9ILH55fs8yL/AGBeDsJiAK9ZJ44r7i8P/sifCPwtDJFpfg6K0jkO5lF7ctk/8CkNax/Zu+HB/wCZZj/8Cp//AIupsLlZ8DdQe1MnGYWHqCM19+f8M3fDj/oWY/8AwKn/APi6Q/s2fDc9fDMf/gVP/wDF0WDlZ+Kf7RcH+h2h/umQYx6EV88sxDNk8dK/oL8R/sQfBHxaqrq3gWC8CsWAN/drgnr92UVzv/DuD9nI/wDNNLb/AMGd9/8AH6vpYdmfgp9OtOjbHpjpiv3p/wCHb/7OP/RNLb/wZ33/AMfoH/BOD9nIf800t/8AwaX3/wAfpByn4/8AwEnYeKvDZ6DznUk+mGr7KT9a+zNC/YL+A/hq5guNN8AQWs0D+ZGw1G8ba3rzMfWuyH7NXw2H/MsR/wDgVP8A/HKTVyXFnwLnpz+dNduPX3r79/4Zs+G//QsR/wDgVP8A/F0h/Zr+Gx/5liP/AMCp/wD45SsHK0fn45znNWdPP71T/s198n9mj4an/mWI/wDwKn/+OU6P9mz4bxMCvhmMEf8AT1P/APF0WFyM+G5DuhPA6VgXORdxntiv0IP7O/w8Ix/wjceP+vmf/wCLqBv2aPhq7Bj4YiJHT/Sp/wD45SsNQZ+fusrvtZM8jYDXHwRZUDtX6Zy/s1fDaZSr+GI2GMY+1T9P+/lVF/ZV+Fafd8JRD/t7uP8A45TtpYORn5s6lHnT5ewC5Oa2/wBkH5f2yfh5x96LUBn1xY3H+NfoZJ+yv8LJo2R/CcTKwwR9ruP/AI5UvhT9mH4Y+B/F2neKNE8LRWGu6eJBa3i3Vw5jDoyP8rSFTlWYcg9aXKUo2PUqKKKssKKKKACiiigAooooAKKKKACiiigAooooAKKKKACiiigAooooAKKKKACiiigAooooAKKKKACiiigAooooAKKKKACiiigAooooAKKKKACiiigAooooAKKKKACiiigAooooAKKKKACiiigAooooAKKKKACiiigAooooAKKKKACiiigAooooAKKKKACiiigAooooAKKKKACiiigAooooAKKKKACiiigAooooAKKKKACiiigAooooAKKKKACiiigAooooAKKKKACiiigAooooAKKKKACiiigAooooAKKKKACiiigAooooAKKKKACiiigAooooAKKKKACiiigAooooAKKKKACiiigAooooAKKKKACiiigAooooAKKKKACiiigAooooAKKKKACiiigAooooAKKKKACiiigAooooAKKKKACiiigAooooAKKKKACiiigAooooAKKKKACiiigAooooAKKKKACiiigD/9k=;clipPath=inset(5.62% 11.67% 0.89% 15%);" vertex="1" parent="1">
          <mxGeometry x="40" y="120" width="710.13" height="510" as="geometry" />
        </mxCell>
        <mxCell id="4tKkQGwTF7oJl2suKMcT-2" value="" style="rounded=0;whiteSpace=wrap;html=1;fillColor=none;strokeWidth=5;" vertex="1" parent="1">
          <mxGeometry x="48.24" y="130" width="691.76" height="240" as="geometry" />
        </mxCell>
        <mxCell id="4tKkQGwTF7oJl2suKMcT-3" value="" style="rounded=0;whiteSpace=wrap;html=1;fillColor=none;strokeWidth=5;" vertex="1" parent="1">
          <mxGeometry x="48.24" y="377" width="691.76" height="240" as="geometry" />
        </mxCell>
        <mxCell id="4tKkQGwTF7oJl2suKMcT-6" value="" style="rounded=0;whiteSpace=wrap;html=1;fontSize=28;strokeWidth=2;fillColor=none;strokeColor=#FF0000;" vertex="1" parent="1">
          <mxGeometry x="140" y="190" width="130" height="50" as="geometry" />
        </mxCell>
        <mxCell id="4tKkQGwTF7oJl2suKMcT-8" value="" style="rounded=0;whiteSpace=wrap;html=1;fontSize=28;strokeWidth=2;fillColor=none;strokeColor=#FF0000;" vertex="1" parent="1">
          <mxGeometry x="291" y="228" width="130" height="50" as="geometry" />
        </mxCell>
        <mxCell id="4tKkQGwTF7oJl2suKMcT-10" value="" style="rounded=0;whiteSpace=wrap;html=1;fontSize=28;strokeWidth=2;fillColor=none;strokeColor=#FF0000;" vertex="1" parent="1">
          <mxGeometry x="142" y="438" width="130" height="50" as="geometry" />
        </mxCell>
        <mxCell id="4tKkQGwTF7oJl2suKMcT-11" value="" style="rounded=0;whiteSpace=wrap;html=1;fontSize=28;strokeWidth=2;fillColor=none;strokeColor=#FF0000;" vertex="1" parent="1">
          <mxGeometry x="292" y="478" width="130" height="50" as="geometry" />
        </mxCell>
      </root>
    </mxGraphModel>
  </diagram>
</mxfile>
